<svg xmlns="http://www.w3.org/2000/svg" xmlns:xlink="http://www.w3.org/1999/xlink" version="1.1" class="marks" width="846" height="647" viewBox="0 0 846 647"><rect width="846" height="647" fill="white"/><g fill="none" stroke-miterlimit="10" transform="translate(41,10)"><g class="mark-group role-frame root" role="graphics-object" aria-roledescription="group mark container"><g transform="translate(0,0)"><path class="background" aria-hidden="true" d="M0.5,0.5h800v600h-800Z" stroke="#ddd"/><g><g class="mark-group role-axis" aria-hidden="true"><g transform="translate(0.5,600.5)"><path class="background" aria-hidden="true" d="M0,0h0v0h0Z" pointer-events="none"/><g><g class="mark-rule role-axis-grid" pointer-events="none"><line transform="translate(0,-600)" x2="0" y2="600" stroke="#ddd" stroke-width="1" opacity="1"/><line transform="translate(36,-600)" x2="0" y2="600" stroke="#ddd" stroke-width="1" opacity="1"/><line transform="translate(71,-600)" x2="0" y2="600" stroke="#ddd" stroke-width="1" opacity="1"/><line transform="translate(107,-600)" x2="0" y2="600" stroke="#ddd" stroke-width="1" opacity="1"/><line transform="translate(142,-600)" x2="0" y2="600" stroke="#ddd" stroke-width="1" opacity="1"/><line transform="translate(178,-600)" x2="0" y2="600" stroke="#ddd" stroke-width="1" opacity="1"/><line transform="translate(213,-600)" x2="0" y2="600" stroke="#ddd" stroke-width="1" opacity="1"/><line transform="translate(249,-600)" x2="0" y2="600" stroke="#ddd" stroke-width="1" opacity="1"/><line transform="translate(284,-600)" x2="0" y2="600" stroke="#ddd" stroke-width="1" opacity="1"/><line transform="translate(320,-600)" x2="0" y2="600" stroke="#ddd" stroke-width="1" opacity="1"/><line transform="translate(356,-600)" x2="0" y2="600" stroke="#ddd" stroke-width="1" opacity="1"/><line transform="translate(391,-600)" x2="0" y2="600" stroke="#ddd" stroke-width="1" opacity="1"/><line transform="translate(427,-600)" x2="0" y2="600" stroke="#ddd" stroke-width="1" opacity="1"/><line transform="translate(462,-600)" x2="0" y2="600" stroke="#ddd" stroke-width="1" opacity="1"/><line transform="translate(498,-600)" x2="0" y2="600" stroke="#ddd" stroke-width="1" opacity="1"/><line transform="translate(533,-600)" x2="0" y2="600" stroke="#ddd" stroke-width="1" opacity="1"/><line transform="translate(569,-600)" x2="0" y2="600" stroke="#ddd" stroke-width="1" opacity="1"/><line transform="translate(604,-600)" x2="0" y2="600" stroke="#ddd" stroke-width="1" opacity="1"/><line transform="translate(640,-600)" x2="0" y2="600" stroke="#ddd" stroke-width="1" opacity="1"/><line transform="translate(676,-600)" x2="0" y2="600" stroke="#ddd" stroke-width="1" opacity="1"/><line transform="translate(711,-600)" x2="0" y2="600" stroke="#ddd" stroke-width="1" opacity="1"/><line transform="translate(747,-600)" x2="0" y2="600" stroke="#ddd" stroke-width="1" opacity="1"/><line transform="translate(782,-600)" x2="0" y2="600" stroke="#ddd" stroke-width="1" opacity="1"/></g></g><path class="foreground" aria-hidden="true" d="" pointer-events="none" display="none"/></g></g><g class="mark-group role-axis" aria-hidden="true"><g transform="translate(0.5,0.5)"><path class="background" aria-hidden="true" d="M0,0h0v0h0Z" pointer-events="none"/><g><g class="mark-rule role-axis-grid" pointer-events="none"><line transform="translate(0,600)" x2="800" y2="0" stroke="#ddd" stroke-width="1" opacity="1"/><line transform="translate(0,410)" x2="800" y2="0" stroke="#ddd" stroke-width="1" opacity="1"/><line transform="translate(0,332)" x2="800" y2="0" stroke="#ddd" stroke-width="1" opacity="1"/><line transform="translate(0,271)" x2="800" y2="0" stroke="#ddd" stroke-width="1" opacity="1"/><line transform="translate(0,221)" x2="800" y2="0" stroke="#ddd" stroke-width="1" opacity="1"/><line transform="translate(0,176)" x2="800" y2="0" stroke="#ddd" stroke-width="1" opacity="1"/><line transform="translate(0,135)" x2="800" y2="0" stroke="#ddd" stroke-width="1" opacity="1"/><line transform="translate(0,98)" x2="800" y2="0" stroke="#ddd" stroke-width="1" opacity="1"/><line transform="translate(0,63)" x2="800" y2="0" stroke="#ddd" stroke-width="1" opacity="1"/><line transform="translate(0,31)" x2="800" y2="0" stroke="#ddd" stroke-width="1" opacity="1"/><line transform="translate(0,0)" x2="800" y2="0" stroke="#ddd" stroke-width="1" opacity="1"/></g></g><path class="foreground" aria-hidden="true" d="" pointer-events="none" display="none"/></g></g><g class="mark-group role-axis" role="graphics-symbol" aria-roledescription="axis" aria-label="X-axis titled 'Codon Site' for a linear scale with values from 0 to 45"><g transform="translate(0.5,600.5)"><path class="background" aria-hidden="true" d="M0,0h0v0h0Z" pointer-events="none"/><g><g class="mark-rule role-axis-tick" pointer-events="none"><line transform="translate(0,0)" x2="0" y2="5" stroke="#888" stroke-width="1" opacity="1"/><line transform="translate(36,0)" x2="0" y2="5" stroke="#888" stroke-width="1" opacity="1"/><line transform="translate(71,0)" x2="0" y2="5" stroke="#888" stroke-width="1" opacity="1"/><line transform="translate(107,0)" x2="0" y2="5" stroke="#888" stroke-width="1" opacity="1"/><line transform="translate(142,0)" x2="0" y2="5" stroke="#888" stroke-width="1" opacity="1"/><line transform="translate(178,0)" x2="0" y2="5" stroke="#888" stroke-width="1" opacity="1"/><line transform="translate(213,0)" x2="0" y2="5" stroke="#888" stroke-width="1" opacity="1"/><line transform="translate(249,0)" x2="0" y2="5" stroke="#888" stroke-width="1" opacity="1"/><line transform="translate(284,0)" x2="0" y2="5" stroke="#888" stroke-width="1" opacity="1"/><line transform="translate(320,0)" x2="0" y2="5" stroke="#888" stroke-width="1" opacity="1"/><line transform="translate(356,0)" x2="0" y2="5" stroke="#888" stroke-width="1" opacity="1"/><line transform="translate(391,0)" x2="0" y2="5" stroke="#888" stroke-width="1" opacity="1"/><line transform="translate(427,0)" x2="0" y2="5" stroke="#888" stroke-width="1" opacity="1"/><line transform="translate(462,0)" x2="0" y2="5" stroke="#888" stroke-width="1" opacity="1"/><line transform="translate(498,0)" x2="0" y2="5" stroke="#888" stroke-width="1" opacity="1"/><line transform="translate(533,0)" x2="0" y2="5" stroke="#888" stroke-width="1" opacity="1"/><line transform="translate(569,0)" x2="0" y2="5" stroke="#888" stroke-width="1" opacity="1"/><line transform="translate(604,0)" x2="0" y2="5" stroke="#888" stroke-width="1" opacity="1"/><line transform="translate(640,0)" x2="0" y2="5" stroke="#888" stroke-width="1" opacity="1"/><line transform="translate(676,0)" x2="0" y2="5" stroke="#888" stroke-width="1" opacity="1"/><line transform="translate(711,0)" x2="0" y2="5" stroke="#888" stroke-width="1" opacity="1"/><line transform="translate(747,0)" x2="0" y2="5" stroke="#888" stroke-width="1" opacity="1"/><line transform="translate(782,0)" x2="0" y2="5" stroke="#888" stroke-width="1" opacity="1"/></g><g class="mark-text role-axis-label" pointer-events="none"><text text-anchor="start" transform="translate(0,15)" font-family="sans-serif" font-size="10px" fill="#000" opacity="1">0</text><text text-anchor="middle" transform="translate(35.55555555555556,15)" font-family="sans-serif" font-size="10px" fill="#000" opacity="1">2</text><text text-anchor="middle" transform="translate(71.11111111111111,15)" font-family="sans-serif" font-size="10px" fill="#000" opacity="1">4</text><text text-anchor="middle" transform="translate(106.66666666666667,15)" font-family="sans-serif" font-size="10px" fill="#000" opacity="1">6</text><text text-anchor="middle" transform="translate(142.22222222222223,15)" font-family="sans-serif" font-size="10px" fill="#000" opacity="1">8</text><text text-anchor="middle" transform="translate(177.77777777777777,15)" font-family="sans-serif" font-size="10px" fill="#000" opacity="1">10</text><text text-anchor="middle" transform="translate(213.33333333333334,15)" font-family="sans-serif" font-size="10px" fill="#000" opacity="1">12</text><text text-anchor="middle" transform="translate(248.88888888888889,15)" font-family="sans-serif" font-size="10px" fill="#000" opacity="1">14</text><text text-anchor="middle" transform="translate(284.44444444444446,15)" font-family="sans-serif" font-size="10px" fill="#000" opacity="1">16</text><text text-anchor="middle" transform="translate(320,15)" font-family="sans-serif" font-size="10px" fill="#000" opacity="1">18</text><text text-anchor="middle" transform="translate(355.55555555555554,15)" font-family="sans-serif" font-size="10px" fill="#000" opacity="1">20</text><text text-anchor="middle" transform="translate(391.1111111111111,15)" font-family="sans-serif" font-size="10px" fill="#000" opacity="1">22</text><text text-anchor="middle" transform="translate(426.6666666666667,15)" font-family="sans-serif" font-size="10px" fill="#000" opacity="1">24</text><text text-anchor="middle" transform="translate(462.2222222222222,15)" font-family="sans-serif" font-size="10px" fill="#000" opacity="1">26</text><text text-anchor="middle" transform="translate(497.77777777777777,15)" font-family="sans-serif" font-size="10px" fill="#000" opacity="1">28</text><text text-anchor="middle" transform="translate(533.3333333333333,15)" font-family="sans-serif" font-size="10px" fill="#000" opacity="1">30</text><text text-anchor="middle" transform="translate(568.8888888888889,15)" font-family="sans-serif" font-size="10px" fill="#000" opacity="1">32</text><text text-anchor="middle" transform="translate(604.4444444444445,15)" font-family="sans-serif" font-size="10px" fill="#000" opacity="1">34</text><text text-anchor="middle" transform="translate(640,15)" font-family="sans-serif" font-size="10px" fill="#000" opacity="1">36</text><text text-anchor="middle" transform="translate(675.5555555555555,15)" font-family="sans-serif" font-size="10px" fill="#000" opacity="1">38</text><text text-anchor="middle" transform="translate(711.1111111111111,15)" font-family="sans-serif" font-size="10px" fill="#000" opacity="1">40</text><text text-anchor="middle" transform="translate(746.6666666666666,15)" font-family="sans-serif" font-size="10px" fill="#000" opacity="1">42</text><text text-anchor="middle" transform="translate(782.2222222222222,15)" font-family="sans-serif" font-size="10px" fill="#000" opacity="1">44</text></g><g class="mark-rule role-axis-domain" pointer-events="none"><line transform="translate(0,0)" x2="800" y2="0" stroke="#888" stroke-width="1" opacity="1"/></g><g class="mark-text role-axis-title" pointer-events="none"><text text-anchor="middle" transform="translate(400,30)" font-family="sans-serif" font-size="11px" font-weight="bold" fill="#000" opacity="1">Codon Site</text></g></g><path class="foreground" aria-hidden="true" d="" pointer-events="none" display="none"/></g></g><g class="mark-group role-axis" role="graphics-symbol" aria-roledescription="axis" aria-label="Y-axis titled 'dN/dS estimate' for a sqrt scale with values from 0 to 5"><g transform="translate(0.5,0.5)"><path class="background" aria-hidden="true" d="M0,0h0v0h0Z" pointer-events="none"/><g><g class="mark-rule role-axis-tick" pointer-events="none"><line transform="translate(0,600)" x2="-5" y2="0" stroke="#888" stroke-width="1" opacity="1"/><line transform="translate(0,410)" x2="-5" y2="0" stroke="#888" stroke-width="1" opacity="1"/><line transform="translate(0,332)" x2="-5" y2="0" stroke="#888" stroke-width="1" opacity="1"/><line transform="translate(0,271)" x2="-5" y2="0" stroke="#888" stroke-width="1" opacity="1"/><line transform="translate(0,221)" x2="-5" y2="0" stroke="#888" stroke-width="1" opacity="1"/><line transform="translate(0,176)" x2="-5" y2="0" stroke="#888" stroke-width="1" opacity="1"/><line transform="translate(0,135)" x2="-5" y2="0" stroke="#888" stroke-width="1" opacity="1"/><line transform="translate(0,98)" x2="-5" y2="0" stroke="#888" stroke-width="1" opacity="1"/><line transform="translate(0,63)" x2="-5" y2="0" stroke="#888" stroke-width="1" opacity="1"/><line transform="translate(0,31)" x2="-5" y2="0" stroke="#888" stroke-width="1" opacity="1"/><line transform="translate(0,0)" x2="-5" y2="0" stroke="#888" stroke-width="1" opacity="1"/></g><g class="mark-text role-axis-label" pointer-events="none"><text text-anchor="end" transform="translate(-7,603)" font-family="sans-serif" font-size="10px" fill="#000" opacity="1">0.0</text><text text-anchor="end" transform="translate(-7,413.2633403898972)" font-family="sans-serif" font-size="10px" fill="#000" opacity="1">0.5</text><text text-anchor="end" transform="translate(-7,334.67184270002525)" font-family="sans-serif" font-size="10px" fill="#000" opacity="1">1.0</text><text text-anchor="end" transform="translate(-7,274.36646549690033)" font-family="sans-serif" font-size="10px" fill="#000" opacity="1">1.5</text><text text-anchor="end" transform="translate(-7,223.52668077979448)" font-family="sans-serif" font-size="10px" fill="#000" opacity="1">2.0</text><text text-anchor="end" transform="translate(-7,178.73593128807147)" font-family="sans-serif" font-size="10px" fill="#000" opacity="1">2.5</text><text text-anchor="end" transform="translate(-7,138.24199845511004)" font-family="sans-serif" font-size="10px" fill="#000" opacity="1">3.0</text><text text-anchor="end" transform="translate(-7,101.00398407955473)" font-family="sans-serif" font-size="10px" fill="#000" opacity="1">3.5</text><text text-anchor="end" transform="translate(-7,66.34368540005049)" font-family="sans-serif" font-size="10px" fill="#000" opacity="1">4.0</text><text text-anchor="end" transform="translate(-7,33.790021169691805)" font-family="sans-serif" font-size="10px" fill="#000" opacity="1">4.5</text><text text-anchor="end" transform="translate(-7,3)" font-family="sans-serif" font-size="10px" fill="#000" opacity="1">5.0</text></g><g class="mark-rule role-axis-domain" pointer-events="none"><line transform="translate(0,600)" x2="0" y2="-600" stroke="#888" stroke-width="1" opacity="1"/></g><g class="mark-text role-axis-title" pointer-events="none"><text text-anchor="middle" transform="translate(-24.9013671875,300) rotate(-90) translate(0,-2)" font-family="sans-serif" font-size="11px" font-weight="bold" fill="#000" opacity="1">dN/dS estimate</text></g></g><path class="foreground" aria-hidden="true" d="" pointer-events="none" display="none"/></g></g><g class="mark-symbol role-mark layer_0_marks" clip-path="url(#clip1)" role="graphics-object" aria-roledescription="symbol mark container"><path aria-label="Codon Site: 1; dN/dS estimate: 0" role="graphics-symbol" aria-roledescription="circle" transform="translate(17.77777777777778,600)" d="M4.472,0A4.472,4.472,0,1,1,-4.472,0A4.472,4.472,0,1,1,4.472,0" fill="lightgray" stroke-width="2" opacity="0.9"/><path aria-label="Codon Site: 2; dN/dS estimate: 10000" role="graphics-symbol" aria-roledescription="circle" transform="translate(35.55555555555556,0)" d="M4.472,0A4.472,4.472,0,1,1,-4.472,0A4.472,4.472,0,1,1,4.472,0" fill="lightgray" stroke-width="2" opacity="0.9"/><path aria-label="Codon Site: 3; dN/dS estimate: 0.0815545813241" role="graphics-symbol" aria-roledescription="circle" transform="translate(53.333333333333336,523.3714814489098)" d="M4.472,0A4.472,4.472,0,1,1,-4.472,0A4.472,4.472,0,1,1,4.472,0" fill="lightgray" stroke-width="2" opacity="0.9"/><path aria-label="Codon Site: 4; dN/dS estimate: 0" role="graphics-symbol" aria-roledescription="circle" transform="translate(71.11111111111111,600)" d="M4.472,0A4.472,4.472,0,1,1,-4.472,0A4.472,4.472,0,1,1,4.472,0" fill="lightgray" stroke-width="2" opacity="0.9"/><path aria-label="Codon Site: 5; dN/dS estimate: 0" role="graphics-symbol" aria-roledescription="circle" transform="translate(88.88888888888889,600)" d="M4.472,0A4.472,4.472,0,1,1,-4.472,0A4.472,4.472,0,1,1,4.472,0" fill="lightgray" stroke-width="2" opacity="0.9"/><path aria-label="Codon Site: 6; dN/dS estimate: 0" role="graphics-symbol" aria-roledescription="circle" transform="translate(106.66666666666667,600)" d="M4.472,0A4.472,4.472,0,1,1,-4.472,0A4.472,4.472,0,1,1,4.472,0" fill="lightgray" stroke-width="2" opacity="0.9"/><path aria-label="Codon Site: 7; dN/dS estimate: 0" role="graphics-symbol" aria-roledescription="circle" transform="translate(124.44444444444444,600)" d="M4.472,0A4.472,4.472,0,1,1,-4.472,0A4.472,4.472,0,1,1,4.472,0" fill="lightgray" stroke-width="2" opacity="0.9"/><path aria-label="Codon Site: 8; dN/dS estimate: 0" role="graphics-symbol" aria-roledescription="circle" transform="translate(142.22222222222223,600)" d="M4.472,0A4.472,4.472,0,1,1,-4.472,0A4.472,4.472,0,1,1,4.472,0" fill="lightgray" stroke-width="2" opacity="0.9"/><path aria-label="Codon Site: 9; dN/dS estimate: 0" role="graphics-symbol" aria-roledescription="circle" transform="translate(160,600)" d="M4.472,0A4.472,4.472,0,1,1,-4.472,0A4.472,4.472,0,1,1,4.472,0" fill="lightgray" stroke-width="2" opacity="0.9"/><path aria-label="Codon Site: 10; dN/dS estimate: 0" role="graphics-symbol" aria-roledescription="circle" transform="translate(177.77777777777777,600)" d="M4.472,0A4.472,4.472,0,1,1,-4.472,0A4.472,4.472,0,1,1,4.472,0" fill="lightgray" stroke-width="2" opacity="0.9"/><path aria-label="Codon Site: 11; dN/dS estimate: 0" role="graphics-symbol" aria-roledescription="circle" transform="translate(195.55555555555554,600)" d="M4.472,0A4.472,4.472,0,1,1,-4.472,0A4.472,4.472,0,1,1,4.472,0" fill="lightgray" stroke-width="2" opacity="0.9"/><path aria-label="Codon Site: 12; dN/dS estimate: 0" role="graphics-symbol" aria-roledescription="circle" transform="translate(213.33333333333334,600)" d="M4.472,0A4.472,4.472,0,1,1,-4.472,0A4.472,4.472,0,1,1,4.472,0" fill="lightgray" stroke-width="2" opacity="0.9"/><path aria-label="Codon Site: 13; dN/dS estimate: 0" role="graphics-symbol" aria-roledescription="circle" transform="translate(231.1111111111111,600)" d="M4.472,0A4.472,4.472,0,1,1,-4.472,0A4.472,4.472,0,1,1,4.472,0" fill="lightgray" stroke-width="2" opacity="0.9"/><path aria-label="Codon Site: 14; dN/dS estimate: 0" role="graphics-symbol" aria-roledescription="circle" transform="translate(248.88888888888889,600)" d="M4.472,0A4.472,4.472,0,1,1,-4.472,0A4.472,4.472,0,1,1,4.472,0" fill="lightgray" stroke-width="2" opacity="0.9"/><path aria-label="Codon Site: 15; dN/dS estimate: 0" role="graphics-symbol" aria-roledescription="circle" transform="translate(266.66666666666663,600)" d="M4.472,0A4.472,4.472,0,1,1,-4.472,0A4.472,4.472,0,1,1,4.472,0" fill="lightgray" stroke-width="2" opacity="0.9"/><path aria-label="Codon Site: 16; dN/dS estimate: 0" role="graphics-symbol" aria-roledescription="circle" transform="translate(284.44444444444446,600)" d="M4.472,0A4.472,4.472,0,1,1,-4.472,0A4.472,4.472,0,1,1,4.472,0" fill="lightgray" stroke-width="2" opacity="0.9"/><path aria-label="Codon Site: 17; dN/dS estimate: 0.119067915424" role="graphics-symbol" aria-roledescription="circle" transform="translate(302.22222222222223,507.41009822585295)" d="M4.472,0A4.472,4.472,0,1,1,-4.472,0A4.472,4.472,0,1,1,4.472,0" fill="lightgray" stroke-width="2" opacity="0.9"/><path aria-label="Codon Site: 18; dN/dS estimate: 0.613980044623" role="graphics-symbol" aria-roledescription="circle" transform="translate(320,389.74643115319054)" d="M4.472,0A4.472,4.472,0,1,1,-4.472,0A4.472,4.472,0,1,1,4.472,0" fill="lightgray" stroke-width="2" opacity="0.9"/><path aria-label="Codon Site: 19; dN/dS estimate: 10000" role="graphics-symbol" aria-roledescription="circle" transform="translate(337.77777777777777,0)" d="M4.472,0A4.472,4.472,0,1,1,-4.472,0A4.472,4.472,0,1,1,4.472,0" fill="lightgray" stroke-width="2" opacity="0.9"/><path aria-label="Codon Site: 20; dN/dS estimate: 0.0465179147873" role="graphics-symbol" aria-roledescription="circle" transform="translate(355.55555555555554,542.1269504459698)" d="M4.472,0A4.472,4.472,0,1,1,-4.472,0A4.472,4.472,0,1,1,4.472,0" fill="lightgray" stroke-width="2" opacity="0.9"/><path aria-label="Codon Site: 21; dN/dS estimate: 0.342424799654" role="graphics-symbol" aria-roledescription="circle" transform="translate(373.3333333333333,442.98221255196734)" d="M4.472,0A4.472,4.472,0,1,1,-4.472,0A4.472,4.472,0,1,1,4.472,0" fill="lightgray" stroke-width="2" opacity="0.9"/><path aria-label="Codon Site: 22; dN/dS estimate: 0" role="graphics-symbol" aria-roledescription="circle" transform="translate(391.1111111111111,600)" d="M4.472,0A4.472,4.472,0,1,1,-4.472,0A4.472,4.472,0,1,1,4.472,0" fill="lightgray" stroke-width="2" opacity="0.9"/><path aria-label="Codon Site: 23; dN/dS estimate: 0" role="graphics-symbol" aria-roledescription="circle" transform="translate(408.88888888888886,600)" d="M4.472,0A4.472,4.472,0,1,1,-4.472,0A4.472,4.472,0,1,1,4.472,0" fill="lightgray" stroke-width="2" opacity="0.9"/><path aria-label="Codon Site: 24; dN/dS estimate: 0" role="graphics-symbol" aria-roledescription="circle" transform="translate(426.6666666666667,600)" d="M4.472,0A4.472,4.472,0,1,1,-4.472,0A4.472,4.472,0,1,1,4.472,0" fill="lightgray" stroke-width="2" opacity="0.9"/><path aria-label="Codon Site: 25; dN/dS estimate: 0" role="graphics-symbol" aria-roledescription="circle" transform="translate(444.44444444444446,600)" d="M4.472,0A4.472,4.472,0,1,1,-4.472,0A4.472,4.472,0,1,1,4.472,0" fill="lightgray" stroke-width="2" opacity="0.9"/><path aria-label="Codon Site: 26; dN/dS estimate: 0" role="graphics-symbol" aria-roledescription="circle" transform="translate(462.2222222222222,600)" d="M4.472,0A4.472,4.472,0,1,1,-4.472,0A4.472,4.472,0,1,1,4.472,0" fill="lightgray" stroke-width="2" opacity="0.9"/><path aria-label="Codon Site: 27; dN/dS estimate: 0" role="graphics-symbol" aria-roledescription="circle" transform="translate(480,600)" d="M4.472,0A4.472,4.472,0,1,1,-4.472,0A4.472,4.472,0,1,1,4.472,0" fill="lightgray" stroke-width="2" opacity="0.9"/><path aria-label="Codon Site: 28; dN/dS estimate: 0" role="graphics-symbol" aria-roledescription="circle" transform="translate(497.77777777777777,600)" d="M4.472,0A4.472,4.472,0,1,1,-4.472,0A4.472,4.472,0,1,1,4.472,0" fill="lightgray" stroke-width="2" opacity="0.9"/><path aria-label="Codon Site: 29; dN/dS estimate: 0" role="graphics-symbol" aria-roledescription="circle" transform="translate(515.5555555555555,600)" d="M4.472,0A4.472,4.472,0,1,1,-4.472,0A4.472,4.472,0,1,1,4.472,0" fill="lightgray" stroke-width="2" opacity="0.9"/><path aria-label="Codon Site: 30; dN/dS estimate: 4.34982374518e-7" role="graphics-symbol" aria-roledescription="circle" transform="translate(533.3333333333333,599.8230290109501)" d="M4.472,0A4.472,4.472,0,1,1,-4.472,0A4.472,4.472,0,1,1,4.472,0" fill="lightgray" stroke-width="2" opacity="0.9"/><path aria-label="Codon Site: 31; dN/dS estimate: 10000" role="graphics-symbol" aria-roledescription="circle" transform="translate(551.1111111111111,0)" d="M4.472,0A4.472,4.472,0,1,1,-4.472,0A4.472,4.472,0,1,1,4.472,0" fill="lightgray" stroke-width="2" opacity="0.9"/><path aria-label="Codon Site: 32; dN/dS estimate: 0.247162295407" role="graphics-symbol" aria-roledescription="circle" transform="translate(568.8888888888889,466.5995304755922)" d="M4.472,0A4.472,4.472,0,1,1,-4.472,0A4.472,4.472,0,1,1,4.472,0" fill="lightgray" stroke-width="2" opacity="0.9"/><path aria-label="Codon Site: 33; dN/dS estimate: 0.433389775727" role="graphics-symbol" aria-roledescription="circle" transform="translate(586.6666666666666,423.35327953129195)" d="M4.472,0A4.472,4.472,0,1,1,-4.472,0A4.472,4.472,0,1,1,4.472,0" fill="lightgray" stroke-width="2" opacity="0.9"/><path aria-label="Codon Site: 34; dN/dS estimate: 0" role="graphics-symbol" aria-roledescription="circle" transform="translate(604.4444444444445,600)" d="M4.472,0A4.472,4.472,0,1,1,-4.472,0A4.472,4.472,0,1,1,4.472,0" fill="lightgray" stroke-width="2" opacity="0.9"/><path aria-label="Codon Site: 35; dN/dS estimate: 2.62689130412" role="graphics-symbol" aria-roledescription="circle" transform="translate(622.2222222222223,165.10211095444072)" d="M4.472,0A4.472,4.472,0,1,1,-4.472,0A4.472,4.472,0,1,1,4.472,0" fill="lightgray" stroke-width="2" opacity="0.9"/><path aria-label="Codon Site: 36; dN/dS estimate: 28.492910051" role="graphics-symbol" aria-roledescription="circle" transform="translate(640,0)" d="M4.472,0A4.472,4.472,0,1,1,-4.472,0A4.472,4.472,0,1,1,4.472,0" fill="lightgray" stroke-width="2" opacity="0.9"/><path aria-label="Codon Site: 37; dN/dS estimate: 1.98291377853" role="graphics-symbol" aria-roledescription="circle" transform="translate(657.7777777777777,222.1510989110977)" d="M4.472,0A4.472,4.472,0,1,1,-4.472,0A4.472,4.472,0,1,1,4.472,0" fill="lightgray" stroke-width="2" opacity="0.9"/><path aria-label="Codon Site: 38; dN/dS estimate: 1.57627359205" role="graphics-symbol" aria-roledescription="circle" transform="translate(675.5555555555555,263.1147099862904)" d="M4.472,0A4.472,4.472,0,1,1,-4.472,0A4.472,4.472,0,1,1,4.472,0" fill="lightgray" stroke-width="2" opacity="0.9"/><path aria-label="Codon Site: 39; dN/dS estimate: 0.736908169684" role="graphics-symbol" aria-roledescription="circle" transform="translate(693.3333333333334,369.6581058138236)" d="M4.472,0A4.472,4.472,0,1,1,-4.472,0A4.472,4.472,0,1,1,4.472,0" fill="lightgray" stroke-width="2" opacity="0.9"/><path aria-label="Codon Site: 40; dN/dS estimate: 0.83571563109" role="graphics-symbol" aria-roledescription="circle" transform="translate(711.1111111111111,354.7011507599673)" d="M4.472,0A4.472,4.472,0,1,1,-4.472,0A4.472,4.472,0,1,1,4.472,0" fill="lightgray" stroke-width="2" opacity="0.9"/><path aria-label="Codon Site: 41; dN/dS estimate: 0.583643255191" role="graphics-symbol" aria-roledescription="circle" transform="translate(728.8888888888889,395.00655041252554)" d="M4.472,0A4.472,4.472,0,1,1,-4.472,0A4.472,4.472,0,1,1,4.472,0" fill="lightgray" stroke-width="2" opacity="0.9"/><path aria-label="Codon Site: 42; dN/dS estimate: 732.966437" role="graphics-symbol" aria-roledescription="circle" transform="translate(746.6666666666666,0)" d="M4.472,0A4.472,4.472,0,1,1,-4.472,0A4.472,4.472,0,1,1,4.472,0" fill="lightgray" stroke-width="2" opacity="0.9"/><path aria-label="Codon Site: 43; dN/dS estimate: 5.93675990574e-7" role="graphics-symbol" aria-roledescription="circle" transform="translate(764.4444444444445,599.7932521552195)" d="M4.472,0A4.472,4.472,0,1,1,-4.472,0A4.472,4.472,0,1,1,4.472,0" fill="lightgray" stroke-width="2" opacity="0.9"/><path aria-label="Codon Site: 44; dN/dS estimate: 3.64457117362" role="graphics-symbol" aria-roledescription="circle" transform="translate(782.2222222222222,87.74115478520932)" d="M4.472,0A4.472,4.472,0,1,1,-4.472,0A4.472,4.472,0,1,1,4.472,0" fill="lightgray" stroke-width="2" opacity="0.9"/><path aria-label="Codon Site: 45; dN/dS estimate: 0.280635988654" role="graphics-symbol" aria-roledescription="circle" transform="translate(800,457.8529241135541)" d="M4.472,0A4.472,4.472,0,1,1,-4.472,0A4.472,4.472,0,1,1,4.472,0" fill="lightgray" stroke-width="2" opacity="0.9"/></g><g class="mark-area role-mark layer_1_marks" role="graphics-object" aria-roledescription="area mark container"><path aria-label="CodonSite: 1; dN/dS LB: 0; dN/dS UB: 0" role="graphics-symbol" aria-roledescription="area mark" d="M17.778,600L35.556,0L53.333,581.9L71.111,600L88.889,600L106.667,600L124.444,600L142.222,600L160,600L177.778,600L195.556,600L213.333,600L231.111,600L248.889,600L266.667,600L284.444,600L302.222,578.448L320,478.198L337.778,0L355.556,576.906L373.333,523.912L391.111,600L408.889,600L426.667,600L444.444,600L462.222,600L480,600L497.778,600L515.556,600L533.333,600L551.111,0L568.889,569.727L586.667,558.467L604.444,600L622.222,363.99L640,0L657.778,398.805L675.556,427.401L693.333,546.688L711.111,499.154L728.889,513.315L746.667,0L764.444,600L782.222,313.466L800,540.364L800,338.754L782.222,0L764.444,491.756L746.667,0L728.889,240.029L711.111,136.551L693.333,93.834L675.556,47.838L657.778,0L640,0L622.222,0L604.444,600L586.667,189.821L568.889,273.417L551.111,0L533.333,437.518L515.556,600L497.778,600L480,600L462.222,600L444.444,600L426.667,600L408.889,600L391.111,600L373.333,327.868L355.556,490.905L337.778,0L320,262.823L302.222,386.966L284.444,600L266.667,600L248.889,600L231.111,600L213.333,600L195.556,600L177.778,600L160,600L142.222,600L124.444,600L106.667,600L88.889,600L71.111,600L53.333,422.463L35.556,0L17.778,600Z" fill="#4c78a8" opacity="0.5"/></g></g><path class="foreground" aria-hidden="true" d="" display="none"/></g></g></g><defs><clipPath id="clip1"><rect x="0" y="0" width="800" height="600"/></clipPath></defs></svg>