<svg xmlns="http://www.w3.org/2000/svg" xmlns:xlink="http://www.w3.org/1999/xlink" version="1.1" class="marks" width="847" height="647" viewBox="0 0 847 647"><rect width="847" height="647" fill="white"/><g fill="none" stroke-miterlimit="10" transform="translate(41,10)"><g class="mark-group role-frame root" role="graphics-object" aria-roledescription="group mark container"><g transform="translate(0,0)"><path class="background" aria-hidden="true" d="M0.5,0.5h800v600h-800Z" stroke="#ddd"/><g><g class="mark-group role-axis" aria-hidden="true"><g transform="translate(0.5,600.5)"><path class="background" aria-hidden="true" d="M0,0h0v0h0Z" pointer-events="none"/><g><g class="mark-rule role-axis-grid" pointer-events="none"><line transform="translate(0,-600)" x2="0" y2="600" stroke="#ddd" stroke-width="1" opacity="1"/><line transform="translate(62,-600)" x2="0" y2="600" stroke="#ddd" stroke-width="1" opacity="1"/><line transform="translate(123,-600)" x2="0" y2="600" stroke="#ddd" stroke-width="1" opacity="1"/><line transform="translate(185,-600)" x2="0" y2="600" stroke="#ddd" stroke-width="1" opacity="1"/><line transform="translate(246,-600)" x2="0" y2="600" stroke="#ddd" stroke-width="1" opacity="1"/><line transform="translate(308,-600)" x2="0" y2="600" stroke="#ddd" stroke-width="1" opacity="1"/><line transform="translate(369,-600)" x2="0" y2="600" stroke="#ddd" stroke-width="1" opacity="1"/><line transform="translate(431,-600)" x2="0" y2="600" stroke="#ddd" stroke-width="1" opacity="1"/><line transform="translate(492,-600)" x2="0" y2="600" stroke="#ddd" stroke-width="1" opacity="1"/><line transform="translate(554,-600)" x2="0" y2="600" stroke="#ddd" stroke-width="1" opacity="1"/><line transform="translate(615,-600)" x2="0" y2="600" stroke="#ddd" stroke-width="1" opacity="1"/><line transform="translate(677,-600)" x2="0" y2="600" stroke="#ddd" stroke-width="1" opacity="1"/><line transform="translate(738,-600)" x2="0" y2="600" stroke="#ddd" stroke-width="1" opacity="1"/><line transform="translate(800,-600)" x2="0" y2="600" stroke="#ddd" stroke-width="1" opacity="1"/></g></g><path class="foreground" aria-hidden="true" d="" pointer-events="none" display="none"/></g></g><g class="mark-group role-axis" aria-hidden="true"><g transform="translate(0.5,0.5)"><path class="background" aria-hidden="true" d="M0,0h0v0h0Z" pointer-events="none"/><g><g class="mark-rule role-axis-grid" pointer-events="none"><line transform="translate(0,600)" x2="800" y2="0" stroke="#ddd" stroke-width="1" opacity="1"/><line transform="translate(0,410)" x2="800" y2="0" stroke="#ddd" stroke-width="1" opacity="1"/><line transform="translate(0,332)" x2="800" y2="0" stroke="#ddd" stroke-width="1" opacity="1"/><line transform="translate(0,271)" x2="800" y2="0" stroke="#ddd" stroke-width="1" opacity="1"/><line transform="translate(0,221)" x2="800" y2="0" stroke="#ddd" stroke-width="1" opacity="1"/><line transform="translate(0,176)" x2="800" y2="0" stroke="#ddd" stroke-width="1" opacity="1"/><line transform="translate(0,135)" x2="800" y2="0" stroke="#ddd" stroke-width="1" opacity="1"/><line transform="translate(0,98)" x2="800" y2="0" stroke="#ddd" stroke-width="1" opacity="1"/><line transform="translate(0,63)" x2="800" y2="0" stroke="#ddd" stroke-width="1" opacity="1"/><line transform="translate(0,31)" x2="800" y2="0" stroke="#ddd" stroke-width="1" opacity="1"/><line transform="translate(0,0)" x2="800" y2="0" stroke="#ddd" stroke-width="1" opacity="1"/></g></g><path class="foreground" aria-hidden="true" d="" pointer-events="none" display="none"/></g></g><g class="mark-group role-axis" role="graphics-symbol" aria-roledescription="axis" aria-label="X-axis titled 'Codon Site' for a linear scale with values from 0 to 65"><g transform="translate(0.5,600.5)"><path class="background" aria-hidden="true" d="M0,0h0v0h0Z" pointer-events="none"/><g><g class="mark-rule role-axis-tick" pointer-events="none"><line transform="translate(0,0)" x2="0" y2="5" stroke="#888" stroke-width="1" opacity="1"/><line transform="translate(62,0)" x2="0" y2="5" stroke="#888" stroke-width="1" opacity="1"/><line transform="translate(123,0)" x2="0" y2="5" stroke="#888" stroke-width="1" opacity="1"/><line transform="translate(185,0)" x2="0" y2="5" stroke="#888" stroke-width="1" opacity="1"/><line transform="translate(246,0)" x2="0" y2="5" stroke="#888" stroke-width="1" opacity="1"/><line transform="translate(308,0)" x2="0" y2="5" stroke="#888" stroke-width="1" opacity="1"/><line transform="translate(369,0)" x2="0" y2="5" stroke="#888" stroke-width="1" opacity="1"/><line transform="translate(431,0)" x2="0" y2="5" stroke="#888" stroke-width="1" opacity="1"/><line transform="translate(492,0)" x2="0" y2="5" stroke="#888" stroke-width="1" opacity="1"/><line transform="translate(554,0)" x2="0" y2="5" stroke="#888" stroke-width="1" opacity="1"/><line transform="translate(615,0)" x2="0" y2="5" stroke="#888" stroke-width="1" opacity="1"/><line transform="translate(677,0)" x2="0" y2="5" stroke="#888" stroke-width="1" opacity="1"/><line transform="translate(738,0)" x2="0" y2="5" stroke="#888" stroke-width="1" opacity="1"/><line transform="translate(800,0)" x2="0" y2="5" stroke="#888" stroke-width="1" opacity="1"/></g><g class="mark-text role-axis-label" pointer-events="none"><text text-anchor="start" transform="translate(0,15)" font-family="sans-serif" font-size="10px" fill="#000" opacity="1">0</text><text text-anchor="middle" transform="translate(61.53846153846154,15)" font-family="sans-serif" font-size="10px" fill="#000" opacity="1">5</text><text text-anchor="middle" transform="translate(123.07692307692308,15)" font-family="sans-serif" font-size="10px" fill="#000" opacity="1">10</text><text text-anchor="middle" transform="translate(184.6153846153846,15)" font-family="sans-serif" font-size="10px" fill="#000" opacity="1">15</text><text text-anchor="middle" transform="translate(246.15384615384616,15)" font-family="sans-serif" font-size="10px" fill="#000" opacity="1">20</text><text text-anchor="middle" transform="translate(307.69230769230774,15)" font-family="sans-serif" font-size="10px" fill="#000" opacity="1">25</text><text text-anchor="middle" transform="translate(369.2307692307692,15)" font-family="sans-serif" font-size="10px" fill="#000" opacity="1">30</text><text text-anchor="middle" transform="translate(430.7692307692308,15)" font-family="sans-serif" font-size="10px" fill="#000" opacity="1">35</text><text text-anchor="middle" transform="translate(492.3076923076923,15)" font-family="sans-serif" font-size="10px" fill="#000" opacity="1">40</text><text text-anchor="middle" transform="translate(553.8461538461538,15)" font-family="sans-serif" font-size="10px" fill="#000" opacity="1">45</text><text text-anchor="middle" transform="translate(615.3846153846155,15)" font-family="sans-serif" font-size="10px" fill="#000" opacity="1">50</text><text text-anchor="middle" transform="translate(676.9230769230769,15)" font-family="sans-serif" font-size="10px" fill="#000" opacity="1">55</text><text text-anchor="middle" transform="translate(738.4615384615385,15)" font-family="sans-serif" font-size="10px" fill="#000" opacity="1">60</text><text text-anchor="end" transform="translate(800,15)" font-family="sans-serif" font-size="10px" fill="#000" opacity="1">65</text></g><g class="mark-rule role-axis-domain" pointer-events="none"><line transform="translate(0,0)" x2="800" y2="0" stroke="#888" stroke-width="1" opacity="1"/></g><g class="mark-text role-axis-title" pointer-events="none"><text text-anchor="middle" transform="translate(400,30)" font-family="sans-serif" font-size="11px" font-weight="bold" fill="#000" opacity="1">Codon Site</text></g></g><path class="foreground" aria-hidden="true" d="" pointer-events="none" display="none"/></g></g><g class="mark-group role-axis" role="graphics-symbol" aria-roledescription="axis" aria-label="Y-axis titled 'dN/dS estimate' for a sqrt scale with values from 0 to 5"><g transform="translate(0.5,0.5)"><path class="background" aria-hidden="true" d="M0,0h0v0h0Z" pointer-events="none"/><g><g class="mark-rule role-axis-tick" pointer-events="none"><line transform="translate(0,600)" x2="-5" y2="0" stroke="#888" stroke-width="1" opacity="1"/><line transform="translate(0,410)" x2="-5" y2="0" stroke="#888" stroke-width="1" opacity="1"/><line transform="translate(0,332)" x2="-5" y2="0" stroke="#888" stroke-width="1" opacity="1"/><line transform="translate(0,271)" x2="-5" y2="0" stroke="#888" stroke-width="1" opacity="1"/><line transform="translate(0,221)" x2="-5" y2="0" stroke="#888" stroke-width="1" opacity="1"/><line transform="translate(0,176)" x2="-5" y2="0" stroke="#888" stroke-width="1" opacity="1"/><line transform="translate(0,135)" x2="-5" y2="0" stroke="#888" stroke-width="1" opacity="1"/><line transform="translate(0,98)" x2="-5" y2="0" stroke="#888" stroke-width="1" opacity="1"/><line transform="translate(0,63)" x2="-5" y2="0" stroke="#888" stroke-width="1" opacity="1"/><line transform="translate(0,31)" x2="-5" y2="0" stroke="#888" stroke-width="1" opacity="1"/><line transform="translate(0,0)" x2="-5" y2="0" stroke="#888" stroke-width="1" opacity="1"/></g><g class="mark-text role-axis-label" pointer-events="none"><text text-anchor="end" transform="translate(-7,603)" font-family="sans-serif" font-size="10px" fill="#000" opacity="1">0.0</text><text text-anchor="end" transform="translate(-7,413.2633403898972)" font-family="sans-serif" font-size="10px" fill="#000" opacity="1">0.5</text><text text-anchor="end" transform="translate(-7,334.67184270002525)" font-family="sans-serif" font-size="10px" fill="#000" opacity="1">1.0</text><text text-anchor="end" transform="translate(-7,274.36646549690033)" font-family="sans-serif" font-size="10px" fill="#000" opacity="1">1.5</text><text text-anchor="end" transform="translate(-7,223.52668077979448)" font-family="sans-serif" font-size="10px" fill="#000" opacity="1">2.0</text><text text-anchor="end" transform="translate(-7,178.73593128807147)" font-family="sans-serif" font-size="10px" fill="#000" opacity="1">2.5</text><text text-anchor="end" transform="translate(-7,138.24199845511004)" font-family="sans-serif" font-size="10px" fill="#000" opacity="1">3.0</text><text text-anchor="end" transform="translate(-7,101.00398407955473)" font-family="sans-serif" font-size="10px" fill="#000" opacity="1">3.5</text><text text-anchor="end" transform="translate(-7,66.34368540005049)" font-family="sans-serif" font-size="10px" fill="#000" opacity="1">4.0</text><text text-anchor="end" transform="translate(-7,33.790021169691805)" font-family="sans-serif" font-size="10px" fill="#000" opacity="1">4.5</text><text text-anchor="end" transform="translate(-7,3)" font-family="sans-serif" font-size="10px" fill="#000" opacity="1">5.0</text></g><g class="mark-rule role-axis-domain" pointer-events="none"><line transform="translate(0,600)" x2="0" y2="-600" stroke="#888" stroke-width="1" opacity="1"/></g><g class="mark-text role-axis-title" pointer-events="none"><text text-anchor="middle" transform="translate(-24.9013671875,300) rotate(-90) translate(0,-2)" font-family="sans-serif" font-size="11px" font-weight="bold" fill="#000" opacity="1">dN/dS estimate</text></g></g><path class="foreground" aria-hidden="true" d="" pointer-events="none" display="none"/></g></g><g class="mark-symbol role-mark layer_0_marks" clip-path="url(#clip1)" role="graphics-object" aria-roledescription="symbol mark container"><path aria-label="Codon Site: 1; dN/dS estimate: 0" role="graphics-symbol" aria-roledescription="circle" transform="translate(12.307692307692308,600)" d="M4.472,0A4.472,4.472,0,1,1,-4.472,0A4.472,4.472,0,1,1,4.472,0" fill="lightgray" stroke-width="2" opacity="0.9"/><path aria-label="Codon Site: 2; dN/dS estimate: 0.087759732864" role="graphics-symbol" aria-roledescription="circle" transform="translate(24.615384615384617,520.5097442059166)" d="M4.472,0A4.472,4.472,0,1,1,-4.472,0A4.472,4.472,0,1,1,4.472,0" fill="lightgray" stroke-width="2" opacity="0.9"/><path aria-label="Codon Site: 3; dN/dS estimate: 0.793111047795" role="graphics-symbol" aria-roledescription="circle" transform="translate(36.92307692307693,361.03557703872127)" d="M4.472,0A4.472,4.472,0,1,1,-4.472,0A4.472,4.472,0,1,1,4.472,0" fill="lightgray" stroke-width="2" opacity="0.9"/><path aria-label="Codon Site: 4; dN/dS estimate: 2.05016028128" role="graphics-symbol" aria-roledescription="circle" transform="translate(49.23076923076923,215.79752700887573)" d="M4.472,0A4.472,4.472,0,1,1,-4.472,0A4.472,4.472,0,1,1,4.472,0" fill="lightgray" stroke-width="2" opacity="0.9"/><path aria-label="Codon Site: 5; dN/dS estimate: 0.363256042401" role="graphics-symbol" aria-roledescription="circle" transform="translate(61.53846153846154,438.2766712780927)" d="M4.472,0A4.472,4.472,0,1,1,-4.472,0A4.472,4.472,0,1,1,4.472,0" fill="lightgray" stroke-width="2" opacity="0.9"/><path aria-label="Codon Site: 6; dN/dS estimate: 2.85042383169" role="graphics-symbol" aria-roledescription="circle" transform="translate(73.84615384615385,146.97625240861473)" d="M4.472,0A4.472,4.472,0,1,1,-4.472,0A4.472,4.472,0,1,1,4.472,0" fill="lightgray" stroke-width="2" opacity="0.9"/><path aria-label="Codon Site: 7; dN/dS estimate: 0.0131302729703" role="graphics-symbol" aria-roledescription="circle" transform="translate(86.15384615384616,569.2529732517227)" d="M4.472,0A4.472,4.472,0,1,1,-4.472,0A4.472,4.472,0,1,1,4.472,0" fill="red" stroke-width="2" opacity="0.9"/><path aria-label="Codon Site: 8; dN/dS estimate: 7.20664014867" role="graphics-symbol" aria-roledescription="circle" transform="translate(98.46153846153847,0)" d="M4.472,0A4.472,4.472,0,1,1,-4.472,0A4.472,4.472,0,1,1,4.472,0" fill="lightgray" stroke-width="2" opacity="0.9"/><path aria-label="Codon Site: 9; dN/dS estimate: 0.82056745837" role="graphics-symbol" aria-roledescription="circle" transform="translate(110.76923076923077,356.9344594503946)" d="M4.472,0A4.472,4.472,0,1,1,-4.472,0A4.472,4.472,0,1,1,4.472,0" fill="lightgray" stroke-width="2" opacity="0.9"/><path aria-label="Codon Site: 10; dN/dS estimate: 7.24521869978e-7" role="graphics-symbol" aria-roledescription="circle" transform="translate(123.07692307692308,599.7716021571066)" d="M4.472,0A4.472,4.472,0,1,1,-4.472,0A4.472,4.472,0,1,1,4.472,0" fill="lightgray" stroke-width="2" opacity="0.9"/><path aria-label="Codon Site: 11; dN/dS estimate: 1.32666359802" role="graphics-symbol" aria-roledescription="circle" transform="translate(135.3846153846154,290.9372570858765)" d="M4.472,0A4.472,4.472,0,1,1,-4.472,0A4.472,4.472,0,1,1,4.472,0" fill="lightgray" stroke-width="2" opacity="0.9"/><path aria-label="Codon Site: 12; dN/dS estimate: 0.060874347973" role="graphics-symbol" aria-roledescription="circle" transform="translate(147.6923076923077,533.7961250827916)" d="M4.472,0A4.472,4.472,0,1,1,-4.472,0A4.472,4.472,0,1,1,4.472,0" fill="lightgray" stroke-width="2" opacity="0.9"/><path aria-label="Codon Site: 13; dN/dS estimate: 10000" role="graphics-symbol" aria-roledescription="circle" transform="translate(160,0)" d="M4.472,0A4.472,4.472,0,1,1,-4.472,0A4.472,4.472,0,1,1,4.472,0" fill="lightgray" stroke-width="2" opacity="0.9"/><path aria-label="Codon Site: 14; dN/dS estimate: 10000" role="graphics-symbol" aria-roledescription="circle" transform="translate(172.30769230769232,0)" d="M4.472,0A4.472,4.472,0,1,1,-4.472,0A4.472,4.472,0,1,1,4.472,0" fill="lightgray" stroke-width="2" opacity="0.9"/><path aria-label="Codon Site: 15; dN/dS estimate: 0.139992283095" role="graphics-symbol" aria-roledescription="circle" transform="translate(184.6153846153846,499.60356389369565)" d="M4.472,0A4.472,4.472,0,1,1,-4.472,0A4.472,4.472,0,1,1,4.472,0" fill="lightgray" stroke-width="2" opacity="0.9"/><path aria-label="Codon Site: 16; dN/dS estimate: 2.81046204635" role="graphics-symbol" aria-roledescription="circle" transform="translate(196.92307692307693,150.1630658367236)" d="M4.472,0A4.472,4.472,0,1,1,-4.472,0A4.472,4.472,0,1,1,4.472,0" fill="lightgray" stroke-width="2" opacity="0.9"/><path aria-label="Codon Site: 17; dN/dS estimate: 3.37783482899e-9" role="graphics-symbol" aria-roledescription="circle" transform="translate(209.23076923076925,599.984404997349)" d="M4.472,0A4.472,4.472,0,1,1,-4.472,0A4.472,4.472,0,1,1,4.472,0" fill="lightgray" stroke-width="2" opacity="0.9"/><path aria-label="Codon Site: 18; dN/dS estimate: 0" role="graphics-symbol" aria-roledescription="circle" transform="translate(221.53846153846155,600)" d="M4.472,0A4.472,4.472,0,1,1,-4.472,0A4.472,4.472,0,1,1,4.472,0" fill="lightgray" stroke-width="2" opacity="0.9"/><path aria-label="Codon Site: 19; dN/dS estimate: 0" role="graphics-symbol" aria-roledescription="circle" transform="translate(233.84615384615387,600)" d="M4.472,0A4.472,4.472,0,1,1,-4.472,0A4.472,4.472,0,1,1,4.472,0" fill="lightgray" stroke-width="2" opacity="0.9"/><path aria-label="Codon Site: 20; dN/dS estimate: 0" role="graphics-symbol" aria-roledescription="circle" transform="translate(246.15384615384616,600)" d="M4.472,0A4.472,4.472,0,1,1,-4.472,0A4.472,4.472,0,1,1,4.472,0" fill="lightgray" stroke-width="2" opacity="0.9"/><path aria-label="Codon Site: 21; dN/dS estimate: 0" role="graphics-symbol" aria-roledescription="circle" transform="translate(258.46153846153845,600)" d="M4.472,0A4.472,4.472,0,1,1,-4.472,0A4.472,4.472,0,1,1,4.472,0" fill="lightgray" stroke-width="2" opacity="0.9"/><path aria-label="Codon Site: 22; dN/dS estimate: 0" role="graphics-symbol" aria-roledescription="circle" transform="translate(270.7692307692308,600)" d="M4.472,0A4.472,4.472,0,1,1,-4.472,0A4.472,4.472,0,1,1,4.472,0" fill="lightgray" stroke-width="2" opacity="0.9"/><path aria-label="Codon Site: 23; dN/dS estimate: 1.41786577576e-8" role="graphics-symbol" aria-roledescription="circle" transform="translate(283.0769230769231,599.9680490476113)" d="M4.472,0A4.472,4.472,0,1,1,-4.472,0A4.472,4.472,0,1,1,4.472,0" fill="lightgray" stroke-width="2" opacity="0.9"/><path aria-label="Codon Site: 24; dN/dS estimate: 1.08352872212" role="graphics-symbol" aria-roledescription="circle" transform="translate(295.3846153846154,320.690014513242)" d="M4.472,0A4.472,4.472,0,1,1,-4.472,0A4.472,4.472,0,1,1,4.472,0" fill="lightgray" stroke-width="2" opacity="0.9"/><path aria-label="Codon Site: 25; dN/dS estimate: 7.74071419009" role="graphics-symbol" aria-roledescription="circle" transform="translate(307.69230769230774,0)" d="M4.472,0A4.472,4.472,0,1,1,-4.472,0A4.472,4.472,0,1,1,4.472,0" fill="lightgray" stroke-width="2" opacity="0.9"/><path aria-label="Codon Site: 26; dN/dS estimate: 10000" role="graphics-symbol" aria-roledescription="circle" transform="translate(320,0)" d="M4.472,0A4.472,4.472,0,1,1,-4.472,0A4.472,4.472,0,1,1,4.472,0" fill="lightgray" stroke-width="2" opacity="0.9"/><path aria-label="Codon Site: 27; dN/dS estimate: 4.28709885208e-7" role="graphics-symbol" aria-roledescription="circle" transform="translate(332.3076923076923,599.8243096139938)" d="M4.472,0A4.472,4.472,0,1,1,-4.472,0A4.472,4.472,0,1,1,4.472,0" fill="lightgray" stroke-width="2" opacity="0.9"/><path aria-label="Codon Site: 28; dN/dS estimate: 0.0140134568543" role="graphics-symbol" aria-roledescription="circle" transform="translate(344.61538461538464,568.2357292936301)" d="M4.472,0A4.472,4.472,0,1,1,-4.472,0A4.472,4.472,0,1,1,4.472,0" fill="red" stroke-width="2" opacity="0.9"/><path aria-label="Codon Site: 29; dN/dS estimate: 10000" role="graphics-symbol" aria-roledescription="circle" transform="translate(356.92307692307696,0)" d="M4.472,0A4.472,4.472,0,1,1,-4.472,0A4.472,4.472,0,1,1,4.472,0" fill="lightgray" stroke-width="2" opacity="0.9"/><path aria-label="Codon Site: 30; dN/dS estimate: 10000" role="graphics-symbol" aria-roledescription="circle" transform="translate(369.2307692307692,0)" d="M4.472,0A4.472,4.472,0,1,1,-4.472,0A4.472,4.472,0,1,1,4.472,0" fill="lightgray" stroke-width="2" opacity="0.9"/><path aria-label="Codon Site: 31; dN/dS estimate: 0" role="graphics-symbol" aria-roledescription="circle" transform="translate(381.53846153846155,600)" d="M4.472,0A4.472,4.472,0,1,1,-4.472,0A4.472,4.472,0,1,1,4.472,0" fill="lightgray" stroke-width="2" opacity="0.9"/><path aria-label="Codon Site: 32; dN/dS estimate: 0" role="graphics-symbol" aria-roledescription="circle" transform="translate(393.84615384615387,600)" d="M4.472,0A4.472,4.472,0,1,1,-4.472,0A4.472,4.472,0,1,1,4.472,0" fill="lightgray" stroke-width="2" opacity="0.9"/><path aria-label="Codon Site: 33; dN/dS estimate: 8.95323662101" role="graphics-symbol" aria-roledescription="circle" transform="translate(406.15384615384613,0)" d="M4.472,0A4.472,4.472,0,1,1,-4.472,0A4.472,4.472,0,1,1,4.472,0" fill="lightgray" stroke-width="2" opacity="0.9"/><path aria-label="Codon Site: 34; dN/dS estimate: 0.160824367129" role="graphics-symbol" aria-roledescription="circle" transform="translate(418.4615384615385,492.3925911783648)" d="M4.472,0A4.472,4.472,0,1,1,-4.472,0A4.472,4.472,0,1,1,4.472,0" fill="lightgray" stroke-width="2" opacity="0.9"/><path aria-label="Codon Site: 35; dN/dS estimate: 6.3591686745e-7" role="graphics-symbol" aria-roledescription="circle" transform="translate(430.7692307692308,599.7860233319813)" d="M4.472,0A4.472,4.472,0,1,1,-4.472,0A4.472,4.472,0,1,1,4.472,0" fill="lightgray" stroke-width="2" opacity="0.9"/><path aria-label="Codon Site: 36; dN/dS estimate: 0" role="graphics-symbol" aria-roledescription="circle" transform="translate(443.0769230769231,600)" d="M4.472,0A4.472,4.472,0,1,1,-4.472,0A4.472,4.472,0,1,1,4.472,0" fill="lightgray" stroke-width="2" opacity="0.9"/><path aria-label="Codon Site: 37; dN/dS estimate: 0" role="graphics-symbol" aria-roledescription="circle" transform="translate(455.38461538461536,600)" d="M4.472,0A4.472,4.472,0,1,1,-4.472,0A4.472,4.472,0,1,1,4.472,0" fill="lightgray" stroke-width="2" opacity="0.9"/><path aria-label="Codon Site: 38; dN/dS estimate: 0" role="graphics-symbol" aria-roledescription="circle" transform="translate(467.69230769230774,600)" d="M4.472,0A4.472,4.472,0,1,1,-4.472,0A4.472,4.472,0,1,1,4.472,0" fill="lightgray" stroke-width="2" opacity="0.9"/><path aria-label="Codon Site: 39; dN/dS estimate: 0" role="graphics-symbol" aria-roledescription="circle" transform="translate(480,600)" d="M4.472,0A4.472,4.472,0,1,1,-4.472,0A4.472,4.472,0,1,1,4.472,0" fill="lightgray" stroke-width="2" opacity="0.9"/><path aria-label="Codon Site: 40; dN/dS estimate: 0" role="graphics-symbol" aria-roledescription="circle" transform="translate(492.3076923076923,600)" d="M4.472,0A4.472,4.472,0,1,1,-4.472,0A4.472,4.472,0,1,1,4.472,0" fill="lightgray" stroke-width="2" opacity="0.9"/><path aria-label="Codon Site: 41; dN/dS estimate: 0.657599180092" role="graphics-symbol" aria-roledescription="circle" transform="translate(504.6153846153846,382.4060180827838)" d="M4.472,0A4.472,4.472,0,1,1,-4.472,0A4.472,4.472,0,1,1,4.472,0" fill="lightgray" stroke-width="2" opacity="0.9"/><path aria-label="Codon Site: 42; dN/dS estimate: 0.540760291641" role="graphics-symbol" aria-roledescription="circle" transform="translate(516.9230769230769,402.6811184956765)" d="M4.472,0A4.472,4.472,0,1,1,-4.472,0A4.472,4.472,0,1,1,4.472,0" fill="lightgray" stroke-width="2" opacity="0.9"/><path aria-label="Codon Site: 43; dN/dS estimate: 0.208856671183" role="graphics-symbol" aria-roledescription="circle" transform="translate(529.2307692307692,477.37178006201555)" d="M4.472,0A4.472,4.472,0,1,1,-4.472,0A4.472,4.472,0,1,1,4.472,0" fill="lightgray" stroke-width="2" opacity="0.9"/><path aria-label="Codon Site: 44; dN/dS estimate: 0" role="graphics-symbol" aria-roledescription="circle" transform="translate(541.5384615384615,600)" d="M4.472,0A4.472,4.472,0,1,1,-4.472,0A4.472,4.472,0,1,1,4.472,0" fill="lightgray" stroke-width="2" opacity="0.9"/><path aria-label="Codon Site: 45; dN/dS estimate: 0" role="graphics-symbol" aria-roledescription="circle" transform="translate(553.8461538461538,600)" d="M4.472,0A4.472,4.472,0,1,1,-4.472,0A4.472,4.472,0,1,1,4.472,0" fill="lightgray" stroke-width="2" opacity="0.9"/><path aria-label="Codon Site: 46; dN/dS estimate: 0" role="graphics-symbol" aria-roledescription="circle" transform="translate(566.1538461538462,600)" d="M4.472,0A4.472,4.472,0,1,1,-4.472,0A4.472,4.472,0,1,1,4.472,0" fill="lightgray" stroke-width="2" opacity="0.9"/><path aria-label="Codon Site: 47; dN/dS estimate: 0" role="graphics-symbol" aria-roledescription="circle" transform="translate(578.4615384615385,600)" d="M4.472,0A4.472,4.472,0,1,1,-4.472,0A4.472,4.472,0,1,1,4.472,0" fill="lightgray" stroke-width="2" opacity="0.9"/><path aria-label="Codon Site: 48; dN/dS estimate: 0" role="graphics-symbol" aria-roledescription="circle" transform="translate(590.7692307692308,600)" d="M4.472,0A4.472,4.472,0,1,1,-4.472,0A4.472,4.472,0,1,1,4.472,0" fill="lightgray" stroke-width="2" opacity="0.9"/><path aria-label="Codon Site: 49; dN/dS estimate: 0" role="graphics-symbol" aria-roledescription="circle" transform="translate(603.0769230769231,600)" d="M4.472,0A4.472,4.472,0,1,1,-4.472,0A4.472,4.472,0,1,1,4.472,0" fill="lightgray" stroke-width="2" opacity="0.9"/><path aria-label="Codon Site: 50; dN/dS estimate: 0" role="graphics-symbol" aria-roledescription="circle" transform="translate(615.3846153846155,600)" d="M4.472,0A4.472,4.472,0,1,1,-4.472,0A4.472,4.472,0,1,1,4.472,0" fill="lightgray" stroke-width="2" opacity="0.9"/><path aria-label="Codon Site: 51; dN/dS estimate: 0" role="graphics-symbol" aria-roledescription="circle" transform="translate(627.6923076923077,600)" d="M4.472,0A4.472,4.472,0,1,1,-4.472,0A4.472,4.472,0,1,1,4.472,0" fill="lightgray" stroke-width="2" opacity="0.9"/><path aria-label="Codon Site: 52; dN/dS estimate: 0" role="graphics-symbol" aria-roledescription="circle" transform="translate(640,600)" d="M4.472,0A4.472,4.472,0,1,1,-4.472,0A4.472,4.472,0,1,1,4.472,0" fill="lightgray" stroke-width="2" opacity="0.9"/><path aria-label="Codon Site: 53; dN/dS estimate: 5.041002875e-7" role="graphics-symbol" aria-roledescription="circle" transform="translate(652.3076923076923,599.8094869539901)" d="M4.472,0A4.472,4.472,0,1,1,-4.472,0A4.472,4.472,0,1,1,4.472,0" fill="lightgray" stroke-width="2" opacity="0.9"/><path aria-label="Codon Site: 54; dN/dS estimate: 0.229133580238" role="graphics-symbol" aria-roledescription="circle" transform="translate(664.6153846153846,471.55694733798094)" d="M4.472,0A4.472,4.472,0,1,1,-4.472,0A4.472,4.472,0,1,1,4.472,0" fill="lightgray" stroke-width="2" opacity="0.9"/><path aria-label="Codon Site: 55; dN/dS estimate: 0" role="graphics-symbol" aria-roledescription="circle" transform="translate(676.9230769230769,600)" d="M4.472,0A4.472,4.472,0,1,1,-4.472,0A4.472,4.472,0,1,1,4.472,0" fill="lightgray" stroke-width="2" opacity="0.9"/><path aria-label="Codon Site: 56; dN/dS estimate: 0" role="graphics-symbol" aria-roledescription="circle" transform="translate(689.2307692307693,600)" d="M4.472,0A4.472,4.472,0,1,1,-4.472,0A4.472,4.472,0,1,1,4.472,0" fill="lightgray" stroke-width="2" opacity="0.9"/><path aria-label="Codon Site: 57; dN/dS estimate: 0" role="graphics-symbol" aria-roledescription="circle" transform="translate(701.5384615384615,600)" d="M4.472,0A4.472,4.472,0,1,1,-4.472,0A4.472,4.472,0,1,1,4.472,0" fill="lightgray" stroke-width="2" opacity="0.9"/><path aria-label="Codon Site: 58; dN/dS estimate: 0" role="graphics-symbol" aria-roledescription="circle" transform="translate(713.8461538461539,600)" d="M4.472,0A4.472,4.472,0,1,1,-4.472,0A4.472,4.472,0,1,1,4.472,0" fill="lightgray" stroke-width="2" opacity="0.9"/><path aria-label="Codon Site: 59; dN/dS estimate: 0" role="graphics-symbol" aria-roledescription="circle" transform="translate(726.1538461538462,600)" d="M4.472,0A4.472,4.472,0,1,1,-4.472,0A4.472,4.472,0,1,1,4.472,0" fill="lightgray" stroke-width="2" opacity="0.9"/><path aria-label="Codon Site: 60; dN/dS estimate: 0" role="graphics-symbol" aria-roledescription="circle" transform="translate(738.4615384615385,600)" d="M4.472,0A4.472,4.472,0,1,1,-4.472,0A4.472,4.472,0,1,1,4.472,0" fill="lightgray" stroke-width="2" opacity="0.9"/><path aria-label="Codon Site: 61; dN/dS estimate: 2.15594010904e-9" role="graphics-symbol" aria-roledescription="circle" transform="translate(750.7692307692307,599.9875409595935)" d="M4.472,0A4.472,4.472,0,1,1,-4.472,0A4.472,4.472,0,1,1,4.472,0" fill="lightgray" stroke-width="2" opacity="0.9"/></g><g class="mark-area role-mark layer_1_marks" role="graphics-object" aria-roledescription="area mark container"><path aria-label="CodonSite: 1; dN/dS LB: 0; dN/dS UB: 0" role="graphics-symbol" aria-roledescription="area mark" d="M12.308,600L24.615,574.705L36.923,568.267L49.231,420.696L61.538,528.877L73.846,413.016L86.154,593.716L98.462,280.857L110.769,516.741L123.077,600L135.385,455.26L147.692,574.952L160,0L172.308,0L184.615,563.724L196.923,439.442L209.231,600L221.538,600L233.846,600L246.154,600L258.462,600L270.769,600L283.077,600L295.385,473.711L307.692,262.783L320,0L332.308,600L344.615,588.426L356.923,0L369.231,0L381.538,600L393.846,600L406.154,335.751L418.462,559.892L430.769,600L443.077,600L455.385,600L467.692,600L480,600L492.308,600L504.615,563.89L516.923,559.817L529.231,557.318L541.538,600L553.846,600L566.154,600L578.462,600L590.769,600L603.077,600L615.385,600L627.692,600L640,600L652.308,600L664.615,552.694L676.923,600L689.231,600L701.538,600L713.846,600L726.154,600L738.462,600L750.769,600L750.769,375.126L738.462,600L726.154,600L713.846,600L701.538,600L689.231,600L676.923,600L664.615,327.363L652.308,394.867L640,600L627.692,600L615.385,600L603.077,600L590.769,600L578.462,600L566.154,600L553.846,600L541.538,600L529.231,339.604L516.923,0L504.615,0L492.308,600L480,600L467.692,600L455.385,600L443.077,600L430.769,467.499L418.462,384.561L406.154,0L393.846,600L381.538,600L369.231,0L356.923,0L344.615,522.563L332.308,272.896L320,0L307.692,0L295.385,102.873L283.077,370.517L270.769,600L258.462,600L246.154,600L233.846,600L221.538,600L209.231,407.473L196.923,0L184.615,346.687L172.308,0L160,0L147.692,432.297L135.385,58.151L123.077,329.906L110.769,76.87L98.462,0L86.154,499.191L73.846,0L61.538,303.785L49.231,0L36.923,0L24.615,387.09L12.308,600Z" fill="#4c78a8" opacity="0.5"/></g></g><path class="foreground" aria-hidden="true" d="" display="none"/></g></g></g><defs><clipPath id="clip1"><rect x="0" y="0" width="800" height="600"/></clipPath></defs></svg>