<svg xmlns="http://www.w3.org/2000/svg" xmlns:xlink="http://www.w3.org/1999/xlink" version="1.1" class="marks" width="960" height="647" viewBox="0 0 960 647"><rect width="960" height="647" fill="white"/><g fill="none" stroke-miterlimit="10" transform="translate(47,10)"><g class="mark-group role-frame root" role="graphics-object" aria-roledescription="group mark container"><g transform="translate(0,0)"><path class="background" aria-hidden="true" d="M0.5,0.5h800v600h-800Z" stroke="#ddd"/><g><g class="mark-group role-axis" aria-hidden="true"><g transform="translate(0.5,600.5)"><path class="background" aria-hidden="true" d="M0,0h0v0h0Z" pointer-events="none"/><g><g class="mark-rule role-axis-grid" pointer-events="none"><line transform="translate(0,-600)" x2="0" y2="600" stroke="#ddd" stroke-width="1" opacity="1"/><line transform="translate(57,-600)" x2="0" y2="600" stroke="#ddd" stroke-width="1" opacity="1"/><line transform="translate(114,-600)" x2="0" y2="600" stroke="#ddd" stroke-width="1" opacity="1"/><line transform="translate(171,-600)" x2="0" y2="600" stroke="#ddd" stroke-width="1" opacity="1"/><line transform="translate(229,-600)" x2="0" y2="600" stroke="#ddd" stroke-width="1" opacity="1"/><line transform="translate(286,-600)" x2="0" y2="600" stroke="#ddd" stroke-width="1" opacity="1"/><line transform="translate(343,-600)" x2="0" y2="600" stroke="#ddd" stroke-width="1" opacity="1"/><line transform="translate(400,-600)" x2="0" y2="600" stroke="#ddd" stroke-width="1" opacity="1"/><line transform="translate(457,-600)" x2="0" y2="600" stroke="#ddd" stroke-width="1" opacity="1"/><line transform="translate(514,-600)" x2="0" y2="600" stroke="#ddd" stroke-width="1" opacity="1"/><line transform="translate(571,-600)" x2="0" y2="600" stroke="#ddd" stroke-width="1" opacity="1"/><line transform="translate(629,-600)" x2="0" y2="600" stroke="#ddd" stroke-width="1" opacity="1"/><line transform="translate(686,-600)" x2="0" y2="600" stroke="#ddd" stroke-width="1" opacity="1"/><line transform="translate(743,-600)" x2="0" y2="600" stroke="#ddd" stroke-width="1" opacity="1"/><line transform="translate(800,-600)" x2="0" y2="600" stroke="#ddd" stroke-width="1" opacity="1"/></g></g><path class="foreground" aria-hidden="true" d="" pointer-events="none" display="none"/></g></g><g class="mark-group role-axis" aria-hidden="true"><g transform="translate(0.5,0.5)"><path class="background" aria-hidden="true" d="M0,0h0v0h0Z" pointer-events="none"/><g><g class="mark-rule role-axis-grid" pointer-events="none"><line transform="translate(0,600)" x2="800" y2="0" stroke="#ddd" stroke-width="1" opacity="1"/><line transform="translate(0,570)" x2="800" y2="0" stroke="#ddd" stroke-width="1" opacity="1"/><line transform="translate(0,540)" x2="800" y2="0" stroke="#ddd" stroke-width="1" opacity="1"/><line transform="translate(0,510)" x2="800" y2="0" stroke="#ddd" stroke-width="1" opacity="1"/><line transform="translate(0,480)" x2="800" y2="0" stroke="#ddd" stroke-width="1" opacity="1"/><line transform="translate(0,450)" x2="800" y2="0" stroke="#ddd" stroke-width="1" opacity="1"/><line transform="translate(0,420)" x2="800" y2="0" stroke="#ddd" stroke-width="1" opacity="1"/><line transform="translate(0,390)" x2="800" y2="0" stroke="#ddd" stroke-width="1" opacity="1"/><line transform="translate(0,360)" x2="800" y2="0" stroke="#ddd" stroke-width="1" opacity="1"/><line transform="translate(0,330)" x2="800" y2="0" stroke="#ddd" stroke-width="1" opacity="1"/><line transform="translate(0,300)" x2="800" y2="0" stroke="#ddd" stroke-width="1" opacity="1"/><line transform="translate(0,270)" x2="800" y2="0" stroke="#ddd" stroke-width="1" opacity="1"/><line transform="translate(0,240)" x2="800" y2="0" stroke="#ddd" stroke-width="1" opacity="1"/><line transform="translate(0,210)" x2="800" y2="0" stroke="#ddd" stroke-width="1" opacity="1"/><line transform="translate(0,180)" x2="800" y2="0" stroke="#ddd" stroke-width="1" opacity="1"/><line transform="translate(0,150)" x2="800" y2="0" stroke="#ddd" stroke-width="1" opacity="1"/><line transform="translate(0,120)" x2="800" y2="0" stroke="#ddd" stroke-width="1" opacity="1"/><line transform="translate(0,90)" x2="800" y2="0" stroke="#ddd" stroke-width="1" opacity="1"/><line transform="translate(0,60)" x2="800" y2="0" stroke="#ddd" stroke-width="1" opacity="1"/><line transform="translate(0,30)" x2="800" y2="0" stroke="#ddd" stroke-width="1" opacity="1"/><line transform="translate(0,0)" x2="800" y2="0" stroke="#ddd" stroke-width="1" opacity="1"/></g></g><path class="foreground" aria-hidden="true" d="" pointer-events="none" display="none"/></g></g><g class="mark-group role-axis" role="graphics-symbol" aria-roledescription="axis" aria-label="X-axis titled 'CodonSite' for a linear scale with values from 0 to 70"><g transform="translate(0.5,600.5)"><path class="background" aria-hidden="true" d="M0,0h0v0h0Z" pointer-events="none"/><g><g class="mark-rule role-axis-tick" pointer-events="none"><line transform="translate(0,0)" x2="0" y2="5" stroke="#888" stroke-width="1" opacity="1"/><line transform="translate(57,0)" x2="0" y2="5" stroke="#888" stroke-width="1" opacity="1"/><line transform="translate(114,0)" x2="0" y2="5" stroke="#888" stroke-width="1" opacity="1"/><line transform="translate(171,0)" x2="0" y2="5" stroke="#888" stroke-width="1" opacity="1"/><line transform="translate(229,0)" x2="0" y2="5" stroke="#888" stroke-width="1" opacity="1"/><line transform="translate(286,0)" x2="0" y2="5" stroke="#888" stroke-width="1" opacity="1"/><line transform="translate(343,0)" x2="0" y2="5" stroke="#888" stroke-width="1" opacity="1"/><line transform="translate(400,0)" x2="0" y2="5" stroke="#888" stroke-width="1" opacity="1"/><line transform="translate(457,0)" x2="0" y2="5" stroke="#888" stroke-width="1" opacity="1"/><line transform="translate(514,0)" x2="0" y2="5" stroke="#888" stroke-width="1" opacity="1"/><line transform="translate(571,0)" x2="0" y2="5" stroke="#888" stroke-width="1" opacity="1"/><line transform="translate(629,0)" x2="0" y2="5" stroke="#888" stroke-width="1" opacity="1"/><line transform="translate(686,0)" x2="0" y2="5" stroke="#888" stroke-width="1" opacity="1"/><line transform="translate(743,0)" x2="0" y2="5" stroke="#888" stroke-width="1" opacity="1"/><line transform="translate(800,0)" x2="0" y2="5" stroke="#888" stroke-width="1" opacity="1"/></g><g class="mark-text role-axis-label" pointer-events="none"><text text-anchor="start" transform="translate(0,15)" font-family="sans-serif" font-size="10px" fill="#000" opacity="1">0</text><text text-anchor="middle" transform="translate(57.14285714285714,15)" font-family="sans-serif" font-size="10px" fill="#000" opacity="1">5</text><text text-anchor="middle" transform="translate(114.28571428571428,15)" font-family="sans-serif" font-size="10px" fill="#000" opacity="1">10</text><text text-anchor="middle" transform="translate(171.42857142857142,15)" font-family="sans-serif" font-size="10px" fill="#000" opacity="1">15</text><text text-anchor="middle" transform="translate(228.57142857142856,15)" font-family="sans-serif" font-size="10px" fill="#000" opacity="1">20</text><text text-anchor="middle" transform="translate(285.7142857142857,15)" font-family="sans-serif" font-size="10px" fill="#000" opacity="1">25</text><text text-anchor="middle" transform="translate(342.85714285714283,15)" font-family="sans-serif" font-size="10px" fill="#000" opacity="1">30</text><text text-anchor="middle" transform="translate(400,15)" font-family="sans-serif" font-size="10px" fill="#000" opacity="1">35</text><text text-anchor="middle" transform="translate(457.1428571428571,15)" font-family="sans-serif" font-size="10px" fill="#000" opacity="1">40</text><text text-anchor="middle" transform="translate(514.2857142857143,15)" font-family="sans-serif" font-size="10px" fill="#000" opacity="1">45</text><text text-anchor="middle" transform="translate(571.4285714285714,15)" font-family="sans-serif" font-size="10px" fill="#000" opacity="1">50</text><text text-anchor="middle" transform="translate(628.5714285714286,15)" font-family="sans-serif" font-size="10px" fill="#000" opacity="1">55</text><text text-anchor="middle" transform="translate(685.7142857142857,15)" font-family="sans-serif" font-size="10px" fill="#000" opacity="1">60</text><text text-anchor="middle" transform="translate(742.8571428571429,15)" font-family="sans-serif" font-size="10px" fill="#000" opacity="1">65</text><text text-anchor="end" transform="translate(800,15)" font-family="sans-serif" font-size="10px" fill="#000" opacity="1">70</text></g><g class="mark-rule role-axis-domain" pointer-events="none"><line transform="translate(0,0)" x2="800" y2="0" stroke="#888" stroke-width="1" opacity="1"/></g><g class="mark-text role-axis-title" pointer-events="none"><text text-anchor="middle" transform="translate(400,30)" font-family="sans-serif" font-size="11px" font-weight="bold" fill="#000" opacity="1">CodonSite</text></g></g><path class="foreground" aria-hidden="true" d="" pointer-events="none" display="none"/></g></g><g class="mark-group role-axis" role="graphics-symbol" aria-roledescription="axis" aria-label="Y-axis titled 'adjusted_p-value' for a linear scale with values from 0.0 to 1.0"><g transform="translate(0.5,0.5)"><path class="background" aria-hidden="true" d="M0,0h0v0h0Z" pointer-events="none"/><g><g class="mark-rule role-axis-tick" pointer-events="none"><line transform="translate(0,600)" x2="-5" y2="0" stroke="#888" stroke-width="1" opacity="1"/><line transform="translate(0,570)" x2="-5" y2="0" stroke="#888" stroke-width="1" opacity="1"/><line transform="translate(0,540)" x2="-5" y2="0" stroke="#888" stroke-width="1" opacity="1"/><line transform="translate(0,510)" x2="-5" y2="0" stroke="#888" stroke-width="1" opacity="1"/><line transform="translate(0,480)" x2="-5" y2="0" stroke="#888" stroke-width="1" opacity="1"/><line transform="translate(0,450)" x2="-5" y2="0" stroke="#888" stroke-width="1" opacity="1"/><line transform="translate(0,420)" x2="-5" y2="0" stroke="#888" stroke-width="1" opacity="1"/><line transform="translate(0,390)" x2="-5" y2="0" stroke="#888" stroke-width="1" opacity="1"/><line transform="translate(0,360)" x2="-5" y2="0" stroke="#888" stroke-width="1" opacity="1"/><line transform="translate(0,330)" x2="-5" y2="0" stroke="#888" stroke-width="1" opacity="1"/><line transform="translate(0,300)" x2="-5" y2="0" stroke="#888" stroke-width="1" opacity="1"/><line transform="translate(0,270)" x2="-5" y2="0" stroke="#888" stroke-width="1" opacity="1"/><line transform="translate(0,240)" x2="-5" y2="0" stroke="#888" stroke-width="1" opacity="1"/><line transform="translate(0,210)" x2="-5" y2="0" stroke="#888" stroke-width="1" opacity="1"/><line transform="translate(0,180)" x2="-5" y2="0" stroke="#888" stroke-width="1" opacity="1"/><line transform="translate(0,150)" x2="-5" y2="0" stroke="#888" stroke-width="1" opacity="1"/><line transform="translate(0,120)" x2="-5" y2="0" stroke="#888" stroke-width="1" opacity="1"/><line transform="translate(0,90)" x2="-5" y2="0" stroke="#888" stroke-width="1" opacity="1"/><line transform="translate(0,60)" x2="-5" y2="0" stroke="#888" stroke-width="1" opacity="1"/><line transform="translate(0,30)" x2="-5" y2="0" stroke="#888" stroke-width="1" opacity="1"/><line transform="translate(0,0)" x2="-5" y2="0" stroke="#888" stroke-width="1" opacity="1"/></g><g class="mark-text role-axis-label" pointer-events="none"><text text-anchor="end" transform="translate(-7,603)" font-family="sans-serif" font-size="10px" fill="#000" opacity="1">0.00</text><text text-anchor="end" transform="translate(-7,573)" font-family="sans-serif" font-size="10px" fill="#000" opacity="1">0.05</text><text text-anchor="end" transform="translate(-7,543)" font-family="sans-serif" font-size="10px" fill="#000" opacity="1">0.10</text><text text-anchor="end" transform="translate(-7,513)" font-family="sans-serif" font-size="10px" fill="#000" opacity="1">0.15</text><text text-anchor="end" transform="translate(-7,483)" font-family="sans-serif" font-size="10px" fill="#000" opacity="1">0.20</text><text text-anchor="end" transform="translate(-7,453)" font-family="sans-serif" font-size="10px" fill="#000" opacity="1">0.25</text><text text-anchor="end" transform="translate(-7,423)" font-family="sans-serif" font-size="10px" fill="#000" opacity="1">0.30</text><text text-anchor="end" transform="translate(-7,393)" font-family="sans-serif" font-size="10px" fill="#000" opacity="1">0.35</text><text text-anchor="end" transform="translate(-7,363)" font-family="sans-serif" font-size="10px" fill="#000" opacity="1">0.40</text><text text-anchor="end" transform="translate(-7,333)" font-family="sans-serif" font-size="10px" fill="#000" opacity="1">0.45</text><text text-anchor="end" transform="translate(-7,303)" font-family="sans-serif" font-size="10px" fill="#000" opacity="1">0.50</text><text text-anchor="end" transform="translate(-7,273)" font-family="sans-serif" font-size="10px" fill="#000" opacity="1">0.55</text><text text-anchor="end" transform="translate(-7,243)" font-family="sans-serif" font-size="10px" fill="#000" opacity="1">0.60</text><text text-anchor="end" transform="translate(-7,213)" font-family="sans-serif" font-size="10px" fill="#000" opacity="1">0.65</text><text text-anchor="end" transform="translate(-7,183.00000000000003)" font-family="sans-serif" font-size="10px" fill="#000" opacity="1">0.70</text><text text-anchor="end" transform="translate(-7,153)" font-family="sans-serif" font-size="10px" fill="#000" opacity="1">0.75</text><text text-anchor="end" transform="translate(-7,122.99999999999997)" font-family="sans-serif" font-size="10px" fill="#000" opacity="1">0.80</text><text text-anchor="end" transform="translate(-7,93.00000000000001)" font-family="sans-serif" font-size="10px" fill="#000" opacity="1">0.85</text><text text-anchor="end" transform="translate(-7,62.999999999999986)" font-family="sans-serif" font-size="10px" fill="#000" opacity="1">0.90</text><text text-anchor="end" transform="translate(-7,33.00000000000003)" font-family="sans-serif" font-size="10px" fill="#000" opacity="1">0.95</text><text text-anchor="end" transform="translate(-7,3)" font-family="sans-serif" font-size="10px" fill="#000" opacity="1">1.00</text></g><g class="mark-rule role-axis-domain" pointer-events="none"><line transform="translate(0,600)" x2="0" y2="-600" stroke="#888" stroke-width="1" opacity="1"/></g><g class="mark-text role-axis-title" pointer-events="none"><text text-anchor="middle" transform="translate(-30.462890625,300) rotate(-90) translate(0,-2)" font-family="sans-serif" font-size="11px" font-weight="bold" fill="#000" opacity="1">adjusted_p-value</text></g></g><path class="foreground" aria-hidden="true" d="" pointer-events="none" display="none"/></g></g><g class="mark-symbol role-mark marks" role="graphics-object" aria-roledescription="symbol mark container"><path aria-label="CodonSite: 1; adjusted_p-value: 1" role="graphics-symbol" aria-roledescription="point" transform="translate(11.428571428571429,0)" d="M2.739,0A2.739,2.739,0,1,1,-2.739,0A2.739,2.739,0,1,1,2.739,0" stroke="rgb(246, 87, 63)" stroke-width="2" opacity="0.7"/><path aria-label="CodonSite: 2; adjusted_p-value: 1" role="graphics-symbol" aria-roledescription="point" transform="translate(22.857142857142858,0)" d="M2.739,0A2.739,2.739,0,1,1,-2.739,0A2.739,2.739,0,1,1,2.739,0" stroke="rgb(246, 87, 63)" stroke-width="2" opacity="0.7"/><path aria-label="CodonSite: 3; adjusted_p-value: 1" role="graphics-symbol" aria-roledescription="point" transform="translate(34.285714285714285,0)" d="M2.739,0A2.739,2.739,0,1,1,-2.739,0A2.739,2.739,0,1,1,2.739,0" stroke="rgb(246, 87, 63)" stroke-width="2" opacity="0.7"/><path aria-label="CodonSite: 4; adjusted_p-value: 1" role="graphics-symbol" aria-roledescription="point" transform="translate(45.714285714285715,0)" d="M2.739,0A2.739,2.739,0,1,1,-2.739,0A2.739,2.739,0,1,1,2.739,0" stroke="rgb(246, 87, 63)" stroke-width="2" opacity="0.7"/><path aria-label="CodonSite: 5; adjusted_p-value: 1" role="graphics-symbol" aria-roledescription="point" transform="translate(57.14285714285714,0)" d="M2.739,0A2.739,2.739,0,1,1,-2.739,0A2.739,2.739,0,1,1,2.739,0" stroke="rgb(246, 87, 63)" stroke-width="2" opacity="0.7"/><path aria-label="CodonSite: 6; adjusted_p-value: 1" role="graphics-symbol" aria-roledescription="point" transform="translate(68.57142857142857,0)" d="M2.739,0A2.739,2.739,0,1,1,-2.739,0A2.739,2.739,0,1,1,2.739,0" stroke="rgb(246, 87, 63)" stroke-width="2" opacity="0.7"/><path aria-label="CodonSite: 7; adjusted_p-value: 1" role="graphics-symbol" aria-roledescription="point" transform="translate(80,0)" d="M2.739,0A2.739,2.739,0,1,1,-2.739,0A2.739,2.739,0,1,1,2.739,0" stroke="rgb(246, 87, 63)" stroke-width="2" opacity="0.7"/><path aria-label="CodonSite: 8; adjusted_p-value: 1" role="graphics-symbol" aria-roledescription="point" transform="translate(91.42857142857143,0)" d="M2.739,0A2.739,2.739,0,1,1,-2.739,0A2.739,2.739,0,1,1,2.739,0" stroke="rgb(246, 87, 63)" stroke-width="2" opacity="0.7"/><path aria-label="CodonSite: 9; adjusted_p-value: 1" role="graphics-symbol" aria-roledescription="point" transform="translate(102.85714285714285,0)" d="M2.739,0A2.739,2.739,0,1,1,-2.739,0A2.739,2.739,0,1,1,2.739,0" stroke="rgb(246, 87, 63)" stroke-width="2" opacity="0.7"/><path aria-label="CodonSite: 10; adjusted_p-value: 1" role="graphics-symbol" aria-roledescription="point" transform="translate(114.28571428571428,0)" d="M2.739,0A2.739,2.739,0,1,1,-2.739,0A2.739,2.739,0,1,1,2.739,0" stroke="rgb(246, 87, 63)" stroke-width="2" opacity="0.7"/><path aria-label="CodonSite: 11; adjusted_p-value: 1" role="graphics-symbol" aria-roledescription="point" transform="translate(125.71428571428571,0)" d="M2.739,0A2.739,2.739,0,1,1,-2.739,0A2.739,2.739,0,1,1,2.739,0" stroke="rgb(246, 87, 63)" stroke-width="2" opacity="0.7"/><path aria-label="CodonSite: 12; adjusted_p-value: 1" role="graphics-symbol" aria-roledescription="point" transform="translate(137.14285714285714,0)" d="M2.739,0A2.739,2.739,0,1,1,-2.739,0A2.739,2.739,0,1,1,2.739,0" stroke="rgb(246, 87, 63)" stroke-width="2" opacity="0.7"/><path aria-label="CodonSite: 13; adjusted_p-value: 1" role="graphics-symbol" aria-roledescription="point" transform="translate(148.57142857142858,0)" d="M2.739,0A2.739,2.739,0,1,1,-2.739,0A2.739,2.739,0,1,1,2.739,0" stroke="rgb(246, 87, 63)" stroke-width="2" opacity="0.7"/><path aria-label="CodonSite: 14; adjusted_p-value: 1" role="graphics-symbol" aria-roledescription="point" transform="translate(160,0)" d="M2.739,0A2.739,2.739,0,1,1,-2.739,0A2.739,2.739,0,1,1,2.739,0" stroke="rgb(246, 87, 63)" stroke-width="2" opacity="0.7"/><path aria-label="CodonSite: 15; adjusted_p-value: 1" role="graphics-symbol" aria-roledescription="point" transform="translate(171.42857142857142,0)" d="M2.739,0A2.739,2.739,0,1,1,-2.739,0A2.739,2.739,0,1,1,2.739,0" stroke="rgb(246, 87, 63)" stroke-width="2" opacity="0.7"/><path aria-label="CodonSite: 16; adjusted_p-value: 1" role="graphics-symbol" aria-roledescription="point" transform="translate(182.85714285714286,0)" d="M2.739,0A2.739,2.739,0,1,1,-2.739,0A2.739,2.739,0,1,1,2.739,0" stroke="rgb(246, 87, 63)" stroke-width="2" opacity="0.7"/><path aria-label="CodonSite: 17; adjusted_p-value: 1" role="graphics-symbol" aria-roledescription="point" transform="translate(194.28571428571428,0)" d="M2.739,0A2.739,2.739,0,1,1,-2.739,0A2.739,2.739,0,1,1,2.739,0" stroke="rgb(246, 87, 63)" stroke-width="2" opacity="0.7"/><path aria-label="CodonSite: 18; adjusted_p-value: 1" role="graphics-symbol" aria-roledescription="point" transform="translate(205.7142857142857,0)" d="M2.739,0A2.739,2.739,0,1,1,-2.739,0A2.739,2.739,0,1,1,2.739,0" stroke="rgb(246, 87, 63)" stroke-width="2" opacity="0.7"/><path aria-label="CodonSite: 19; adjusted_p-value: 1" role="graphics-symbol" aria-roledescription="point" transform="translate(217.14285714285714,0)" d="M2.739,0A2.739,2.739,0,1,1,-2.739,0A2.739,2.739,0,1,1,2.739,0" stroke="rgb(246, 87, 63)" stroke-width="2" opacity="0.7"/><path aria-label="CodonSite: 20; adjusted_p-value: 1" role="graphics-symbol" aria-roledescription="point" transform="translate(228.57142857142856,0)" d="M2.739,0A2.739,2.739,0,1,1,-2.739,0A2.739,2.739,0,1,1,2.739,0" stroke="rgb(246, 87, 63)" stroke-width="2" opacity="0.7"/><path aria-label="CodonSite: 21; adjusted_p-value: 1" role="graphics-symbol" aria-roledescription="point" transform="translate(240,0)" d="M2.739,0A2.739,2.739,0,1,1,-2.739,0A2.739,2.739,0,1,1,2.739,0" stroke="rgb(246, 87, 63)" stroke-width="2" opacity="0.7"/><path aria-label="CodonSite: 22; adjusted_p-value: 1" role="graphics-symbol" aria-roledescription="point" transform="translate(251.42857142857142,0)" d="M2.739,0A2.739,2.739,0,1,1,-2.739,0A2.739,2.739,0,1,1,2.739,0" stroke="rgb(246, 87, 63)" stroke-width="2" opacity="0.7"/><path aria-label="CodonSite: 23; adjusted_p-value: 1" role="graphics-symbol" aria-roledescription="point" transform="translate(262.85714285714283,0)" d="M2.739,0A2.739,2.739,0,1,1,-2.739,0A2.739,2.739,0,1,1,2.739,0" stroke="rgb(246, 87, 63)" stroke-width="2" opacity="0.7"/><path aria-label="CodonSite: 24; adjusted_p-value: 1" role="graphics-symbol" aria-roledescription="point" transform="translate(274.2857142857143,0)" d="M2.739,0A2.739,2.739,0,1,1,-2.739,0A2.739,2.739,0,1,1,2.739,0" stroke="rgb(246, 87, 63)" stroke-width="2" opacity="0.7"/><path aria-label="CodonSite: 25; adjusted_p-value: 1" role="graphics-symbol" aria-roledescription="point" transform="translate(285.7142857142857,0)" d="M2.739,0A2.739,2.739,0,1,1,-2.739,0A2.739,2.739,0,1,1,2.739,0" stroke="rgb(246, 87, 63)" stroke-width="2" opacity="0.7"/><path aria-label="CodonSite: 26; adjusted_p-value: 1" role="graphics-symbol" aria-roledescription="point" transform="translate(297.14285714285717,0)" d="M2.739,0A2.739,2.739,0,1,1,-2.739,0A2.739,2.739,0,1,1,2.739,0" stroke="rgb(246, 87, 63)" stroke-width="2" opacity="0.7"/><path aria-label="CodonSite: 27; adjusted_p-value: 1" role="graphics-symbol" aria-roledescription="point" transform="translate(308.5714285714286,0)" d="M2.739,0A2.739,2.739,0,1,1,-2.739,0A2.739,2.739,0,1,1,2.739,0" stroke="rgb(246, 87, 63)" stroke-width="2" opacity="0.7"/><path aria-label="CodonSite: 28; adjusted_p-value: 1" role="graphics-symbol" aria-roledescription="point" transform="translate(320,0)" d="M2.739,0A2.739,2.739,0,1,1,-2.739,0A2.739,2.739,0,1,1,2.739,0" stroke="rgb(246, 87, 63)" stroke-width="2" opacity="0.7"/><path aria-label="CodonSite: 29; adjusted_p-value: 1" role="graphics-symbol" aria-roledescription="point" transform="translate(331.42857142857144,0)" d="M2.739,0A2.739,2.739,0,1,1,-2.739,0A2.739,2.739,0,1,1,2.739,0" stroke="rgb(246, 87, 63)" stroke-width="2" opacity="0.7"/><path aria-label="CodonSite: 30; adjusted_p-value: 1" role="graphics-symbol" aria-roledescription="point" transform="translate(342.85714285714283,0)" d="M2.739,0A2.739,2.739,0,1,1,-2.739,0A2.739,2.739,0,1,1,2.739,0" stroke="rgb(246, 87, 63)" stroke-width="2" opacity="0.7"/><path aria-label="CodonSite: 31; adjusted_p-value: 1" role="graphics-symbol" aria-roledescription="point" transform="translate(354.2857142857143,0)" d="M2.739,0A2.739,2.739,0,1,1,-2.739,0A2.739,2.739,0,1,1,2.739,0" stroke="rgb(246, 87, 63)" stroke-width="2" opacity="0.7"/><path aria-label="CodonSite: 32; adjusted_p-value: 1" role="graphics-symbol" aria-roledescription="point" transform="translate(365.7142857142857,0)" d="M2.739,0A2.739,2.739,0,1,1,-2.739,0A2.739,2.739,0,1,1,2.739,0" stroke="rgb(246, 87, 63)" stroke-width="2" opacity="0.7"/><path aria-label="CodonSite: 33; adjusted_p-value: 1" role="graphics-symbol" aria-roledescription="point" transform="translate(377.1428571428571,0)" d="M2.739,0A2.739,2.739,0,1,1,-2.739,0A2.739,2.739,0,1,1,2.739,0" stroke="rgb(246, 87, 63)" stroke-width="2" opacity="0.7"/><path aria-label="CodonSite: 34; adjusted_p-value: 1" role="graphics-symbol" aria-roledescription="point" transform="translate(388.57142857142856,0)" d="M2.739,0A2.739,2.739,0,1,1,-2.739,0A2.739,2.739,0,1,1,2.739,0" stroke="rgb(246, 87, 63)" stroke-width="2" opacity="0.7"/><path aria-label="CodonSite: 35; adjusted_p-value: 1" role="graphics-symbol" aria-roledescription="point" transform="translate(400,0)" d="M2.739,0A2.739,2.739,0,1,1,-2.739,0A2.739,2.739,0,1,1,2.739,0" stroke="rgb(246, 87, 63)" stroke-width="2" opacity="0.7"/><path aria-label="CodonSite: 36; adjusted_p-value: 1" role="graphics-symbol" aria-roledescription="point" transform="translate(411.4285714285714,0)" d="M2.739,0A2.739,2.739,0,1,1,-2.739,0A2.739,2.739,0,1,1,2.739,0" stroke="rgb(246, 87, 63)" stroke-width="2" opacity="0.7"/><path aria-label="CodonSite: 37; adjusted_p-value: 1" role="graphics-symbol" aria-roledescription="point" transform="translate(422.8571428571429,0)" d="M2.739,0A2.739,2.739,0,1,1,-2.739,0A2.739,2.739,0,1,1,2.739,0" stroke="rgb(246, 87, 63)" stroke-width="2" opacity="0.7"/><path aria-label="CodonSite: 38; adjusted_p-value: 1" role="graphics-symbol" aria-roledescription="point" transform="translate(434.2857142857143,0)" d="M2.739,0A2.739,2.739,0,1,1,-2.739,0A2.739,2.739,0,1,1,2.739,0" stroke="rgb(246, 87, 63)" stroke-width="2" opacity="0.7"/><path aria-label="CodonSite: 39; adjusted_p-value: 1" role="graphics-symbol" aria-roledescription="point" transform="translate(445.7142857142857,0)" d="M2.739,0A2.739,2.739,0,1,1,-2.739,0A2.739,2.739,0,1,1,2.739,0" stroke="rgb(246, 87, 63)" stroke-width="2" opacity="0.7"/><path aria-label="CodonSite: 40; adjusted_p-value: 1" role="graphics-symbol" aria-roledescription="point" transform="translate(457.1428571428571,0)" d="M2.739,0A2.739,2.739,0,1,1,-2.739,0A2.739,2.739,0,1,1,2.739,0" stroke="rgb(246, 87, 63)" stroke-width="2" opacity="0.7"/><path aria-label="CodonSite: 41; adjusted_p-value: 1" role="graphics-symbol" aria-roledescription="point" transform="translate(468.5714285714286,0)" d="M2.739,0A2.739,2.739,0,1,1,-2.739,0A2.739,2.739,0,1,1,2.739,0" stroke="rgb(246, 87, 63)" stroke-width="2" opacity="0.7"/><path aria-label="CodonSite: 42; adjusted_p-value: 1" role="graphics-symbol" aria-roledescription="point" transform="translate(480,0)" d="M2.739,0A2.739,2.739,0,1,1,-2.739,0A2.739,2.739,0,1,1,2.739,0" stroke="rgb(246, 87, 63)" stroke-width="2" opacity="0.7"/><path aria-label="CodonSite: 43; adjusted_p-value: 1" role="graphics-symbol" aria-roledescription="point" transform="translate(491.42857142857144,0)" d="M2.739,0A2.739,2.739,0,1,1,-2.739,0A2.739,2.739,0,1,1,2.739,0" stroke="rgb(246, 87, 63)" stroke-width="2" opacity="0.7"/><path aria-label="CodonSite: 44; adjusted_p-value: 1" role="graphics-symbol" aria-roledescription="point" transform="translate(502.85714285714283,0)" d="M2.739,0A2.739,2.739,0,1,1,-2.739,0A2.739,2.739,0,1,1,2.739,0" stroke="rgb(246, 87, 63)" stroke-width="2" opacity="0.7"/><path aria-label="CodonSite: 45; adjusted_p-value: 1" role="graphics-symbol" aria-roledescription="point" transform="translate(514.2857142857143,0)" d="M2.739,0A2.739,2.739,0,1,1,-2.739,0A2.739,2.739,0,1,1,2.739,0" stroke="rgb(246, 87, 63)" stroke-width="2" opacity="0.7"/><path aria-label="CodonSite: 46; adjusted_p-value: 1" role="graphics-symbol" aria-roledescription="point" transform="translate(525.7142857142857,0)" d="M2.739,0A2.739,2.739,0,1,1,-2.739,0A2.739,2.739,0,1,1,2.739,0" stroke="rgb(246, 87, 63)" stroke-width="2" opacity="0.7"/><path aria-label="CodonSite: 47; adjusted_p-value: 1" role="graphics-symbol" aria-roledescription="point" transform="translate(537.1428571428571,0)" d="M2.739,0A2.739,2.739,0,1,1,-2.739,0A2.739,2.739,0,1,1,2.739,0" stroke="rgb(246, 87, 63)" stroke-width="2" opacity="0.7"/><path aria-label="CodonSite: 48; adjusted_p-value: 1" role="graphics-symbol" aria-roledescription="point" transform="translate(548.5714285714286,0)" d="M2.739,0A2.739,2.739,0,1,1,-2.739,0A2.739,2.739,0,1,1,2.739,0" stroke="rgb(246, 87, 63)" stroke-width="2" opacity="0.7"/><path aria-label="CodonSite: 49; adjusted_p-value: 1" role="graphics-symbol" aria-roledescription="point" transform="translate(560,0)" d="M2.739,0A2.739,2.739,0,1,1,-2.739,0A2.739,2.739,0,1,1,2.739,0" stroke="rgb(246, 87, 63)" stroke-width="2" opacity="0.7"/><path aria-label="CodonSite: 50; adjusted_p-value: 1" role="graphics-symbol" aria-roledescription="point" transform="translate(571.4285714285714,0)" d="M2.739,0A2.739,2.739,0,1,1,-2.739,0A2.739,2.739,0,1,1,2.739,0" stroke="rgb(246, 87, 63)" stroke-width="2" opacity="0.7"/><path aria-label="CodonSite: 51; adjusted_p-value: 1" role="graphics-symbol" aria-roledescription="point" transform="translate(582.8571428571428,0)" d="M2.739,0A2.739,2.739,0,1,1,-2.739,0A2.739,2.739,0,1,1,2.739,0" stroke="rgb(246, 87, 63)" stroke-width="2" opacity="0.7"/><path aria-label="CodonSite: 52; adjusted_p-value: 1" role="graphics-symbol" aria-roledescription="point" transform="translate(594.2857142857143,0)" d="M2.739,0A2.739,2.739,0,1,1,-2.739,0A2.739,2.739,0,1,1,2.739,0" stroke="rgb(246, 87, 63)" stroke-width="2" opacity="0.7"/><path aria-label="CodonSite: 53; adjusted_p-value: 1" role="graphics-symbol" aria-roledescription="point" transform="translate(605.7142857142857,0)" d="M2.739,0A2.739,2.739,0,1,1,-2.739,0A2.739,2.739,0,1,1,2.739,0" stroke="rgb(246, 87, 63)" stroke-width="2" opacity="0.7"/><path aria-label="CodonSite: 54; adjusted_p-value: 1" role="graphics-symbol" aria-roledescription="point" transform="translate(617.1428571428572,0)" d="M2.739,0A2.739,2.739,0,1,1,-2.739,0A2.739,2.739,0,1,1,2.739,0" stroke="rgb(246, 87, 63)" stroke-width="2" opacity="0.7"/><path aria-label="CodonSite: 55; adjusted_p-value: 1" role="graphics-symbol" aria-roledescription="point" transform="translate(628.5714285714286,0)" d="M2.739,0A2.739,2.739,0,1,1,-2.739,0A2.739,2.739,0,1,1,2.739,0" stroke="rgb(246, 87, 63)" stroke-width="2" opacity="0.7"/><path aria-label="CodonSite: 56; adjusted_p-value: 1" role="graphics-symbol" aria-roledescription="point" transform="translate(640,0)" d="M2.739,0A2.739,2.739,0,1,1,-2.739,0A2.739,2.739,0,1,1,2.739,0" stroke="rgb(246, 87, 63)" stroke-width="2" opacity="0.7"/><path aria-label="CodonSite: 57; adjusted_p-value: 1" role="graphics-symbol" aria-roledescription="point" transform="translate(651.4285714285714,0)" d="M2.739,0A2.739,2.739,0,1,1,-2.739,0A2.739,2.739,0,1,1,2.739,0" stroke="rgb(246, 87, 63)" stroke-width="2" opacity="0.7"/><path aria-label="CodonSite: 58; adjusted_p-value: 1" role="graphics-symbol" aria-roledescription="point" transform="translate(662.8571428571429,0)" d="M2.739,0A2.739,2.739,0,1,1,-2.739,0A2.739,2.739,0,1,1,2.739,0" stroke="rgb(246, 87, 63)" stroke-width="2" opacity="0.7"/><path aria-label="CodonSite: 59; adjusted_p-value: 1" role="graphics-symbol" aria-roledescription="point" transform="translate(674.2857142857143,0)" d="M2.739,0A2.739,2.739,0,1,1,-2.739,0A2.739,2.739,0,1,1,2.739,0" stroke="rgb(246, 87, 63)" stroke-width="2" opacity="0.7"/><path aria-label="CodonSite: 60; adjusted_p-value: 1" role="graphics-symbol" aria-roledescription="point" transform="translate(685.7142857142857,0)" d="M2.739,0A2.739,2.739,0,1,1,-2.739,0A2.739,2.739,0,1,1,2.739,0" stroke="rgb(246, 87, 63)" stroke-width="2" opacity="0.7"/><path aria-label="CodonSite: 61; adjusted_p-value: 1" role="graphics-symbol" aria-roledescription="point" transform="translate(697.1428571428571,0)" d="M2.739,0A2.739,2.739,0,1,1,-2.739,0A2.739,2.739,0,1,1,2.739,0" stroke="rgb(246, 87, 63)" stroke-width="2" opacity="0.7"/><path aria-label="CodonSite: 62; adjusted_p-value: 1" role="graphics-symbol" aria-roledescription="point" transform="translate(708.5714285714286,0)" d="M2.739,0A2.739,2.739,0,1,1,-2.739,0A2.739,2.739,0,1,1,2.739,0" stroke="rgb(246, 87, 63)" stroke-width="2" opacity="0.7"/><path aria-label="CodonSite: 63; adjusted_p-value: 1" role="graphics-symbol" aria-roledescription="point" transform="translate(720,0)" d="M2.739,0A2.739,2.739,0,1,1,-2.739,0A2.739,2.739,0,1,1,2.739,0" stroke="rgb(246, 87, 63)" stroke-width="2" opacity="0.7"/><path aria-label="CodonSite: 64; adjusted_p-value: 1" role="graphics-symbol" aria-roledescription="point" transform="translate(731.4285714285714,0)" d="M2.739,0A2.739,2.739,0,1,1,-2.739,0A2.739,2.739,0,1,1,2.739,0" stroke="rgb(246, 87, 63)" stroke-width="2" opacity="0.7"/><path aria-label="CodonSite: 65; adjusted_p-value: 1" role="graphics-symbol" aria-roledescription="point" transform="translate(742.8571428571429,0)" d="M2.739,0A2.739,2.739,0,1,1,-2.739,0A2.739,2.739,0,1,1,2.739,0" stroke="rgb(246, 87, 63)" stroke-width="2" opacity="0.7"/><path aria-label="CodonSite: 66; adjusted_p-value: 1" role="graphics-symbol" aria-roledescription="point" transform="translate(754.2857142857142,0)" d="M2.739,0A2.739,2.739,0,1,1,-2.739,0A2.739,2.739,0,1,1,2.739,0" stroke="rgb(246, 87, 63)" stroke-width="2" opacity="0.7"/></g><g class="mark-group role-legend" role="graphics-symbol" aria-roledescription="legend" aria-label="Gradient legend titled 'adjusted_p-value' for stroke color with values from 1 to 1"><g transform="translate(818,0)"><path class="background" aria-hidden="true" d="M0,0h90v216h-90Z" pointer-events="none"/><g><g class="mark-group role-legend-entry"><g transform="translate(0,16)"><path class="background" aria-hidden="true" d="M0,0h0v0h0Z" pointer-events="none"/><g><g class="mark-rect role-legend-gradient" pointer-events="none"><path d="M0,0h16v200h-16Z" fill="url(#gradient_0)" stroke="#ddd" stroke-width="0" opacity="0.7"/></g><g class="mark-text role-legend-label" pointer-events="none"><text text-anchor="start" transform="translate(18,103)" font-family="sans-serif" font-size="10px" fill="#000" opacity="1">1</text></g></g><path class="foreground" aria-hidden="true" d="" pointer-events="none" display="none"/></g></g><g class="mark-text role-legend-title" pointer-events="none"><text text-anchor="start" transform="translate(0,9)" font-family="sans-serif" font-size="11px" font-weight="bold" fill="#000" opacity="1">adjusted_p-value</text></g></g><path class="foreground" aria-hidden="true" d="" pointer-events="none" display="none"/></g></g></g><path class="foreground" aria-hidden="true" d="" display="none"/></g></g></g><defs><linearGradient id="gradient_0" x1="0" x2="0" y1="1" y2="0"><stop offset="0" stop-color="rgb(151, 11, 19)"/><stop offset="0.05" stop-color="rgb(165, 15, 22)"/><stop offset="0.1" stop-color="rgb(178, 18, 24)"/><stop offset="0.15" stop-color="rgb(189, 23, 27)"/><stop offset="0.2" stop-color="rgb(200, 27, 29)"/><stop offset="0.25" stop-color="rgb(210, 35, 33)"/><stop offset="0.3" stop-color="rgb(220, 42, 37)"/><stop offset="0.35" stop-color="rgb(228, 53, 42)"/><stop offset="0.4" stop-color="rgb(236, 63, 47)"/><stop offset="0.45" stop-color="rgb(241, 75, 55)"/><stop offset="0.5" stop-color="rgb(246, 87, 63)"/><stop offset="0.55" stop-color="rgb(248, 100, 72)"/><stop offset="0.6" stop-color="rgb(250, 112, 81)"/><stop offset="0.65" stop-color="rgb(251, 124, 92)"/><stop offset="0.7" stop-color="rgb(252, 135, 103)"/><stop offset="0.75" stop-color="rgb(252, 147, 116)"/><stop offset="0.8" stop-color="rgb(252, 158, 128)"/><stop offset="0.85" stop-color="rgb(252, 169, 141)"/><stop offset="0.9" stop-color="rgb(252, 180, 154)"/><stop offset="0.95" stop-color="rgb(253, 191, 167)"/><stop offset="1" stop-color="rgb(253, 201, 180)"/></linearGradient></defs></svg>