<svg xmlns="http://www.w3.org/2000/svg" xmlns:xlink="http://www.w3.org/1999/xlink" version="1.1" class="marks" width="960" height="647" viewBox="0 0 960 647"><rect width="960" height="647" fill="white"/><g fill="none" stroke-miterlimit="10" transform="translate(47,10)"><g class="mark-group role-frame root" role="graphics-object" aria-roledescription="group mark container"><g transform="translate(0,0)"><path class="background" aria-hidden="true" d="M0.5,0.5h800v600h-800Z" stroke="#ddd"/><g><g class="mark-group role-axis" aria-hidden="true"><g transform="translate(0.5,600.5)"><path class="background" aria-hidden="true" d="M0,0h0v0h0Z" pointer-events="none"/><g><g class="mark-rule role-axis-grid" pointer-events="none"><line transform="translate(0,-600)" x2="0" y2="600" stroke="#ddd" stroke-width="1" opacity="1"/><line transform="translate(50,-600)" x2="0" y2="600" stroke="#ddd" stroke-width="1" opacity="1"/><line transform="translate(100,-600)" x2="0" y2="600" stroke="#ddd" stroke-width="1" opacity="1"/><line transform="translate(150,-600)" x2="0" y2="600" stroke="#ddd" stroke-width="1" opacity="1"/><line transform="translate(200,-600)" x2="0" y2="600" stroke="#ddd" stroke-width="1" opacity="1"/><line transform="translate(250,-600)" x2="0" y2="600" stroke="#ddd" stroke-width="1" opacity="1"/><line transform="translate(300,-600)" x2="0" y2="600" stroke="#ddd" stroke-width="1" opacity="1"/><line transform="translate(350,-600)" x2="0" y2="600" stroke="#ddd" stroke-width="1" opacity="1"/><line transform="translate(400,-600)" x2="0" y2="600" stroke="#ddd" stroke-width="1" opacity="1"/><line transform="translate(450,-600)" x2="0" y2="600" stroke="#ddd" stroke-width="1" opacity="1"/><line transform="translate(500,-600)" x2="0" y2="600" stroke="#ddd" stroke-width="1" opacity="1"/><line transform="translate(550,-600)" x2="0" y2="600" stroke="#ddd" stroke-width="1" opacity="1"/><line transform="translate(600,-600)" x2="0" y2="600" stroke="#ddd" stroke-width="1" opacity="1"/><line transform="translate(650,-600)" x2="0" y2="600" stroke="#ddd" stroke-width="1" opacity="1"/><line transform="translate(700,-600)" x2="0" y2="600" stroke="#ddd" stroke-width="1" opacity="1"/><line transform="translate(750,-600)" x2="0" y2="600" stroke="#ddd" stroke-width="1" opacity="1"/><line transform="translate(800,-600)" x2="0" y2="600" stroke="#ddd" stroke-width="1" opacity="1"/></g></g><path class="foreground" aria-hidden="true" d="" pointer-events="none" display="none"/></g></g><g class="mark-group role-axis" aria-hidden="true"><g transform="translate(0.5,0.5)"><path class="background" aria-hidden="true" d="M0,0h0v0h0Z" pointer-events="none"/><g><g class="mark-rule role-axis-grid" pointer-events="none"><line transform="translate(0,600)" x2="800" y2="0" stroke="#ddd" stroke-width="1" opacity="1"/><line transform="translate(0,570)" x2="800" y2="0" stroke="#ddd" stroke-width="1" opacity="1"/><line transform="translate(0,540)" x2="800" y2="0" stroke="#ddd" stroke-width="1" opacity="1"/><line transform="translate(0,510)" x2="800" y2="0" stroke="#ddd" stroke-width="1" opacity="1"/><line transform="translate(0,480)" x2="800" y2="0" stroke="#ddd" stroke-width="1" opacity="1"/><line transform="translate(0,450)" x2="800" y2="0" stroke="#ddd" stroke-width="1" opacity="1"/><line transform="translate(0,420)" x2="800" y2="0" stroke="#ddd" stroke-width="1" opacity="1"/><line transform="translate(0,390)" x2="800" y2="0" stroke="#ddd" stroke-width="1" opacity="1"/><line transform="translate(0,360)" x2="800" y2="0" stroke="#ddd" stroke-width="1" opacity="1"/><line transform="translate(0,330)" x2="800" y2="0" stroke="#ddd" stroke-width="1" opacity="1"/><line transform="translate(0,300)" x2="800" y2="0" stroke="#ddd" stroke-width="1" opacity="1"/><line transform="translate(0,270)" x2="800" y2="0" stroke="#ddd" stroke-width="1" opacity="1"/><line transform="translate(0,240)" x2="800" y2="0" stroke="#ddd" stroke-width="1" opacity="1"/><line transform="translate(0,210)" x2="800" y2="0" stroke="#ddd" stroke-width="1" opacity="1"/><line transform="translate(0,180)" x2="800" y2="0" stroke="#ddd" stroke-width="1" opacity="1"/><line transform="translate(0,150)" x2="800" y2="0" stroke="#ddd" stroke-width="1" opacity="1"/><line transform="translate(0,120)" x2="800" y2="0" stroke="#ddd" stroke-width="1" opacity="1"/><line transform="translate(0,90)" x2="800" y2="0" stroke="#ddd" stroke-width="1" opacity="1"/><line transform="translate(0,60)" x2="800" y2="0" stroke="#ddd" stroke-width="1" opacity="1"/><line transform="translate(0,30)" x2="800" y2="0" stroke="#ddd" stroke-width="1" opacity="1"/><line transform="translate(0,0)" x2="800" y2="0" stroke="#ddd" stroke-width="1" opacity="1"/></g></g><path class="foreground" aria-hidden="true" d="" pointer-events="none" display="none"/></g></g><g class="mark-group role-axis" role="graphics-symbol" aria-roledescription="axis" aria-label="X-axis titled 'CodonSite' for a linear scale with values from 0 to 80"><g transform="translate(0.5,600.5)"><path class="background" aria-hidden="true" d="M0,0h0v0h0Z" pointer-events="none"/><g><g class="mark-rule role-axis-tick" pointer-events="none"><line transform="translate(0,0)" x2="0" y2="5" stroke="#888" stroke-width="1" opacity="1"/><line transform="translate(50,0)" x2="0" y2="5" stroke="#888" stroke-width="1" opacity="1"/><line transform="translate(100,0)" x2="0" y2="5" stroke="#888" stroke-width="1" opacity="1"/><line transform="translate(150,0)" x2="0" y2="5" stroke="#888" stroke-width="1" opacity="1"/><line transform="translate(200,0)" x2="0" y2="5" stroke="#888" stroke-width="1" opacity="1"/><line transform="translate(250,0)" x2="0" y2="5" stroke="#888" stroke-width="1" opacity="1"/><line transform="translate(300,0)" x2="0" y2="5" stroke="#888" stroke-width="1" opacity="1"/><line transform="translate(350,0)" x2="0" y2="5" stroke="#888" stroke-width="1" opacity="1"/><line transform="translate(400,0)" x2="0" y2="5" stroke="#888" stroke-width="1" opacity="1"/><line transform="translate(450,0)" x2="0" y2="5" stroke="#888" stroke-width="1" opacity="1"/><line transform="translate(500,0)" x2="0" y2="5" stroke="#888" stroke-width="1" opacity="1"/><line transform="translate(550,0)" x2="0" y2="5" stroke="#888" stroke-width="1" opacity="1"/><line transform="translate(600,0)" x2="0" y2="5" stroke="#888" stroke-width="1" opacity="1"/><line transform="translate(650,0)" x2="0" y2="5" stroke="#888" stroke-width="1" opacity="1"/><line transform="translate(700,0)" x2="0" y2="5" stroke="#888" stroke-width="1" opacity="1"/><line transform="translate(750,0)" x2="0" y2="5" stroke="#888" stroke-width="1" opacity="1"/><line transform="translate(800,0)" x2="0" y2="5" stroke="#888" stroke-width="1" opacity="1"/></g><g class="mark-text role-axis-label" pointer-events="none"><text text-anchor="start" transform="translate(0,15)" font-family="sans-serif" font-size="10px" fill="#000" opacity="1">0</text><text text-anchor="middle" transform="translate(50,15)" font-family="sans-serif" font-size="10px" fill="#000" opacity="1">5</text><text text-anchor="middle" transform="translate(100,15)" font-family="sans-serif" font-size="10px" fill="#000" opacity="1">10</text><text text-anchor="middle" transform="translate(150,15)" font-family="sans-serif" font-size="10px" fill="#000" opacity="1">15</text><text text-anchor="middle" transform="translate(200,15)" font-family="sans-serif" font-size="10px" fill="#000" opacity="1">20</text><text text-anchor="middle" transform="translate(250,15)" font-family="sans-serif" font-size="10px" fill="#000" opacity="1">25</text><text text-anchor="middle" transform="translate(300,15)" font-family="sans-serif" font-size="10px" fill="#000" opacity="1">30</text><text text-anchor="middle" transform="translate(350,15)" font-family="sans-serif" font-size="10px" fill="#000" opacity="1">35</text><text text-anchor="middle" transform="translate(400,15)" font-family="sans-serif" font-size="10px" fill="#000" opacity="1">40</text><text text-anchor="middle" transform="translate(450,15)" font-family="sans-serif" font-size="10px" fill="#000" opacity="1">45</text><text text-anchor="middle" transform="translate(500,15)" font-family="sans-serif" font-size="10px" fill="#000" opacity="1">50</text><text text-anchor="middle" transform="translate(550,15)" font-family="sans-serif" font-size="10px" fill="#000" opacity="1">55</text><text text-anchor="middle" transform="translate(600,15)" font-family="sans-serif" font-size="10px" fill="#000" opacity="1">60</text><text text-anchor="middle" transform="translate(650,15)" font-family="sans-serif" font-size="10px" fill="#000" opacity="1">65</text><text text-anchor="middle" transform="translate(700,15)" font-family="sans-serif" font-size="10px" fill="#000" opacity="1">70</text><text text-anchor="middle" transform="translate(750,15)" font-family="sans-serif" font-size="10px" fill="#000" opacity="1">75</text><text text-anchor="end" transform="translate(800,15)" font-family="sans-serif" font-size="10px" fill="#000" opacity="1">80</text></g><g class="mark-rule role-axis-domain" pointer-events="none"><line transform="translate(0,0)" x2="800" y2="0" stroke="#888" stroke-width="1" opacity="1"/></g><g class="mark-text role-axis-title" pointer-events="none"><text text-anchor="middle" transform="translate(400,30)" font-family="sans-serif" font-size="11px" font-weight="bold" fill="#000" opacity="1">CodonSite</text></g></g><path class="foreground" aria-hidden="true" d="" pointer-events="none" display="none"/></g></g><g class="mark-group role-axis" role="graphics-symbol" aria-roledescription="axis" aria-label="Y-axis titled 'adjusted_p-value' for a linear scale with values from 0.0 to 1.0"><g transform="translate(0.5,0.5)"><path class="background" aria-hidden="true" d="M0,0h0v0h0Z" pointer-events="none"/><g><g class="mark-rule role-axis-tick" pointer-events="none"><line transform="translate(0,600)" x2="-5" y2="0" stroke="#888" stroke-width="1" opacity="1"/><line transform="translate(0,570)" x2="-5" y2="0" stroke="#888" stroke-width="1" opacity="1"/><line transform="translate(0,540)" x2="-5" y2="0" stroke="#888" stroke-width="1" opacity="1"/><line transform="translate(0,510)" x2="-5" y2="0" stroke="#888" stroke-width="1" opacity="1"/><line transform="translate(0,480)" x2="-5" y2="0" stroke="#888" stroke-width="1" opacity="1"/><line transform="translate(0,450)" x2="-5" y2="0" stroke="#888" stroke-width="1" opacity="1"/><line transform="translate(0,420)" x2="-5" y2="0" stroke="#888" stroke-width="1" opacity="1"/><line transform="translate(0,390)" x2="-5" y2="0" stroke="#888" stroke-width="1" opacity="1"/><line transform="translate(0,360)" x2="-5" y2="0" stroke="#888" stroke-width="1" opacity="1"/><line transform="translate(0,330)" x2="-5" y2="0" stroke="#888" stroke-width="1" opacity="1"/><line transform="translate(0,300)" x2="-5" y2="0" stroke="#888" stroke-width="1" opacity="1"/><line transform="translate(0,270)" x2="-5" y2="0" stroke="#888" stroke-width="1" opacity="1"/><line transform="translate(0,240)" x2="-5" y2="0" stroke="#888" stroke-width="1" opacity="1"/><line transform="translate(0,210)" x2="-5" y2="0" stroke="#888" stroke-width="1" opacity="1"/><line transform="translate(0,180)" x2="-5" y2="0" stroke="#888" stroke-width="1" opacity="1"/><line transform="translate(0,150)" x2="-5" y2="0" stroke="#888" stroke-width="1" opacity="1"/><line transform="translate(0,120)" x2="-5" y2="0" stroke="#888" stroke-width="1" opacity="1"/><line transform="translate(0,90)" x2="-5" y2="0" stroke="#888" stroke-width="1" opacity="1"/><line transform="translate(0,60)" x2="-5" y2="0" stroke="#888" stroke-width="1" opacity="1"/><line transform="translate(0,30)" x2="-5" y2="0" stroke="#888" stroke-width="1" opacity="1"/><line transform="translate(0,0)" x2="-5" y2="0" stroke="#888" stroke-width="1" opacity="1"/></g><g class="mark-text role-axis-label" pointer-events="none"><text text-anchor="end" transform="translate(-7,603)" font-family="sans-serif" font-size="10px" fill="#000" opacity="1">0.00</text><text text-anchor="end" transform="translate(-7,573)" font-family="sans-serif" font-size="10px" fill="#000" opacity="1">0.05</text><text text-anchor="end" transform="translate(-7,543)" font-family="sans-serif" font-size="10px" fill="#000" opacity="1">0.10</text><text text-anchor="end" transform="translate(-7,513)" font-family="sans-serif" font-size="10px" fill="#000" opacity="1">0.15</text><text text-anchor="end" transform="translate(-7,483)" font-family="sans-serif" font-size="10px" fill="#000" opacity="1">0.20</text><text text-anchor="end" transform="translate(-7,453)" font-family="sans-serif" font-size="10px" fill="#000" opacity="1">0.25</text><text text-anchor="end" transform="translate(-7,423)" font-family="sans-serif" font-size="10px" fill="#000" opacity="1">0.30</text><text text-anchor="end" transform="translate(-7,393)" font-family="sans-serif" font-size="10px" fill="#000" opacity="1">0.35</text><text text-anchor="end" transform="translate(-7,363)" font-family="sans-serif" font-size="10px" fill="#000" opacity="1">0.40</text><text text-anchor="end" transform="translate(-7,333)" font-family="sans-serif" font-size="10px" fill="#000" opacity="1">0.45</text><text text-anchor="end" transform="translate(-7,303)" font-family="sans-serif" font-size="10px" fill="#000" opacity="1">0.50</text><text text-anchor="end" transform="translate(-7,273)" font-family="sans-serif" font-size="10px" fill="#000" opacity="1">0.55</text><text text-anchor="end" transform="translate(-7,243)" font-family="sans-serif" font-size="10px" fill="#000" opacity="1">0.60</text><text text-anchor="end" transform="translate(-7,213)" font-family="sans-serif" font-size="10px" fill="#000" opacity="1">0.65</text><text text-anchor="end" transform="translate(-7,183.00000000000003)" font-family="sans-serif" font-size="10px" fill="#000" opacity="1">0.70</text><text text-anchor="end" transform="translate(-7,153)" font-family="sans-serif" font-size="10px" fill="#000" opacity="1">0.75</text><text text-anchor="end" transform="translate(-7,122.99999999999997)" font-family="sans-serif" font-size="10px" fill="#000" opacity="1">0.80</text><text text-anchor="end" transform="translate(-7,93.00000000000001)" font-family="sans-serif" font-size="10px" fill="#000" opacity="1">0.85</text><text text-anchor="end" transform="translate(-7,62.999999999999986)" font-family="sans-serif" font-size="10px" fill="#000" opacity="1">0.90</text><text text-anchor="end" transform="translate(-7,33.00000000000003)" font-family="sans-serif" font-size="10px" fill="#000" opacity="1">0.95</text><text text-anchor="end" transform="translate(-7,3)" font-family="sans-serif" font-size="10px" fill="#000" opacity="1">1.00</text></g><g class="mark-rule role-axis-domain" pointer-events="none"><line transform="translate(0,600)" x2="0" y2="-600" stroke="#888" stroke-width="1" opacity="1"/></g><g class="mark-text role-axis-title" pointer-events="none"><text text-anchor="middle" transform="translate(-30.462890625,300) rotate(-90) translate(0,-2)" font-family="sans-serif" font-size="11px" font-weight="bold" fill="#000" opacity="1">adjusted_p-value</text></g></g><path class="foreground" aria-hidden="true" d="" pointer-events="none" display="none"/></g></g><g class="mark-symbol role-mark marks" role="graphics-object" aria-roledescription="symbol mark container"><path aria-label="CodonSite: 1; adjusted_p-value: 1" role="graphics-symbol" aria-roledescription="point" transform="translate(10,0)" d="M2.739,0A2.739,2.739,0,1,1,-2.739,0A2.739,2.739,0,1,1,2.739,0" stroke="rgb(253, 201, 180)" stroke-width="2" opacity="0.7"/><path aria-label="CodonSite: 2; adjusted_p-value: 1" role="graphics-symbol" aria-roledescription="point" transform="translate(20,0)" d="M2.739,0A2.739,2.739,0,1,1,-2.739,0A2.739,2.739,0,1,1,2.739,0" stroke="rgb(253, 201, 180)" stroke-width="2" opacity="0.7"/><path aria-label="CodonSite: 3; adjusted_p-value: 1" role="graphics-symbol" aria-roledescription="point" transform="translate(30,0)" d="M2.739,0A2.739,2.739,0,1,1,-2.739,0A2.739,2.739,0,1,1,2.739,0" stroke="rgb(253, 201, 180)" stroke-width="2" opacity="0.7"/><path aria-label="CodonSite: 4; adjusted_p-value: 0.865497076023" role="graphics-symbol" aria-roledescription="point" transform="translate(40,80.70175438596495)" d="M2.739,0A2.739,2.739,0,1,1,-2.739,0A2.739,2.739,0,1,1,2.739,0" stroke="rgb(249, 108, 78)" stroke-width="2" opacity="0.7"/><path aria-label="CodonSite: 5; adjusted_p-value: 0.865497076023" role="graphics-symbol" aria-roledescription="point" transform="translate(50,80.70175438596495)" d="M2.739,0A2.739,2.739,0,1,1,-2.739,0A2.739,2.739,0,1,1,2.739,0" stroke="rgb(249, 108, 78)" stroke-width="2" opacity="0.7"/><path aria-label="CodonSite: 6; adjusted_p-value: 1" role="graphics-symbol" aria-roledescription="point" transform="translate(60,0)" d="M2.739,0A2.739,2.739,0,1,1,-2.739,0A2.739,2.739,0,1,1,2.739,0" stroke="rgb(253, 201, 180)" stroke-width="2" opacity="0.7"/><path aria-label="CodonSite: 7; adjusted_p-value: 1" role="graphics-symbol" aria-roledescription="point" transform="translate(70,0)" d="M2.739,0A2.739,2.739,0,1,1,-2.739,0A2.739,2.739,0,1,1,2.739,0" stroke="rgb(253, 201, 180)" stroke-width="2" opacity="0.7"/><path aria-label="CodonSite: 8; adjusted_p-value: 1" role="graphics-symbol" aria-roledescription="point" transform="translate(80,0)" d="M2.739,0A2.739,2.739,0,1,1,-2.739,0A2.739,2.739,0,1,1,2.739,0" stroke="rgb(253, 201, 180)" stroke-width="2" opacity="0.7"/><path aria-label="CodonSite: 9; adjusted_p-value: 1" role="graphics-symbol" aria-roledescription="point" transform="translate(90,0)" d="M2.739,0A2.739,2.739,0,1,1,-2.739,0A2.739,2.739,0,1,1,2.739,0" stroke="rgb(253, 201, 180)" stroke-width="2" opacity="0.7"/><path aria-label="CodonSite: 10; adjusted_p-value: 1" role="graphics-symbol" aria-roledescription="point" transform="translate(100,0)" d="M2.739,0A2.739,2.739,0,1,1,-2.739,0A2.739,2.739,0,1,1,2.739,0" stroke="rgb(253, 201, 180)" stroke-width="2" opacity="0.7"/><path aria-label="CodonSite: 11; adjusted_p-value: 1" role="graphics-symbol" aria-roledescription="point" transform="translate(110.00000000000001,0)" d="M2.739,0A2.739,2.739,0,1,1,-2.739,0A2.739,2.739,0,1,1,2.739,0" stroke="rgb(253, 201, 180)" stroke-width="2" opacity="0.7"/><path aria-label="CodonSite: 12; adjusted_p-value: 1" role="graphics-symbol" aria-roledescription="point" transform="translate(120,0)" d="M2.739,0A2.739,2.739,0,1,1,-2.739,0A2.739,2.739,0,1,1,2.739,0" stroke="rgb(253, 201, 180)" stroke-width="2" opacity="0.7"/><path aria-label="CodonSite: 13; adjusted_p-value: 1" role="graphics-symbol" aria-roledescription="point" transform="translate(130,0)" d="M2.739,0A2.739,2.739,0,1,1,-2.739,0A2.739,2.739,0,1,1,2.739,0" stroke="rgb(253, 201, 180)" stroke-width="2" opacity="0.7"/><path aria-label="CodonSite: 14; adjusted_p-value: 0.865497076023" role="graphics-symbol" aria-roledescription="point" transform="translate(140,80.70175438596495)" d="M2.739,0A2.739,2.739,0,1,1,-2.739,0A2.739,2.739,0,1,1,2.739,0" stroke="rgb(249, 108, 78)" stroke-width="2" opacity="0.7"/><path aria-label="CodonSite: 15; adjusted_p-value: 0.865497076023" role="graphics-symbol" aria-roledescription="point" transform="translate(150,80.70175438596495)" d="M2.739,0A2.739,2.739,0,1,1,-2.739,0A2.739,2.739,0,1,1,2.739,0" stroke="rgb(249, 108, 78)" stroke-width="2" opacity="0.7"/><path aria-label="CodonSite: 16; adjusted_p-value: 0.865497076023" role="graphics-symbol" aria-roledescription="point" transform="translate(160,80.70175438596495)" d="M2.739,0A2.739,2.739,0,1,1,-2.739,0A2.739,2.739,0,1,1,2.739,0" stroke="rgb(249, 108, 78)" stroke-width="2" opacity="0.7"/><path aria-label="CodonSite: 17; adjusted_p-value: 0.865497076023" role="graphics-symbol" aria-roledescription="point" transform="translate(170,80.70175438596495)" d="M2.739,0A2.739,2.739,0,1,1,-2.739,0A2.739,2.739,0,1,1,2.739,0" stroke="rgb(249, 108, 78)" stroke-width="2" opacity="0.7"/><path aria-label="CodonSite: 18; adjusted_p-value: 0.865497076023" role="graphics-symbol" aria-roledescription="point" transform="translate(180,80.70175438596495)" d="M2.739,0A2.739,2.739,0,1,1,-2.739,0A2.739,2.739,0,1,1,2.739,0" stroke="rgb(249, 108, 78)" stroke-width="2" opacity="0.7"/><path aria-label="CodonSite: 19; adjusted_p-value: 0.676269187659" role="graphics-symbol" aria-roledescription="point" transform="translate(190,194.2384874043925)" d="M2.739,0A2.739,2.739,0,1,1,-2.739,0A2.739,2.739,0,1,1,2.739,0" stroke="rgb(151, 11, 19)" stroke-width="2" opacity="0.7"/><path aria-label="CodonSite: 20; adjusted_p-value: 0.865497076023" role="graphics-symbol" aria-roledescription="point" transform="translate(200,80.70175438596495)" d="M2.739,0A2.739,2.739,0,1,1,-2.739,0A2.739,2.739,0,1,1,2.739,0" stroke="rgb(249, 108, 78)" stroke-width="2" opacity="0.7"/><path aria-label="CodonSite: 21; adjusted_p-value: 0.865497076023" role="graphics-symbol" aria-roledescription="point" transform="translate(210,80.70175438596495)" d="M2.739,0A2.739,2.739,0,1,1,-2.739,0A2.739,2.739,0,1,1,2.739,0" stroke="rgb(249, 108, 78)" stroke-width="2" opacity="0.7"/><path aria-label="CodonSite: 22; adjusted_p-value: 1" role="graphics-symbol" aria-roledescription="point" transform="translate(220.00000000000003,0)" d="M2.739,0A2.739,2.739,0,1,1,-2.739,0A2.739,2.739,0,1,1,2.739,0" stroke="rgb(253, 201, 180)" stroke-width="2" opacity="0.7"/><path aria-label="CodonSite: 23; adjusted_p-value: 0.865497076023" role="graphics-symbol" aria-roledescription="point" transform="translate(229.99999999999997,80.70175438596495)" d="M2.739,0A2.739,2.739,0,1,1,-2.739,0A2.739,2.739,0,1,1,2.739,0" stroke="rgb(249, 108, 78)" stroke-width="2" opacity="0.7"/><path aria-label="CodonSite: 24; adjusted_p-value: 0.865497076023" role="graphics-symbol" aria-roledescription="point" transform="translate(240,80.70175438596495)" d="M2.739,0A2.739,2.739,0,1,1,-2.739,0A2.739,2.739,0,1,1,2.739,0" stroke="rgb(249, 108, 78)" stroke-width="2" opacity="0.7"/><path aria-label="CodonSite: 25; adjusted_p-value: 0.865497076023" role="graphics-symbol" aria-roledescription="point" transform="translate(250,80.70175438596495)" d="M2.739,0A2.739,2.739,0,1,1,-2.739,0A2.739,2.739,0,1,1,2.739,0" stroke="rgb(249, 108, 78)" stroke-width="2" opacity="0.7"/><path aria-label="CodonSite: 26; adjusted_p-value: 0.865497076023" role="graphics-symbol" aria-roledescription="point" transform="translate(260,80.70175438596495)" d="M2.739,0A2.739,2.739,0,1,1,-2.739,0A2.739,2.739,0,1,1,2.739,0" stroke="rgb(249, 108, 78)" stroke-width="2" opacity="0.7"/><path aria-label="CodonSite: 27; adjusted_p-value: 0.865497076023" role="graphics-symbol" aria-roledescription="point" transform="translate(270,80.70175438596495)" d="M2.739,0A2.739,2.739,0,1,1,-2.739,0A2.739,2.739,0,1,1,2.739,0" stroke="rgb(249, 108, 78)" stroke-width="2" opacity="0.7"/><path aria-label="CodonSite: 28; adjusted_p-value: 0.865497076023" role="graphics-symbol" aria-roledescription="point" transform="translate(280,80.70175438596495)" d="M2.739,0A2.739,2.739,0,1,1,-2.739,0A2.739,2.739,0,1,1,2.739,0" stroke="rgb(249, 108, 78)" stroke-width="2" opacity="0.7"/><path aria-label="CodonSite: 29; adjusted_p-value: 0.865497076023" role="graphics-symbol" aria-roledescription="point" transform="translate(290,80.70175438596495)" d="M2.739,0A2.739,2.739,0,1,1,-2.739,0A2.739,2.739,0,1,1,2.739,0" stroke="rgb(249, 108, 78)" stroke-width="2" opacity="0.7"/><path aria-label="CodonSite: 30; adjusted_p-value: 0.865497076023" role="graphics-symbol" aria-roledescription="point" transform="translate(300,80.70175438596495)" d="M2.739,0A2.739,2.739,0,1,1,-2.739,0A2.739,2.739,0,1,1,2.739,0" stroke="rgb(249, 108, 78)" stroke-width="2" opacity="0.7"/><path aria-label="CodonSite: 31; adjusted_p-value: 0.865497076023" role="graphics-symbol" aria-roledescription="point" transform="translate(310,80.70175438596495)" d="M2.739,0A2.739,2.739,0,1,1,-2.739,0A2.739,2.739,0,1,1,2.739,0" stroke="rgb(249, 108, 78)" stroke-width="2" opacity="0.7"/><path aria-label="CodonSite: 32; adjusted_p-value: 0.865497076023" role="graphics-symbol" aria-roledescription="point" transform="translate(320,80.70175438596495)" d="M2.739,0A2.739,2.739,0,1,1,-2.739,0A2.739,2.739,0,1,1,2.739,0" stroke="rgb(249, 108, 78)" stroke-width="2" opacity="0.7"/><path aria-label="CodonSite: 33; adjusted_p-value: 0.865497076023" role="graphics-symbol" aria-roledescription="point" transform="translate(330,80.70175438596495)" d="M2.739,0A2.739,2.739,0,1,1,-2.739,0A2.739,2.739,0,1,1,2.739,0" stroke="rgb(249, 108, 78)" stroke-width="2" opacity="0.7"/><path aria-label="CodonSite: 34; adjusted_p-value: 0.865497076023" role="graphics-symbol" aria-roledescription="point" transform="translate(340,80.70175438596495)" d="M2.739,0A2.739,2.739,0,1,1,-2.739,0A2.739,2.739,0,1,1,2.739,0" stroke="rgb(249, 108, 78)" stroke-width="2" opacity="0.7"/><path aria-label="CodonSite: 35; adjusted_p-value: 0.865497076023" role="graphics-symbol" aria-roledescription="point" transform="translate(350,80.70175438596495)" d="M2.739,0A2.739,2.739,0,1,1,-2.739,0A2.739,2.739,0,1,1,2.739,0" stroke="rgb(249, 108, 78)" stroke-width="2" opacity="0.7"/><path aria-label="CodonSite: 36; adjusted_p-value: 0.865497076023" role="graphics-symbol" aria-roledescription="point" transform="translate(360,80.70175438596495)" d="M2.739,0A2.739,2.739,0,1,1,-2.739,0A2.739,2.739,0,1,1,2.739,0" stroke="rgb(249, 108, 78)" stroke-width="2" opacity="0.7"/><path aria-label="CodonSite: 37; adjusted_p-value: 1" role="graphics-symbol" aria-roledescription="point" transform="translate(370,0)" d="M2.739,0A2.739,2.739,0,1,1,-2.739,0A2.739,2.739,0,1,1,2.739,0" stroke="rgb(253, 201, 180)" stroke-width="2" opacity="0.7"/><path aria-label="CodonSite: 38; adjusted_p-value: 0.865497076023" role="graphics-symbol" aria-roledescription="point" transform="translate(380,80.70175438596495)" d="M2.739,0A2.739,2.739,0,1,1,-2.739,0A2.739,2.739,0,1,1,2.739,0" stroke="rgb(249, 108, 78)" stroke-width="2" opacity="0.7"/><path aria-label="CodonSite: 39; adjusted_p-value: 0.676269187659" role="graphics-symbol" aria-roledescription="point" transform="translate(390,194.2384874043925)" d="M2.739,0A2.739,2.739,0,1,1,-2.739,0A2.739,2.739,0,1,1,2.739,0" stroke="rgb(151, 11, 19)" stroke-width="2" opacity="0.7"/><path aria-label="CodonSite: 40; adjusted_p-value: 0.865497076023" role="graphics-symbol" aria-roledescription="point" transform="translate(400,80.70175438596495)" d="M2.739,0A2.739,2.739,0,1,1,-2.739,0A2.739,2.739,0,1,1,2.739,0" stroke="rgb(249, 108, 78)" stroke-width="2" opacity="0.7"/><path aria-label="CodonSite: 41; adjusted_p-value: 0.865497076023" role="graphics-symbol" aria-roledescription="point" transform="translate(409.99999999999994,80.70175438596495)" d="M2.739,0A2.739,2.739,0,1,1,-2.739,0A2.739,2.739,0,1,1,2.739,0" stroke="rgb(249, 108, 78)" stroke-width="2" opacity="0.7"/><path aria-label="CodonSite: 42; adjusted_p-value: 0.865497076023" role="graphics-symbol" aria-roledescription="point" transform="translate(420,80.70175438596495)" d="M2.739,0A2.739,2.739,0,1,1,-2.739,0A2.739,2.739,0,1,1,2.739,0" stroke="rgb(249, 108, 78)" stroke-width="2" opacity="0.7"/><path aria-label="CodonSite: 43; adjusted_p-value: 0.865497076023" role="graphics-symbol" aria-roledescription="point" transform="translate(430,80.70175438596495)" d="M2.739,0A2.739,2.739,0,1,1,-2.739,0A2.739,2.739,0,1,1,2.739,0" stroke="rgb(249, 108, 78)" stroke-width="2" opacity="0.7"/><path aria-label="CodonSite: 44; adjusted_p-value: 1" role="graphics-symbol" aria-roledescription="point" transform="translate(440.00000000000006,0)" d="M2.739,0A2.739,2.739,0,1,1,-2.739,0A2.739,2.739,0,1,1,2.739,0" stroke="rgb(253, 201, 180)" stroke-width="2" opacity="0.7"/><path aria-label="CodonSite: 45; adjusted_p-value: 0.865497076023" role="graphics-symbol" aria-roledescription="point" transform="translate(450,80.70175438596495)" d="M2.739,0A2.739,2.739,0,1,1,-2.739,0A2.739,2.739,0,1,1,2.739,0" stroke="rgb(249, 108, 78)" stroke-width="2" opacity="0.7"/><path aria-label="CodonSite: 46; adjusted_p-value: 0.865497076023" role="graphics-symbol" aria-roledescription="point" transform="translate(459.99999999999994,80.70175438596495)" d="M2.739,0A2.739,2.739,0,1,1,-2.739,0A2.739,2.739,0,1,1,2.739,0" stroke="rgb(249, 108, 78)" stroke-width="2" opacity="0.7"/><path aria-label="CodonSite: 47; adjusted_p-value: 0.865497076023" role="graphics-symbol" aria-roledescription="point" transform="translate(470,80.70175438596495)" d="M2.739,0A2.739,2.739,0,1,1,-2.739,0A2.739,2.739,0,1,1,2.739,0" stroke="rgb(249, 108, 78)" stroke-width="2" opacity="0.7"/><path aria-label="CodonSite: 48; adjusted_p-value: 0.865497076023" role="graphics-symbol" aria-roledescription="point" transform="translate(480,80.70175438596495)" d="M2.739,0A2.739,2.739,0,1,1,-2.739,0A2.739,2.739,0,1,1,2.739,0" stroke="rgb(249, 108, 78)" stroke-width="2" opacity="0.7"/><path aria-label="CodonSite: 49; adjusted_p-value: 1" role="graphics-symbol" aria-roledescription="point" transform="translate(490.00000000000006,0)" d="M2.739,0A2.739,2.739,0,1,1,-2.739,0A2.739,2.739,0,1,1,2.739,0" stroke="rgb(253, 201, 180)" stroke-width="2" opacity="0.7"/><path aria-label="CodonSite: 50; adjusted_p-value: 0.865497076023" role="graphics-symbol" aria-roledescription="point" transform="translate(500,80.70175438596495)" d="M2.739,0A2.739,2.739,0,1,1,-2.739,0A2.739,2.739,0,1,1,2.739,0" stroke="rgb(249, 108, 78)" stroke-width="2" opacity="0.7"/><path aria-label="CodonSite: 51; adjusted_p-value: 0.865497076023" role="graphics-symbol" aria-roledescription="point" transform="translate(509.99999999999994,80.70175438596495)" d="M2.739,0A2.739,2.739,0,1,1,-2.739,0A2.739,2.739,0,1,1,2.739,0" stroke="rgb(249, 108, 78)" stroke-width="2" opacity="0.7"/><path aria-label="CodonSite: 52; adjusted_p-value: 0.865497076023" role="graphics-symbol" aria-roledescription="point" transform="translate(520,80.70175438596495)" d="M2.739,0A2.739,2.739,0,1,1,-2.739,0A2.739,2.739,0,1,1,2.739,0" stroke="rgb(249, 108, 78)" stroke-width="2" opacity="0.7"/><path aria-label="CodonSite: 53; adjusted_p-value: 0.865497076023" role="graphics-symbol" aria-roledescription="point" transform="translate(530,80.70175438596495)" d="M2.739,0A2.739,2.739,0,1,1,-2.739,0A2.739,2.739,0,1,1,2.739,0" stroke="rgb(249, 108, 78)" stroke-width="2" opacity="0.7"/><path aria-label="CodonSite: 54; adjusted_p-value: 0.865497076023" role="graphics-symbol" aria-roledescription="point" transform="translate(540,80.70175438596495)" d="M2.739,0A2.739,2.739,0,1,1,-2.739,0A2.739,2.739,0,1,1,2.739,0" stroke="rgb(249, 108, 78)" stroke-width="2" opacity="0.7"/><path aria-label="CodonSite: 55; adjusted_p-value: 1" role="graphics-symbol" aria-roledescription="point" transform="translate(550,0)" d="M2.739,0A2.739,2.739,0,1,1,-2.739,0A2.739,2.739,0,1,1,2.739,0" stroke="rgb(253, 201, 180)" stroke-width="2" opacity="0.7"/><path aria-label="CodonSite: 56; adjusted_p-value: 0.676269187659" role="graphics-symbol" aria-roledescription="point" transform="translate(560,194.2384874043925)" d="M2.739,0A2.739,2.739,0,1,1,-2.739,0A2.739,2.739,0,1,1,2.739,0" stroke="rgb(151, 11, 19)" stroke-width="2" opacity="0.7"/><path aria-label="CodonSite: 57; adjusted_p-value: 0.865497076023" role="graphics-symbol" aria-roledescription="point" transform="translate(570,80.70175438596495)" d="M2.739,0A2.739,2.739,0,1,1,-2.739,0A2.739,2.739,0,1,1,2.739,0" stroke="rgb(249, 108, 78)" stroke-width="2" opacity="0.7"/><path aria-label="CodonSite: 58; adjusted_p-value: 0.865497076023" role="graphics-symbol" aria-roledescription="point" transform="translate(580,80.70175438596495)" d="M2.739,0A2.739,2.739,0,1,1,-2.739,0A2.739,2.739,0,1,1,2.739,0" stroke="rgb(249, 108, 78)" stroke-width="2" opacity="0.7"/><path aria-label="CodonSite: 59; adjusted_p-value: 0.865497076023" role="graphics-symbol" aria-roledescription="point" transform="translate(590,80.70175438596495)" d="M2.739,0A2.739,2.739,0,1,1,-2.739,0A2.739,2.739,0,1,1,2.739,0" stroke="rgb(249, 108, 78)" stroke-width="2" opacity="0.7"/><path aria-label="CodonSite: 60; adjusted_p-value: 0.865497076023" role="graphics-symbol" aria-roledescription="point" transform="translate(600,80.70175438596495)" d="M2.739,0A2.739,2.739,0,1,1,-2.739,0A2.739,2.739,0,1,1,2.739,0" stroke="rgb(249, 108, 78)" stroke-width="2" opacity="0.7"/><path aria-label="CodonSite: 61; adjusted_p-value: 0.865497076023" role="graphics-symbol" aria-roledescription="point" transform="translate(610,80.70175438596495)" d="M2.739,0A2.739,2.739,0,1,1,-2.739,0A2.739,2.739,0,1,1,2.739,0" stroke="rgb(249, 108, 78)" stroke-width="2" opacity="0.7"/><path aria-label="CodonSite: 62; adjusted_p-value: 0.865497076023" role="graphics-symbol" aria-roledescription="point" transform="translate(620,80.70175438596495)" d="M2.739,0A2.739,2.739,0,1,1,-2.739,0A2.739,2.739,0,1,1,2.739,0" stroke="rgb(249, 108, 78)" stroke-width="2" opacity="0.7"/><path aria-label="CodonSite: 63; adjusted_p-value: 0.865497076023" role="graphics-symbol" aria-roledescription="point" transform="translate(630,80.70175438596495)" d="M2.739,0A2.739,2.739,0,1,1,-2.739,0A2.739,2.739,0,1,1,2.739,0" stroke="rgb(249, 108, 78)" stroke-width="2" opacity="0.7"/><path aria-label="CodonSite: 64; adjusted_p-value: 0.865497076023" role="graphics-symbol" aria-roledescription="point" transform="translate(640,80.70175438596495)" d="M2.739,0A2.739,2.739,0,1,1,-2.739,0A2.739,2.739,0,1,1,2.739,0" stroke="rgb(249, 108, 78)" stroke-width="2" opacity="0.7"/><path aria-label="CodonSite: 65; adjusted_p-value: 0.865497076023" role="graphics-symbol" aria-roledescription="point" transform="translate(650,80.70175438596495)" d="M2.739,0A2.739,2.739,0,1,1,-2.739,0A2.739,2.739,0,1,1,2.739,0" stroke="rgb(249, 108, 78)" stroke-width="2" opacity="0.7"/><path aria-label="CodonSite: 66; adjusted_p-value: 0.865497076023" role="graphics-symbol" aria-roledescription="point" transform="translate(660,80.70175438596495)" d="M2.739,0A2.739,2.739,0,1,1,-2.739,0A2.739,2.739,0,1,1,2.739,0" stroke="rgb(249, 108, 78)" stroke-width="2" opacity="0.7"/><path aria-label="CodonSite: 67; adjusted_p-value: 0.865497076023" role="graphics-symbol" aria-roledescription="point" transform="translate(670,80.70175438596495)" d="M2.739,0A2.739,2.739,0,1,1,-2.739,0A2.739,2.739,0,1,1,2.739,0" stroke="rgb(249, 108, 78)" stroke-width="2" opacity="0.7"/><path aria-label="CodonSite: 68; adjusted_p-value: 0.865497076023" role="graphics-symbol" aria-roledescription="point" transform="translate(680,80.70175438596495)" d="M2.739,0A2.739,2.739,0,1,1,-2.739,0A2.739,2.739,0,1,1,2.739,0" stroke="rgb(249, 108, 78)" stroke-width="2" opacity="0.7"/><path aria-label="CodonSite: 69; adjusted_p-value: 0.865497076023" role="graphics-symbol" aria-roledescription="point" transform="translate(690,80.70175438596495)" d="M2.739,0A2.739,2.739,0,1,1,-2.739,0A2.739,2.739,0,1,1,2.739,0" stroke="rgb(249, 108, 78)" stroke-width="2" opacity="0.7"/><path aria-label="CodonSite: 70; adjusted_p-value: 0.865497076023" role="graphics-symbol" aria-roledescription="point" transform="translate(700,80.70175438596495)" d="M2.739,0A2.739,2.739,0,1,1,-2.739,0A2.739,2.739,0,1,1,2.739,0" stroke="rgb(249, 108, 78)" stroke-width="2" opacity="0.7"/><path aria-label="CodonSite: 71; adjusted_p-value: 0.865497076023" role="graphics-symbol" aria-roledescription="point" transform="translate(710,80.70175438596495)" d="M2.739,0A2.739,2.739,0,1,1,-2.739,0A2.739,2.739,0,1,1,2.739,0" stroke="rgb(249, 108, 78)" stroke-width="2" opacity="0.7"/><path aria-label="CodonSite: 72; adjusted_p-value: 0.865497076023" role="graphics-symbol" aria-roledescription="point" transform="translate(720,80.70175438596495)" d="M2.739,0A2.739,2.739,0,1,1,-2.739,0A2.739,2.739,0,1,1,2.739,0" stroke="rgb(249, 108, 78)" stroke-width="2" opacity="0.7"/><path aria-label="CodonSite: 73; adjusted_p-value: 0.865497076023" role="graphics-symbol" aria-roledescription="point" transform="translate(730,80.70175438596495)" d="M2.739,0A2.739,2.739,0,1,1,-2.739,0A2.739,2.739,0,1,1,2.739,0" stroke="rgb(249, 108, 78)" stroke-width="2" opacity="0.7"/><path aria-label="CodonSite: 74; adjusted_p-value: 1" role="graphics-symbol" aria-roledescription="point" transform="translate(740,0)" d="M2.739,0A2.739,2.739,0,1,1,-2.739,0A2.739,2.739,0,1,1,2.739,0" stroke="rgb(253, 201, 180)" stroke-width="2" opacity="0.7"/></g><g class="mark-group role-legend" role="graphics-symbol" aria-roledescription="legend" aria-label="Gradient legend titled 'adjusted_p-value' for stroke color with values from 0.68 to 1.00"><g transform="translate(818,0)"><path class="background" aria-hidden="true" d="M0,0h90v216h-90Z" pointer-events="none"/><g><g class="mark-group role-legend-entry"><g transform="translate(0,16)"><path class="background" aria-hidden="true" d="M0,0h0v0h0Z" pointer-events="none"/><g><g class="mark-rect role-legend-gradient" pointer-events="none"><path d="M0,0h16v200h-16Z" fill="url(#gradient_0)" stroke="#ddd" stroke-width="0" opacity="0.7"/></g><g class="mark-text role-legend-label" pointer-events="none"><text text-anchor="start" transform="translate(18,188.33916980649792)" font-family="sans-serif" font-size="10px" fill="#000" opacity="1">0.7</text><text text-anchor="start" transform="translate(18,126.55944653766522)" font-family="sans-serif" font-size="10px" fill="#000" opacity="1">0.8</text><text text-anchor="start" transform="translate(18,64.77972326883261)" font-family="sans-serif" font-size="10px" fill="#000" opacity="1">0.9</text><text text-anchor="start" transform="translate(18,8)" font-family="sans-serif" font-size="10px" fill="#000" opacity="1">1.0</text></g></g><path class="foreground" aria-hidden="true" d="" pointer-events="none" display="none"/></g></g><g class="mark-text role-legend-title" pointer-events="none"><text text-anchor="start" transform="translate(0,9)" font-family="sans-serif" font-size="11px" font-weight="bold" fill="#000" opacity="1">adjusted_p-value</text></g></g><path class="foreground" aria-hidden="true" d="" pointer-events="none" display="none"/></g></g></g><path class="foreground" aria-hidden="true" d="" display="none"/></g></g></g><defs><linearGradient id="gradient_0" x1="0" x2="0" y1="1" y2="0"><stop offset="0" stop-color="rgb(151, 11, 19)"/><stop offset="0.011524427698678109" stop-color="rgb(154, 12, 20)"/><stop offset="0.07330415096751045" stop-color="rgb(171, 16, 23)"/><stop offset="0.13508387423634313" stop-color="rgb(186, 21, 26)"/><stop offset="0.19686359750517582" stop-color="rgb(199, 27, 29)"/><stop offset="0.2586433207740085" stop-color="rgb(212, 36, 34)"/><stop offset="0.32042304404284117" stop-color="rgb(223, 46, 39)"/><stop offset="0.38220276731167385" stop-color="rgb(233, 59, 45)"/><stop offset="0.4439824905805062" stop-color="rgb(240, 74, 54)"/><stop offset="0.5057622138493388" stop-color="rgb(246, 88, 64)"/><stop offset="0.5675419371181716" stop-color="rgb(249, 104, 75)"/><stop offset="0.6293216603870042" stop-color="rgb(251, 119, 87)"/><stop offset="0.691101383655837" stop-color="rgb(252, 133, 101)"/><stop offset="0.7528811069246696" stop-color="rgb(252, 147, 116)"/><stop offset="0.814660830193502" stop-color="rgb(252, 161, 132)"/><stop offset="0.8764405534623346" stop-color="rgb(252, 175, 148)"/><stop offset="0.9382202767311674" stop-color="rgb(252, 188, 164)"/><stop offset="1" stop-color="rgb(253, 201, 180)"/></linearGradient></defs></svg>