<svg xmlns="http://www.w3.org/2000/svg" xmlns:xlink="http://www.w3.org/1999/xlink" version="1.1" class="marks" width="960" height="647" viewBox="0 0 960 647"><rect width="960" height="647" fill="white"/><g fill="none" stroke-miterlimit="10" transform="translate(47,10)"><g class="mark-group role-frame root" role="graphics-object" aria-roledescription="group mark container"><g transform="translate(0,0)"><path class="background" aria-hidden="true" d="M0.5,0.5h800v600h-800Z" stroke="#ddd"/><g><g class="mark-group role-axis" aria-hidden="true"><g transform="translate(0.5,600.5)"><path class="background" aria-hidden="true" d="M0,0h0v0h0Z" pointer-events="none"/><g><g class="mark-rule role-axis-grid" pointer-events="none"><line transform="translate(0,-600)" x2="0" y2="600" stroke="#ddd" stroke-width="1" opacity="1"/><line transform="translate(44,-600)" x2="0" y2="600" stroke="#ddd" stroke-width="1" opacity="1"/><line transform="translate(89,-600)" x2="0" y2="600" stroke="#ddd" stroke-width="1" opacity="1"/><line transform="translate(133,-600)" x2="0" y2="600" stroke="#ddd" stroke-width="1" opacity="1"/><line transform="translate(178,-600)" x2="0" y2="600" stroke="#ddd" stroke-width="1" opacity="1"/><line transform="translate(222,-600)" x2="0" y2="600" stroke="#ddd" stroke-width="1" opacity="1"/><line transform="translate(267,-600)" x2="0" y2="600" stroke="#ddd" stroke-width="1" opacity="1"/><line transform="translate(311,-600)" x2="0" y2="600" stroke="#ddd" stroke-width="1" opacity="1"/><line transform="translate(356,-600)" x2="0" y2="600" stroke="#ddd" stroke-width="1" opacity="1"/><line transform="translate(400,-600)" x2="0" y2="600" stroke="#ddd" stroke-width="1" opacity="1"/><line transform="translate(444,-600)" x2="0" y2="600" stroke="#ddd" stroke-width="1" opacity="1"/><line transform="translate(489,-600)" x2="0" y2="600" stroke="#ddd" stroke-width="1" opacity="1"/><line transform="translate(533,-600)" x2="0" y2="600" stroke="#ddd" stroke-width="1" opacity="1"/><line transform="translate(578,-600)" x2="0" y2="600" stroke="#ddd" stroke-width="1" opacity="1"/><line transform="translate(622,-600)" x2="0" y2="600" stroke="#ddd" stroke-width="1" opacity="1"/><line transform="translate(667,-600)" x2="0" y2="600" stroke="#ddd" stroke-width="1" opacity="1"/><line transform="translate(711,-600)" x2="0" y2="600" stroke="#ddd" stroke-width="1" opacity="1"/><line transform="translate(756,-600)" x2="0" y2="600" stroke="#ddd" stroke-width="1" opacity="1"/><line transform="translate(800,-600)" x2="0" y2="600" stroke="#ddd" stroke-width="1" opacity="1"/></g></g><path class="foreground" aria-hidden="true" d="" pointer-events="none" display="none"/></g></g><g class="mark-group role-axis" aria-hidden="true"><g transform="translate(0.5,0.5)"><path class="background" aria-hidden="true" d="M0,0h0v0h0Z" pointer-events="none"/><g><g class="mark-rule role-axis-grid" pointer-events="none"><line transform="translate(0,600)" x2="800" y2="0" stroke="#ddd" stroke-width="1" opacity="1"/><line transform="translate(0,570)" x2="800" y2="0" stroke="#ddd" stroke-width="1" opacity="1"/><line transform="translate(0,540)" x2="800" y2="0" stroke="#ddd" stroke-width="1" opacity="1"/><line transform="translate(0,510)" x2="800" y2="0" stroke="#ddd" stroke-width="1" opacity="1"/><line transform="translate(0,480)" x2="800" y2="0" stroke="#ddd" stroke-width="1" opacity="1"/><line transform="translate(0,450)" x2="800" y2="0" stroke="#ddd" stroke-width="1" opacity="1"/><line transform="translate(0,420)" x2="800" y2="0" stroke="#ddd" stroke-width="1" opacity="1"/><line transform="translate(0,390)" x2="800" y2="0" stroke="#ddd" stroke-width="1" opacity="1"/><line transform="translate(0,360)" x2="800" y2="0" stroke="#ddd" stroke-width="1" opacity="1"/><line transform="translate(0,330)" x2="800" y2="0" stroke="#ddd" stroke-width="1" opacity="1"/><line transform="translate(0,300)" x2="800" y2="0" stroke="#ddd" stroke-width="1" opacity="1"/><line transform="translate(0,270)" x2="800" y2="0" stroke="#ddd" stroke-width="1" opacity="1"/><line transform="translate(0,240)" x2="800" y2="0" stroke="#ddd" stroke-width="1" opacity="1"/><line transform="translate(0,210)" x2="800" y2="0" stroke="#ddd" stroke-width="1" opacity="1"/><line transform="translate(0,180)" x2="800" y2="0" stroke="#ddd" stroke-width="1" opacity="1"/><line transform="translate(0,150)" x2="800" y2="0" stroke="#ddd" stroke-width="1" opacity="1"/><line transform="translate(0,120)" x2="800" y2="0" stroke="#ddd" stroke-width="1" opacity="1"/><line transform="translate(0,90)" x2="800" y2="0" stroke="#ddd" stroke-width="1" opacity="1"/><line transform="translate(0,60)" x2="800" y2="0" stroke="#ddd" stroke-width="1" opacity="1"/><line transform="translate(0,30)" x2="800" y2="0" stroke="#ddd" stroke-width="1" opacity="1"/><line transform="translate(0,0)" x2="800" y2="0" stroke="#ddd" stroke-width="1" opacity="1"/></g></g><path class="foreground" aria-hidden="true" d="" pointer-events="none" display="none"/></g></g><g class="mark-group role-axis" role="graphics-symbol" aria-roledescription="axis" aria-label="X-axis titled 'CodonSite' for a linear scale with values from 0 to 90"><g transform="translate(0.5,600.5)"><path class="background" aria-hidden="true" d="M0,0h0v0h0Z" pointer-events="none"/><g><g class="mark-rule role-axis-tick" pointer-events="none"><line transform="translate(0,0)" x2="0" y2="5" stroke="#888" stroke-width="1" opacity="1"/><line transform="translate(44,0)" x2="0" y2="5" stroke="#888" stroke-width="1" opacity="1"/><line transform="translate(89,0)" x2="0" y2="5" stroke="#888" stroke-width="1" opacity="1"/><line transform="translate(133,0)" x2="0" y2="5" stroke="#888" stroke-width="1" opacity="1"/><line transform="translate(178,0)" x2="0" y2="5" stroke="#888" stroke-width="1" opacity="1"/><line transform="translate(222,0)" x2="0" y2="5" stroke="#888" stroke-width="1" opacity="1"/><line transform="translate(267,0)" x2="0" y2="5" stroke="#888" stroke-width="1" opacity="1"/><line transform="translate(311,0)" x2="0" y2="5" stroke="#888" stroke-width="1" opacity="1"/><line transform="translate(356,0)" x2="0" y2="5" stroke="#888" stroke-width="1" opacity="1"/><line transform="translate(400,0)" x2="0" y2="5" stroke="#888" stroke-width="1" opacity="1"/><line transform="translate(444,0)" x2="0" y2="5" stroke="#888" stroke-width="1" opacity="1"/><line transform="translate(489,0)" x2="0" y2="5" stroke="#888" stroke-width="1" opacity="1"/><line transform="translate(533,0)" x2="0" y2="5" stroke="#888" stroke-width="1" opacity="1"/><line transform="translate(578,0)" x2="0" y2="5" stroke="#888" stroke-width="1" opacity="1"/><line transform="translate(622,0)" x2="0" y2="5" stroke="#888" stroke-width="1" opacity="1"/><line transform="translate(667,0)" x2="0" y2="5" stroke="#888" stroke-width="1" opacity="1"/><line transform="translate(711,0)" x2="0" y2="5" stroke="#888" stroke-width="1" opacity="1"/><line transform="translate(756,0)" x2="0" y2="5" stroke="#888" stroke-width="1" opacity="1"/><line transform="translate(800,0)" x2="0" y2="5" stroke="#888" stroke-width="1" opacity="1"/></g><g class="mark-text role-axis-label" pointer-events="none"><text text-anchor="start" transform="translate(0,15)" font-family="sans-serif" font-size="10px" fill="#000" opacity="1">0</text><text text-anchor="middle" transform="translate(44.44444444444444,15)" font-family="sans-serif" font-size="10px" fill="#000" opacity="1">5</text><text text-anchor="middle" transform="translate(88.88888888888889,15)" font-family="sans-serif" font-size="10px" fill="#000" opacity="1">10</text><text text-anchor="middle" transform="translate(133.33333333333331,15)" font-family="sans-serif" font-size="10px" fill="#000" opacity="1">15</text><text text-anchor="middle" transform="translate(177.77777777777777,15)" font-family="sans-serif" font-size="10px" fill="#000" opacity="1">20</text><text text-anchor="middle" transform="translate(222.22222222222223,15)" font-family="sans-serif" font-size="10px" fill="#000" opacity="1">25</text><text text-anchor="middle" transform="translate(266.66666666666663,15)" font-family="sans-serif" font-size="10px" fill="#000" opacity="1">30</text><text text-anchor="middle" transform="translate(311.11111111111114,15)" font-family="sans-serif" font-size="10px" fill="#000" opacity="1">35</text><text text-anchor="middle" transform="translate(355.55555555555554,15)" font-family="sans-serif" font-size="10px" fill="#000" opacity="1">40</text><text text-anchor="middle" transform="translate(400,15)" font-family="sans-serif" font-size="10px" fill="#000" opacity="1">45</text><text text-anchor="middle" transform="translate(444.44444444444446,15)" font-family="sans-serif" font-size="10px" fill="#000" opacity="1">50</text><text text-anchor="middle" transform="translate(488.8888888888889,15)" font-family="sans-serif" font-size="10px" fill="#000" opacity="1">55</text><text text-anchor="middle" transform="translate(533.3333333333333,15)" font-family="sans-serif" font-size="10px" fill="#000" opacity="1">60</text><text text-anchor="middle" transform="translate(577.7777777777777,15)" font-family="sans-serif" font-size="10px" fill="#000" opacity="1">65</text><text text-anchor="middle" transform="translate(622.2222222222223,15)" font-family="sans-serif" font-size="10px" fill="#000" opacity="1">70</text><text text-anchor="middle" transform="translate(666.6666666666667,15)" font-family="sans-serif" font-size="10px" fill="#000" opacity="1">75</text><text text-anchor="middle" transform="translate(711.1111111111111,15)" font-family="sans-serif" font-size="10px" fill="#000" opacity="1">80</text><text text-anchor="middle" transform="translate(755.5555555555555,15)" font-family="sans-serif" font-size="10px" fill="#000" opacity="1">85</text><text text-anchor="end" transform="translate(800,15)" font-family="sans-serif" font-size="10px" fill="#000" opacity="1">90</text></g><g class="mark-rule role-axis-domain" pointer-events="none"><line transform="translate(0,0)" x2="800" y2="0" stroke="#888" stroke-width="1" opacity="1"/></g><g class="mark-text role-axis-title" pointer-events="none"><text text-anchor="middle" transform="translate(400,30)" font-family="sans-serif" font-size="11px" font-weight="bold" fill="#000" opacity="1">CodonSite</text></g></g><path class="foreground" aria-hidden="true" d="" pointer-events="none" display="none"/></g></g><g class="mark-group role-axis" role="graphics-symbol" aria-roledescription="axis" aria-label="Y-axis titled 'adjusted_p-value' for a linear scale with values from 0.0 to 1.0"><g transform="translate(0.5,0.5)"><path class="background" aria-hidden="true" d="M0,0h0v0h0Z" pointer-events="none"/><g><g class="mark-rule role-axis-tick" pointer-events="none"><line transform="translate(0,600)" x2="-5" y2="0" stroke="#888" stroke-width="1" opacity="1"/><line transform="translate(0,570)" x2="-5" y2="0" stroke="#888" stroke-width="1" opacity="1"/><line transform="translate(0,540)" x2="-5" y2="0" stroke="#888" stroke-width="1" opacity="1"/><line transform="translate(0,510)" x2="-5" y2="0" stroke="#888" stroke-width="1" opacity="1"/><line transform="translate(0,480)" x2="-5" y2="0" stroke="#888" stroke-width="1" opacity="1"/><line transform="translate(0,450)" x2="-5" y2="0" stroke="#888" stroke-width="1" opacity="1"/><line transform="translate(0,420)" x2="-5" y2="0" stroke="#888" stroke-width="1" opacity="1"/><line transform="translate(0,390)" x2="-5" y2="0" stroke="#888" stroke-width="1" opacity="1"/><line transform="translate(0,360)" x2="-5" y2="0" stroke="#888" stroke-width="1" opacity="1"/><line transform="translate(0,330)" x2="-5" y2="0" stroke="#888" stroke-width="1" opacity="1"/><line transform="translate(0,300)" x2="-5" y2="0" stroke="#888" stroke-width="1" opacity="1"/><line transform="translate(0,270)" x2="-5" y2="0" stroke="#888" stroke-width="1" opacity="1"/><line transform="translate(0,240)" x2="-5" y2="0" stroke="#888" stroke-width="1" opacity="1"/><line transform="translate(0,210)" x2="-5" y2="0" stroke="#888" stroke-width="1" opacity="1"/><line transform="translate(0,180)" x2="-5" y2="0" stroke="#888" stroke-width="1" opacity="1"/><line transform="translate(0,150)" x2="-5" y2="0" stroke="#888" stroke-width="1" opacity="1"/><line transform="translate(0,120)" x2="-5" y2="0" stroke="#888" stroke-width="1" opacity="1"/><line transform="translate(0,90)" x2="-5" y2="0" stroke="#888" stroke-width="1" opacity="1"/><line transform="translate(0,60)" x2="-5" y2="0" stroke="#888" stroke-width="1" opacity="1"/><line transform="translate(0,30)" x2="-5" y2="0" stroke="#888" stroke-width="1" opacity="1"/><line transform="translate(0,0)" x2="-5" y2="0" stroke="#888" stroke-width="1" opacity="1"/></g><g class="mark-text role-axis-label" pointer-events="none"><text text-anchor="end" transform="translate(-7,603)" font-family="sans-serif" font-size="10px" fill="#000" opacity="1">0.00</text><text text-anchor="end" transform="translate(-7,573)" font-family="sans-serif" font-size="10px" fill="#000" opacity="1">0.05</text><text text-anchor="end" transform="translate(-7,543)" font-family="sans-serif" font-size="10px" fill="#000" opacity="1">0.10</text><text text-anchor="end" transform="translate(-7,513)" font-family="sans-serif" font-size="10px" fill="#000" opacity="1">0.15</text><text text-anchor="end" transform="translate(-7,483)" font-family="sans-serif" font-size="10px" fill="#000" opacity="1">0.20</text><text text-anchor="end" transform="translate(-7,453)" font-family="sans-serif" font-size="10px" fill="#000" opacity="1">0.25</text><text text-anchor="end" transform="translate(-7,423)" font-family="sans-serif" font-size="10px" fill="#000" opacity="1">0.30</text><text text-anchor="end" transform="translate(-7,393)" font-family="sans-serif" font-size="10px" fill="#000" opacity="1">0.35</text><text text-anchor="end" transform="translate(-7,363)" font-family="sans-serif" font-size="10px" fill="#000" opacity="1">0.40</text><text text-anchor="end" transform="translate(-7,333)" font-family="sans-serif" font-size="10px" fill="#000" opacity="1">0.45</text><text text-anchor="end" transform="translate(-7,303)" font-family="sans-serif" font-size="10px" fill="#000" opacity="1">0.50</text><text text-anchor="end" transform="translate(-7,273)" font-family="sans-serif" font-size="10px" fill="#000" opacity="1">0.55</text><text text-anchor="end" transform="translate(-7,243)" font-family="sans-serif" font-size="10px" fill="#000" opacity="1">0.60</text><text text-anchor="end" transform="translate(-7,213)" font-family="sans-serif" font-size="10px" fill="#000" opacity="1">0.65</text><text text-anchor="end" transform="translate(-7,183.00000000000003)" font-family="sans-serif" font-size="10px" fill="#000" opacity="1">0.70</text><text text-anchor="end" transform="translate(-7,153)" font-family="sans-serif" font-size="10px" fill="#000" opacity="1">0.75</text><text text-anchor="end" transform="translate(-7,122.99999999999997)" font-family="sans-serif" font-size="10px" fill="#000" opacity="1">0.80</text><text text-anchor="end" transform="translate(-7,93.00000000000001)" font-family="sans-serif" font-size="10px" fill="#000" opacity="1">0.85</text><text text-anchor="end" transform="translate(-7,62.999999999999986)" font-family="sans-serif" font-size="10px" fill="#000" opacity="1">0.90</text><text text-anchor="end" transform="translate(-7,33.00000000000003)" font-family="sans-serif" font-size="10px" fill="#000" opacity="1">0.95</text><text text-anchor="end" transform="translate(-7,3)" font-family="sans-serif" font-size="10px" fill="#000" opacity="1">1.00</text></g><g class="mark-rule role-axis-domain" pointer-events="none"><line transform="translate(0,600)" x2="0" y2="-600" stroke="#888" stroke-width="1" opacity="1"/></g><g class="mark-text role-axis-title" pointer-events="none"><text text-anchor="middle" transform="translate(-30.462890625,300) rotate(-90) translate(0,-2)" font-family="sans-serif" font-size="11px" font-weight="bold" fill="#000" opacity="1">adjusted_p-value</text></g></g><path class="foreground" aria-hidden="true" d="" pointer-events="none" display="none"/></g></g><g class="mark-symbol role-mark marks" role="graphics-object" aria-roledescription="symbol mark container"><path aria-label="CodonSite: 1; adjusted_p-value: 1" role="graphics-symbol" aria-roledescription="point" transform="translate(8.88888888888889,0)" d="M2.739,0A2.739,2.739,0,1,1,-2.739,0A2.739,2.739,0,1,1,2.739,0" stroke="rgb(253, 201, 180)" stroke-width="2" opacity="0.7"/><path aria-label="CodonSite: 2; adjusted_p-value: 0.708860759494" role="graphics-symbol" aria-roledescription="point" transform="translate(17.77777777777778,174.68354430379748)" d="M2.739,0A2.739,2.739,0,1,1,-2.739,0A2.739,2.739,0,1,1,2.739,0" stroke="rgb(151, 11, 19)" stroke-width="2" opacity="0.7"/><path aria-label="CodonSite: 3; adjusted_p-value: 0.708860759494" role="graphics-symbol" aria-roledescription="point" transform="translate(26.666666666666668,174.68354430379748)" d="M2.739,0A2.739,2.739,0,1,1,-2.739,0A2.739,2.739,0,1,1,2.739,0" stroke="rgb(151, 11, 19)" stroke-width="2" opacity="0.7"/><path aria-label="CodonSite: 4; adjusted_p-value: 0.708860759494" role="graphics-symbol" aria-roledescription="point" transform="translate(35.55555555555556,174.68354430379748)" d="M2.739,0A2.739,2.739,0,1,1,-2.739,0A2.739,2.739,0,1,1,2.739,0" stroke="rgb(151, 11, 19)" stroke-width="2" opacity="0.7"/><path aria-label="CodonSite: 5; adjusted_p-value: 0.708860759494" role="graphics-symbol" aria-roledescription="point" transform="translate(44.44444444444444,174.68354430379748)" d="M2.739,0A2.739,2.739,0,1,1,-2.739,0A2.739,2.739,0,1,1,2.739,0" stroke="rgb(151, 11, 19)" stroke-width="2" opacity="0.7"/><path aria-label="CodonSite: 6; adjusted_p-value: 0.708860759494" role="graphics-symbol" aria-roledescription="point" transform="translate(53.333333333333336,174.68354430379748)" d="M2.739,0A2.739,2.739,0,1,1,-2.739,0A2.739,2.739,0,1,1,2.739,0" stroke="rgb(151, 11, 19)" stroke-width="2" opacity="0.7"/><path aria-label="CodonSite: 7; adjusted_p-value: 0.708860759494" role="graphics-symbol" aria-roledescription="point" transform="translate(62.22222222222222,174.68354430379748)" d="M2.739,0A2.739,2.739,0,1,1,-2.739,0A2.739,2.739,0,1,1,2.739,0" stroke="rgb(151, 11, 19)" stroke-width="2" opacity="0.7"/><path aria-label="CodonSite: 8; adjusted_p-value: 0.708860759494" role="graphics-symbol" aria-roledescription="point" transform="translate(71.11111111111111,174.68354430379748)" d="M2.739,0A2.739,2.739,0,1,1,-2.739,0A2.739,2.739,0,1,1,2.739,0" stroke="rgb(151, 11, 19)" stroke-width="2" opacity="0.7"/><path aria-label="CodonSite: 9; adjusted_p-value: 0.708860759494" role="graphics-symbol" aria-roledescription="point" transform="translate(80,174.68354430379748)" d="M2.739,0A2.739,2.739,0,1,1,-2.739,0A2.739,2.739,0,1,1,2.739,0" stroke="rgb(151, 11, 19)" stroke-width="2" opacity="0.7"/><path aria-label="CodonSite: 10; adjusted_p-value: 0.708860759494" role="graphics-symbol" aria-roledescription="point" transform="translate(88.88888888888889,174.68354430379748)" d="M2.739,0A2.739,2.739,0,1,1,-2.739,0A2.739,2.739,0,1,1,2.739,0" stroke="rgb(151, 11, 19)" stroke-width="2" opacity="0.7"/><path aria-label="CodonSite: 11; adjusted_p-value: 0.708860759494" role="graphics-symbol" aria-roledescription="point" transform="translate(97.77777777777777,174.68354430379748)" d="M2.739,0A2.739,2.739,0,1,1,-2.739,0A2.739,2.739,0,1,1,2.739,0" stroke="rgb(151, 11, 19)" stroke-width="2" opacity="0.7"/><path aria-label="CodonSite: 12; adjusted_p-value: 0.708860759494" role="graphics-symbol" aria-roledescription="point" transform="translate(106.66666666666667,174.68354430379748)" d="M2.739,0A2.739,2.739,0,1,1,-2.739,0A2.739,2.739,0,1,1,2.739,0" stroke="rgb(151, 11, 19)" stroke-width="2" opacity="0.7"/><path aria-label="CodonSite: 13; adjusted_p-value: 0.708860759494" role="graphics-symbol" aria-roledescription="point" transform="translate(115.55555555555554,174.68354430379748)" d="M2.739,0A2.739,2.739,0,1,1,-2.739,0A2.739,2.739,0,1,1,2.739,0" stroke="rgb(151, 11, 19)" stroke-width="2" opacity="0.7"/><path aria-label="CodonSite: 14; adjusted_p-value: 0.708860759494" role="graphics-symbol" aria-roledescription="point" transform="translate(124.44444444444444,174.68354430379748)" d="M2.739,0A2.739,2.739,0,1,1,-2.739,0A2.739,2.739,0,1,1,2.739,0" stroke="rgb(151, 11, 19)" stroke-width="2" opacity="0.7"/><path aria-label="CodonSite: 15; adjusted_p-value: 0.708860759494" role="graphics-symbol" aria-roledescription="point" transform="translate(133.33333333333331,174.68354430379748)" d="M2.739,0A2.739,2.739,0,1,1,-2.739,0A2.739,2.739,0,1,1,2.739,0" stroke="rgb(151, 11, 19)" stroke-width="2" opacity="0.7"/><path aria-label="CodonSite: 16; adjusted_p-value: 0.708860759494" role="graphics-symbol" aria-roledescription="point" transform="translate(142.22222222222223,174.68354430379748)" d="M2.739,0A2.739,2.739,0,1,1,-2.739,0A2.739,2.739,0,1,1,2.739,0" stroke="rgb(151, 11, 19)" stroke-width="2" opacity="0.7"/><path aria-label="CodonSite: 17; adjusted_p-value: 0.708860759494" role="graphics-symbol" aria-roledescription="point" transform="translate(151.11111111111111,174.68354430379748)" d="M2.739,0A2.739,2.739,0,1,1,-2.739,0A2.739,2.739,0,1,1,2.739,0" stroke="rgb(151, 11, 19)" stroke-width="2" opacity="0.7"/><path aria-label="CodonSite: 18; adjusted_p-value: 0.708860759494" role="graphics-symbol" aria-roledescription="point" transform="translate(160,174.68354430379748)" d="M2.739,0A2.739,2.739,0,1,1,-2.739,0A2.739,2.739,0,1,1,2.739,0" stroke="rgb(151, 11, 19)" stroke-width="2" opacity="0.7"/><path aria-label="CodonSite: 19; adjusted_p-value: 0.708860759494" role="graphics-symbol" aria-roledescription="point" transform="translate(168.88888888888889,174.68354430379748)" d="M2.739,0A2.739,2.739,0,1,1,-2.739,0A2.739,2.739,0,1,1,2.739,0" stroke="rgb(151, 11, 19)" stroke-width="2" opacity="0.7"/><path aria-label="CodonSite: 20; adjusted_p-value: 0.708860759494" role="graphics-symbol" aria-roledescription="point" transform="translate(177.77777777777777,174.68354430379748)" d="M2.739,0A2.739,2.739,0,1,1,-2.739,0A2.739,2.739,0,1,1,2.739,0" stroke="rgb(151, 11, 19)" stroke-width="2" opacity="0.7"/><path aria-label="CodonSite: 21; adjusted_p-value: 0.708860759494" role="graphics-symbol" aria-roledescription="point" transform="translate(186.66666666666666,174.68354430379748)" d="M2.739,0A2.739,2.739,0,1,1,-2.739,0A2.739,2.739,0,1,1,2.739,0" stroke="rgb(151, 11, 19)" stroke-width="2" opacity="0.7"/><path aria-label="CodonSite: 22; adjusted_p-value: 0.708860759494" role="graphics-symbol" aria-roledescription="point" transform="translate(195.55555555555554,174.68354430379748)" d="M2.739,0A2.739,2.739,0,1,1,-2.739,0A2.739,2.739,0,1,1,2.739,0" stroke="rgb(151, 11, 19)" stroke-width="2" opacity="0.7"/><path aria-label="CodonSite: 23; adjusted_p-value: 0.708860759494" role="graphics-symbol" aria-roledescription="point" transform="translate(204.44444444444443,174.68354430379748)" d="M2.739,0A2.739,2.739,0,1,1,-2.739,0A2.739,2.739,0,1,1,2.739,0" stroke="rgb(151, 11, 19)" stroke-width="2" opacity="0.7"/><path aria-label="CodonSite: 24; adjusted_p-value: 0.708860759494" role="graphics-symbol" aria-roledescription="point" transform="translate(213.33333333333334,174.68354430379748)" d="M2.739,0A2.739,2.739,0,1,1,-2.739,0A2.739,2.739,0,1,1,2.739,0" stroke="rgb(151, 11, 19)" stroke-width="2" opacity="0.7"/><path aria-label="CodonSite: 25; adjusted_p-value: 0.708860759494" role="graphics-symbol" aria-roledescription="point" transform="translate(222.22222222222223,174.68354430379748)" d="M2.739,0A2.739,2.739,0,1,1,-2.739,0A2.739,2.739,0,1,1,2.739,0" stroke="rgb(151, 11, 19)" stroke-width="2" opacity="0.7"/><path aria-label="CodonSite: 26; adjusted_p-value: 0.708860759494" role="graphics-symbol" aria-roledescription="point" transform="translate(231.1111111111111,174.68354430379748)" d="M2.739,0A2.739,2.739,0,1,1,-2.739,0A2.739,2.739,0,1,1,2.739,0" stroke="rgb(151, 11, 19)" stroke-width="2" opacity="0.7"/><path aria-label="CodonSite: 27; adjusted_p-value: 0.708860759494" role="graphics-symbol" aria-roledescription="point" transform="translate(240,174.68354430379748)" d="M2.739,0A2.739,2.739,0,1,1,-2.739,0A2.739,2.739,0,1,1,2.739,0" stroke="rgb(151, 11, 19)" stroke-width="2" opacity="0.7"/><path aria-label="CodonSite: 28; adjusted_p-value: 0.708860759494" role="graphics-symbol" aria-roledescription="point" transform="translate(248.88888888888889,174.68354430379748)" d="M2.739,0A2.739,2.739,0,1,1,-2.739,0A2.739,2.739,0,1,1,2.739,0" stroke="rgb(151, 11, 19)" stroke-width="2" opacity="0.7"/><path aria-label="CodonSite: 29; adjusted_p-value: 0.708860759494" role="graphics-symbol" aria-roledescription="point" transform="translate(257.77777777777777,174.68354430379748)" d="M2.739,0A2.739,2.739,0,1,1,-2.739,0A2.739,2.739,0,1,1,2.739,0" stroke="rgb(151, 11, 19)" stroke-width="2" opacity="0.7"/><path aria-label="CodonSite: 30; adjusted_p-value: 0.708860759494" role="graphics-symbol" aria-roledescription="point" transform="translate(266.66666666666663,174.68354430379748)" d="M2.739,0A2.739,2.739,0,1,1,-2.739,0A2.739,2.739,0,1,1,2.739,0" stroke="rgb(151, 11, 19)" stroke-width="2" opacity="0.7"/><path aria-label="CodonSite: 31; adjusted_p-value: 0.708860759494" role="graphics-symbol" aria-roledescription="point" transform="translate(275.55555555555554,174.68354430379748)" d="M2.739,0A2.739,2.739,0,1,1,-2.739,0A2.739,2.739,0,1,1,2.739,0" stroke="rgb(151, 11, 19)" stroke-width="2" opacity="0.7"/><path aria-label="CodonSite: 32; adjusted_p-value: 0.708860759494" role="graphics-symbol" aria-roledescription="point" transform="translate(284.44444444444446,174.68354430379748)" d="M2.739,0A2.739,2.739,0,1,1,-2.739,0A2.739,2.739,0,1,1,2.739,0" stroke="rgb(151, 11, 19)" stroke-width="2" opacity="0.7"/><path aria-label="CodonSite: 33; adjusted_p-value: 0.708860759494" role="graphics-symbol" aria-roledescription="point" transform="translate(293.3333333333333,174.68354430379748)" d="M2.739,0A2.739,2.739,0,1,1,-2.739,0A2.739,2.739,0,1,1,2.739,0" stroke="rgb(151, 11, 19)" stroke-width="2" opacity="0.7"/><path aria-label="CodonSite: 34; adjusted_p-value: 0.708860759494" role="graphics-symbol" aria-roledescription="point" transform="translate(302.22222222222223,174.68354430379748)" d="M2.739,0A2.739,2.739,0,1,1,-2.739,0A2.739,2.739,0,1,1,2.739,0" stroke="rgb(151, 11, 19)" stroke-width="2" opacity="0.7"/><path aria-label="CodonSite: 35; adjusted_p-value: 0.708860759494" role="graphics-symbol" aria-roledescription="point" transform="translate(311.11111111111114,174.68354430379748)" d="M2.739,0A2.739,2.739,0,1,1,-2.739,0A2.739,2.739,0,1,1,2.739,0" stroke="rgb(151, 11, 19)" stroke-width="2" opacity="0.7"/><path aria-label="CodonSite: 36; adjusted_p-value: 0.708860759494" role="graphics-symbol" aria-roledescription="point" transform="translate(320,174.68354430379748)" d="M2.739,0A2.739,2.739,0,1,1,-2.739,0A2.739,2.739,0,1,1,2.739,0" stroke="rgb(151, 11, 19)" stroke-width="2" opacity="0.7"/><path aria-label="CodonSite: 37; adjusted_p-value: 0.708860759494" role="graphics-symbol" aria-roledescription="point" transform="translate(328.88888888888886,174.68354430379748)" d="M2.739,0A2.739,2.739,0,1,1,-2.739,0A2.739,2.739,0,1,1,2.739,0" stroke="rgb(151, 11, 19)" stroke-width="2" opacity="0.7"/><path aria-label="CodonSite: 38; adjusted_p-value: 0.708860759494" role="graphics-symbol" aria-roledescription="point" transform="translate(337.77777777777777,174.68354430379748)" d="M2.739,0A2.739,2.739,0,1,1,-2.739,0A2.739,2.739,0,1,1,2.739,0" stroke="rgb(151, 11, 19)" stroke-width="2" opacity="0.7"/><path aria-label="CodonSite: 39; adjusted_p-value: 1" role="graphics-symbol" aria-roledescription="point" transform="translate(346.6666666666667,0)" d="M2.739,0A2.739,2.739,0,1,1,-2.739,0A2.739,2.739,0,1,1,2.739,0" stroke="rgb(253, 201, 180)" stroke-width="2" opacity="0.7"/><path aria-label="CodonSite: 40; adjusted_p-value: 0.708860759494" role="graphics-symbol" aria-roledescription="point" transform="translate(355.55555555555554,174.68354430379748)" d="M2.739,0A2.739,2.739,0,1,1,-2.739,0A2.739,2.739,0,1,1,2.739,0" stroke="rgb(151, 11, 19)" stroke-width="2" opacity="0.7"/><path aria-label="CodonSite: 41; adjusted_p-value: 0.708860759494" role="graphics-symbol" aria-roledescription="point" transform="translate(364.44444444444446,174.68354430379748)" d="M2.739,0A2.739,2.739,0,1,1,-2.739,0A2.739,2.739,0,1,1,2.739,0" stroke="rgb(151, 11, 19)" stroke-width="2" opacity="0.7"/><path aria-label="CodonSite: 42; adjusted_p-value: 0.708860759494" role="graphics-symbol" aria-roledescription="point" transform="translate(373.3333333333333,174.68354430379748)" d="M2.739,0A2.739,2.739,0,1,1,-2.739,0A2.739,2.739,0,1,1,2.739,0" stroke="rgb(151, 11, 19)" stroke-width="2" opacity="0.7"/><path aria-label="CodonSite: 43; adjusted_p-value: 0.708860759494" role="graphics-symbol" aria-roledescription="point" transform="translate(382.22222222222223,174.68354430379748)" d="M2.739,0A2.739,2.739,0,1,1,-2.739,0A2.739,2.739,0,1,1,2.739,0" stroke="rgb(151, 11, 19)" stroke-width="2" opacity="0.7"/><path aria-label="CodonSite: 44; adjusted_p-value: 0.708860759494" role="graphics-symbol" aria-roledescription="point" transform="translate(391.1111111111111,174.68354430379748)" d="M2.739,0A2.739,2.739,0,1,1,-2.739,0A2.739,2.739,0,1,1,2.739,0" stroke="rgb(151, 11, 19)" stroke-width="2" opacity="0.7"/><path aria-label="CodonSite: 45; adjusted_p-value: 0.708860759494" role="graphics-symbol" aria-roledescription="point" transform="translate(400,174.68354430379748)" d="M2.739,0A2.739,2.739,0,1,1,-2.739,0A2.739,2.739,0,1,1,2.739,0" stroke="rgb(151, 11, 19)" stroke-width="2" opacity="0.7"/><path aria-label="CodonSite: 46; adjusted_p-value: 0.708860759494" role="graphics-symbol" aria-roledescription="point" transform="translate(408.88888888888886,174.68354430379748)" d="M2.739,0A2.739,2.739,0,1,1,-2.739,0A2.739,2.739,0,1,1,2.739,0" stroke="rgb(151, 11, 19)" stroke-width="2" opacity="0.7"/><path aria-label="CodonSite: 47; adjusted_p-value: 0.708860759494" role="graphics-symbol" aria-roledescription="point" transform="translate(417.7777777777778,174.68354430379748)" d="M2.739,0A2.739,2.739,0,1,1,-2.739,0A2.739,2.739,0,1,1,2.739,0" stroke="rgb(151, 11, 19)" stroke-width="2" opacity="0.7"/><path aria-label="CodonSite: 48; adjusted_p-value: 1" role="graphics-symbol" aria-roledescription="point" transform="translate(426.6666666666667,0)" d="M2.739,0A2.739,2.739,0,1,1,-2.739,0A2.739,2.739,0,1,1,2.739,0" stroke="rgb(253, 201, 180)" stroke-width="2" opacity="0.7"/><path aria-label="CodonSite: 49; adjusted_p-value: 0.708860759494" role="graphics-symbol" aria-roledescription="point" transform="translate(435.55555555555554,174.68354430379748)" d="M2.739,0A2.739,2.739,0,1,1,-2.739,0A2.739,2.739,0,1,1,2.739,0" stroke="rgb(151, 11, 19)" stroke-width="2" opacity="0.7"/><path aria-label="CodonSite: 50; adjusted_p-value: 0.708860759494" role="graphics-symbol" aria-roledescription="point" transform="translate(444.44444444444446,174.68354430379748)" d="M2.739,0A2.739,2.739,0,1,1,-2.739,0A2.739,2.739,0,1,1,2.739,0" stroke="rgb(151, 11, 19)" stroke-width="2" opacity="0.7"/><path aria-label="CodonSite: 51; adjusted_p-value: 0.708860759494" role="graphics-symbol" aria-roledescription="point" transform="translate(453.3333333333333,174.68354430379748)" d="M2.739,0A2.739,2.739,0,1,1,-2.739,0A2.739,2.739,0,1,1,2.739,0" stroke="rgb(151, 11, 19)" stroke-width="2" opacity="0.7"/><path aria-label="CodonSite: 52; adjusted_p-value: 1" role="graphics-symbol" aria-roledescription="point" transform="translate(462.2222222222222,0)" d="M2.739,0A2.739,2.739,0,1,1,-2.739,0A2.739,2.739,0,1,1,2.739,0" stroke="rgb(253, 201, 180)" stroke-width="2" opacity="0.7"/><path aria-label="CodonSite: 53; adjusted_p-value: 0.708860759494" role="graphics-symbol" aria-roledescription="point" transform="translate(471.11111111111114,174.68354430379748)" d="M2.739,0A2.739,2.739,0,1,1,-2.739,0A2.739,2.739,0,1,1,2.739,0" stroke="rgb(151, 11, 19)" stroke-width="2" opacity="0.7"/><path aria-label="CodonSite: 54; adjusted_p-value: 0.708860759494" role="graphics-symbol" aria-roledescription="point" transform="translate(480,174.68354430379748)" d="M2.739,0A2.739,2.739,0,1,1,-2.739,0A2.739,2.739,0,1,1,2.739,0" stroke="rgb(151, 11, 19)" stroke-width="2" opacity="0.7"/><path aria-label="CodonSite: 55; adjusted_p-value: 0.708860759494" role="graphics-symbol" aria-roledescription="point" transform="translate(488.8888888888889,174.68354430379748)" d="M2.739,0A2.739,2.739,0,1,1,-2.739,0A2.739,2.739,0,1,1,2.739,0" stroke="rgb(151, 11, 19)" stroke-width="2" opacity="0.7"/><path aria-label="CodonSite: 56; adjusted_p-value: 0.708860759494" role="graphics-symbol" aria-roledescription="point" transform="translate(497.77777777777777,174.68354430379748)" d="M2.739,0A2.739,2.739,0,1,1,-2.739,0A2.739,2.739,0,1,1,2.739,0" stroke="rgb(151, 11, 19)" stroke-width="2" opacity="0.7"/><path aria-label="CodonSite: 57; adjusted_p-value: 0.708860759494" role="graphics-symbol" aria-roledescription="point" transform="translate(506.66666666666663,174.68354430379748)" d="M2.739,0A2.739,2.739,0,1,1,-2.739,0A2.739,2.739,0,1,1,2.739,0" stroke="rgb(151, 11, 19)" stroke-width="2" opacity="0.7"/><path aria-label="CodonSite: 58; adjusted_p-value: 0.708860759494" role="graphics-symbol" aria-roledescription="point" transform="translate(515.5555555555555,174.68354430379748)" d="M2.739,0A2.739,2.739,0,1,1,-2.739,0A2.739,2.739,0,1,1,2.739,0" stroke="rgb(151, 11, 19)" stroke-width="2" opacity="0.7"/><path aria-label="CodonSite: 59; adjusted_p-value: 0.708860759494" role="graphics-symbol" aria-roledescription="point" transform="translate(524.4444444444445,174.68354430379748)" d="M2.739,0A2.739,2.739,0,1,1,-2.739,0A2.739,2.739,0,1,1,2.739,0" stroke="rgb(151, 11, 19)" stroke-width="2" opacity="0.7"/><path aria-label="CodonSite: 60; adjusted_p-value: 0.708860759494" role="graphics-symbol" aria-roledescription="point" transform="translate(533.3333333333333,174.68354430379748)" d="M2.739,0A2.739,2.739,0,1,1,-2.739,0A2.739,2.739,0,1,1,2.739,0" stroke="rgb(151, 11, 19)" stroke-width="2" opacity="0.7"/><path aria-label="CodonSite: 61; adjusted_p-value: 0.708860759494" role="graphics-symbol" aria-roledescription="point" transform="translate(542.2222222222223,174.68354430379748)" d="M2.739,0A2.739,2.739,0,1,1,-2.739,0A2.739,2.739,0,1,1,2.739,0" stroke="rgb(151, 11, 19)" stroke-width="2" opacity="0.7"/><path aria-label="CodonSite: 62; adjusted_p-value: 0.708860759494" role="graphics-symbol" aria-roledescription="point" transform="translate(551.1111111111111,174.68354430379748)" d="M2.739,0A2.739,2.739,0,1,1,-2.739,0A2.739,2.739,0,1,1,2.739,0" stroke="rgb(151, 11, 19)" stroke-width="2" opacity="0.7"/><path aria-label="CodonSite: 63; adjusted_p-value: 0.708860759494" role="graphics-symbol" aria-roledescription="point" transform="translate(560,174.68354430379748)" d="M2.739,0A2.739,2.739,0,1,1,-2.739,0A2.739,2.739,0,1,1,2.739,0" stroke="rgb(151, 11, 19)" stroke-width="2" opacity="0.7"/><path aria-label="CodonSite: 64; adjusted_p-value: 0.708860759494" role="graphics-symbol" aria-roledescription="point" transform="translate(568.8888888888889,174.68354430379748)" d="M2.739,0A2.739,2.739,0,1,1,-2.739,0A2.739,2.739,0,1,1,2.739,0" stroke="rgb(151, 11, 19)" stroke-width="2" opacity="0.7"/><path aria-label="CodonSite: 65; adjusted_p-value: 0.708860759494" role="graphics-symbol" aria-roledescription="point" transform="translate(577.7777777777777,174.68354430379748)" d="M2.739,0A2.739,2.739,0,1,1,-2.739,0A2.739,2.739,0,1,1,2.739,0" stroke="rgb(151, 11, 19)" stroke-width="2" opacity="0.7"/><path aria-label="CodonSite: 66; adjusted_p-value: 0.708860759494" role="graphics-symbol" aria-roledescription="point" transform="translate(586.6666666666666,174.68354430379748)" d="M2.739,0A2.739,2.739,0,1,1,-2.739,0A2.739,2.739,0,1,1,2.739,0" stroke="rgb(151, 11, 19)" stroke-width="2" opacity="0.7"/><path aria-label="CodonSite: 67; adjusted_p-value: 1" role="graphics-symbol" aria-roledescription="point" transform="translate(595.5555555555555,0)" d="M2.739,0A2.739,2.739,0,1,1,-2.739,0A2.739,2.739,0,1,1,2.739,0" stroke="rgb(253, 201, 180)" stroke-width="2" opacity="0.7"/><path aria-label="CodonSite: 68; adjusted_p-value: 0.708860759494" role="graphics-symbol" aria-roledescription="point" transform="translate(604.4444444444445,174.68354430379748)" d="M2.739,0A2.739,2.739,0,1,1,-2.739,0A2.739,2.739,0,1,1,2.739,0" stroke="rgb(151, 11, 19)" stroke-width="2" opacity="0.7"/><path aria-label="CodonSite: 69; adjusted_p-value: 0.708860759494" role="graphics-symbol" aria-roledescription="point" transform="translate(613.3333333333334,174.68354430379748)" d="M2.739,0A2.739,2.739,0,1,1,-2.739,0A2.739,2.739,0,1,1,2.739,0" stroke="rgb(151, 11, 19)" stroke-width="2" opacity="0.7"/><path aria-label="CodonSite: 70; adjusted_p-value: 0.708860759494" role="graphics-symbol" aria-roledescription="point" transform="translate(622.2222222222223,174.68354430379748)" d="M2.739,0A2.739,2.739,0,1,1,-2.739,0A2.739,2.739,0,1,1,2.739,0" stroke="rgb(151, 11, 19)" stroke-width="2" opacity="0.7"/><path aria-label="CodonSite: 71; adjusted_p-value: 0.708860759494" role="graphics-symbol" aria-roledescription="point" transform="translate(631.1111111111111,174.68354430379748)" d="M2.739,0A2.739,2.739,0,1,1,-2.739,0A2.739,2.739,0,1,1,2.739,0" stroke="rgb(151, 11, 19)" stroke-width="2" opacity="0.7"/><path aria-label="CodonSite: 72; adjusted_p-value: 0.708860759494" role="graphics-symbol" aria-roledescription="point" transform="translate(640,174.68354430379748)" d="M2.739,0A2.739,2.739,0,1,1,-2.739,0A2.739,2.739,0,1,1,2.739,0" stroke="rgb(151, 11, 19)" stroke-width="2" opacity="0.7"/><path aria-label="CodonSite: 73; adjusted_p-value: 0.708860759494" role="graphics-symbol" aria-roledescription="point" transform="translate(648.8888888888889,174.68354430379748)" d="M2.739,0A2.739,2.739,0,1,1,-2.739,0A2.739,2.739,0,1,1,2.739,0" stroke="rgb(151, 11, 19)" stroke-width="2" opacity="0.7"/><path aria-label="CodonSite: 74; adjusted_p-value: 0.708860759494" role="graphics-symbol" aria-roledescription="point" transform="translate(657.7777777777777,174.68354430379748)" d="M2.739,0A2.739,2.739,0,1,1,-2.739,0A2.739,2.739,0,1,1,2.739,0" stroke="rgb(151, 11, 19)" stroke-width="2" opacity="0.7"/><path aria-label="CodonSite: 75; adjusted_p-value: 0.708860759494" role="graphics-symbol" aria-roledescription="point" transform="translate(666.6666666666667,174.68354430379748)" d="M2.739,0A2.739,2.739,0,1,1,-2.739,0A2.739,2.739,0,1,1,2.739,0" stroke="rgb(151, 11, 19)" stroke-width="2" opacity="0.7"/><path aria-label="CodonSite: 76; adjusted_p-value: 0.708860759494" role="graphics-symbol" aria-roledescription="point" transform="translate(675.5555555555555,174.68354430379748)" d="M2.739,0A2.739,2.739,0,1,1,-2.739,0A2.739,2.739,0,1,1,2.739,0" stroke="rgb(151, 11, 19)" stroke-width="2" opacity="0.7"/><path aria-label="CodonSite: 77; adjusted_p-value: 0.708860759494" role="graphics-symbol" aria-roledescription="point" transform="translate(684.4444444444445,174.68354430379748)" d="M2.739,0A2.739,2.739,0,1,1,-2.739,0A2.739,2.739,0,1,1,2.739,0" stroke="rgb(151, 11, 19)" stroke-width="2" opacity="0.7"/><path aria-label="CodonSite: 78; adjusted_p-value: 0.708860759494" role="graphics-symbol" aria-roledescription="point" transform="translate(693.3333333333334,174.68354430379748)" d="M2.739,0A2.739,2.739,0,1,1,-2.739,0A2.739,2.739,0,1,1,2.739,0" stroke="rgb(151, 11, 19)" stroke-width="2" opacity="0.7"/><path aria-label="CodonSite: 79; adjusted_p-value: 0.708860759494" role="graphics-symbol" aria-roledescription="point" transform="translate(702.2222222222222,174.68354430379748)" d="M2.739,0A2.739,2.739,0,1,1,-2.739,0A2.739,2.739,0,1,1,2.739,0" stroke="rgb(151, 11, 19)" stroke-width="2" opacity="0.7"/><path aria-label="CodonSite: 80; adjusted_p-value: 0.708860759494" role="graphics-symbol" aria-roledescription="point" transform="translate(711.1111111111111,174.68354430379748)" d="M2.739,0A2.739,2.739,0,1,1,-2.739,0A2.739,2.739,0,1,1,2.739,0" stroke="rgb(151, 11, 19)" stroke-width="2" opacity="0.7"/><path aria-label="CodonSite: 81; adjusted_p-value: 0.708860759494" role="graphics-symbol" aria-roledescription="point" transform="translate(720,174.68354430379748)" d="M2.739,0A2.739,2.739,0,1,1,-2.739,0A2.739,2.739,0,1,1,2.739,0" stroke="rgb(151, 11, 19)" stroke-width="2" opacity="0.7"/><path aria-label="CodonSite: 82; adjusted_p-value: 0.708860759494" role="graphics-symbol" aria-roledescription="point" transform="translate(728.8888888888889,174.68354430379748)" d="M2.739,0A2.739,2.739,0,1,1,-2.739,0A2.739,2.739,0,1,1,2.739,0" stroke="rgb(151, 11, 19)" stroke-width="2" opacity="0.7"/><path aria-label="CodonSite: 83; adjusted_p-value: 0.708860759494" role="graphics-symbol" aria-roledescription="point" transform="translate(737.7777777777778,174.68354430379748)" d="M2.739,0A2.739,2.739,0,1,1,-2.739,0A2.739,2.739,0,1,1,2.739,0" stroke="rgb(151, 11, 19)" stroke-width="2" opacity="0.7"/><path aria-label="CodonSite: 84; adjusted_p-value: 0.708860759494" role="graphics-symbol" aria-roledescription="point" transform="translate(746.6666666666666,174.68354430379748)" d="M2.739,0A2.739,2.739,0,1,1,-2.739,0A2.739,2.739,0,1,1,2.739,0" stroke="rgb(151, 11, 19)" stroke-width="2" opacity="0.7"/></g><g class="mark-group role-legend" role="graphics-symbol" aria-roledescription="legend" aria-label="Gradient legend titled 'adjusted_p-value' for stroke color with values from 0.71 to 1.00"><g transform="translate(818,0)"><path class="background" aria-hidden="true" d="M0,0h90v216h-90Z" pointer-events="none"/><g><g class="mark-group role-legend-entry"><g transform="translate(0,16)"><path class="background" aria-hidden="true" d="M0,0h0v0h0Z" pointer-events="none"/><g><g class="mark-rect role-legend-gradient" pointer-events="none"><path d="M0,0h16v200h-16Z" fill="url(#gradient_0)" stroke="#ddd" stroke-width="0" opacity="0.7"/></g><g class="mark-text role-legend-label" pointer-events="none"><text text-anchor="start" transform="translate(18,140.39130434782604)" font-family="sans-serif" font-size="10px" fill="#000" opacity="1">0.8</text><text text-anchor="start" transform="translate(18,71.69565217391302)" font-family="sans-serif" font-size="10px" fill="#000" opacity="1">0.9</text><text text-anchor="start" transform="translate(18,8)" font-family="sans-serif" font-size="10px" fill="#000" opacity="1">1.0</text></g></g><path class="foreground" aria-hidden="true" d="" pointer-events="none" display="none"/></g></g><g class="mark-text role-legend-title" pointer-events="none"><text text-anchor="start" transform="translate(0,9)" font-family="sans-serif" font-size="11px" font-weight="bold" fill="#000" opacity="1">adjusted_p-value</text></g></g><path class="foreground" aria-hidden="true" d="" pointer-events="none" display="none"/></g></g></g><path class="foreground" aria-hidden="true" d="" display="none"/></g></g></g><defs><linearGradient id="gradient_0" x1="0" x2="0" y1="1" y2="0"><stop offset="0" stop-color="rgb(151, 11, 19)"/><stop offset="0.03826086956521729" stop-color="rgb(161, 14, 21)"/><stop offset="0.1069565217391304" stop-color="rgb(180, 19, 24)"/><stop offset="0.1756521739130435" stop-color="rgb(195, 25, 28)"/><stop offset="0.2443478260869566" stop-color="rgb(209, 34, 33)"/><stop offset="0.3130434782608697" stop-color="rgb(222, 45, 38)"/><stop offset="0.3817391304347824" stop-color="rgb(233, 59, 45)"/><stop offset="0.4504347826086955" stop-color="rgb(241, 75, 55)"/><stop offset="0.5191304347826087" stop-color="rgb(247, 92, 66)"/><stop offset="0.5878260869565217" stop-color="rgb(250, 109, 79)"/><stop offset="0.6565217391304349" stop-color="rgb(251, 125, 93)"/><stop offset="0.7252173913043479" stop-color="rgb(252, 141, 109)"/><stop offset="0.7939130434782606" stop-color="rgb(252, 157, 126)"/><stop offset="0.8626086956521738" stop-color="rgb(252, 172, 144)"/><stop offset="0.9313043478260868" stop-color="rgb(252, 187, 162)"/><stop offset="1" stop-color="rgb(253, 201, 180)"/></linearGradient></defs></svg>