<svg xmlns="http://www.w3.org/2000/svg" xmlns:xlink="http://www.w3.org/1999/xlink" version="1.1" class="marks" width="960" height="647" viewBox="0 0 960 647"><rect width="960" height="647" fill="white"/><g fill="none" stroke-miterlimit="10" transform="translate(47,10)"><g class="mark-group role-frame root" role="graphics-object" aria-roledescription="group mark container"><g transform="translate(0,0)"><path class="background" aria-hidden="true" d="M0.5,0.5h800v600h-800Z" stroke="#ddd"/><g><g class="mark-group role-axis" aria-hidden="true"><g transform="translate(0.5,600.5)"><path class="background" aria-hidden="true" d="M0,0h0v0h0Z" pointer-events="none"/><g><g class="mark-rule role-axis-grid" pointer-events="none"><line transform="translate(0,-600)" x2="0" y2="600" stroke="#ddd" stroke-width="1" opacity="1"/><line transform="translate(36,-600)" x2="0" y2="600" stroke="#ddd" stroke-width="1" opacity="1"/><line transform="translate(73,-600)" x2="0" y2="600" stroke="#ddd" stroke-width="1" opacity="1"/><line transform="translate(109,-600)" x2="0" y2="600" stroke="#ddd" stroke-width="1" opacity="1"/><line transform="translate(145,-600)" x2="0" y2="600" stroke="#ddd" stroke-width="1" opacity="1"/><line transform="translate(182,-600)" x2="0" y2="600" stroke="#ddd" stroke-width="1" opacity="1"/><line transform="translate(218,-600)" x2="0" y2="600" stroke="#ddd" stroke-width="1" opacity="1"/><line transform="translate(255,-600)" x2="0" y2="600" stroke="#ddd" stroke-width="1" opacity="1"/><line transform="translate(291,-600)" x2="0" y2="600" stroke="#ddd" stroke-width="1" opacity="1"/><line transform="translate(327,-600)" x2="0" y2="600" stroke="#ddd" stroke-width="1" opacity="1"/><line transform="translate(364,-600)" x2="0" y2="600" stroke="#ddd" stroke-width="1" opacity="1"/><line transform="translate(400,-600)" x2="0" y2="600" stroke="#ddd" stroke-width="1" opacity="1"/><line transform="translate(436,-600)" x2="0" y2="600" stroke="#ddd" stroke-width="1" opacity="1"/><line transform="translate(473,-600)" x2="0" y2="600" stroke="#ddd" stroke-width="1" opacity="1"/><line transform="translate(509,-600)" x2="0" y2="600" stroke="#ddd" stroke-width="1" opacity="1"/><line transform="translate(545,-600)" x2="0" y2="600" stroke="#ddd" stroke-width="1" opacity="1"/><line transform="translate(582,-600)" x2="0" y2="600" stroke="#ddd" stroke-width="1" opacity="1"/><line transform="translate(618,-600)" x2="0" y2="600" stroke="#ddd" stroke-width="1" opacity="1"/><line transform="translate(655,-600)" x2="0" y2="600" stroke="#ddd" stroke-width="1" opacity="1"/><line transform="translate(691,-600)" x2="0" y2="600" stroke="#ddd" stroke-width="1" opacity="1"/><line transform="translate(727,-600)" x2="0" y2="600" stroke="#ddd" stroke-width="1" opacity="1"/><line transform="translate(764,-600)" x2="0" y2="600" stroke="#ddd" stroke-width="1" opacity="1"/><line transform="translate(800,-600)" x2="0" y2="600" stroke="#ddd" stroke-width="1" opacity="1"/></g></g><path class="foreground" aria-hidden="true" d="" pointer-events="none" display="none"/></g></g><g class="mark-group role-axis" aria-hidden="true"><g transform="translate(0.5,0.5)"><path class="background" aria-hidden="true" d="M0,0h0v0h0Z" pointer-events="none"/><g><g class="mark-rule role-axis-grid" pointer-events="none"><line transform="translate(0,600)" x2="800" y2="0" stroke="#ddd" stroke-width="1" opacity="1"/><line transform="translate(0,570)" x2="800" y2="0" stroke="#ddd" stroke-width="1" opacity="1"/><line transform="translate(0,540)" x2="800" y2="0" stroke="#ddd" stroke-width="1" opacity="1"/><line transform="translate(0,510)" x2="800" y2="0" stroke="#ddd" stroke-width="1" opacity="1"/><line transform="translate(0,480)" x2="800" y2="0" stroke="#ddd" stroke-width="1" opacity="1"/><line transform="translate(0,450)" x2="800" y2="0" stroke="#ddd" stroke-width="1" opacity="1"/><line transform="translate(0,420)" x2="800" y2="0" stroke="#ddd" stroke-width="1" opacity="1"/><line transform="translate(0,390)" x2="800" y2="0" stroke="#ddd" stroke-width="1" opacity="1"/><line transform="translate(0,360)" x2="800" y2="0" stroke="#ddd" stroke-width="1" opacity="1"/><line transform="translate(0,330)" x2="800" y2="0" stroke="#ddd" stroke-width="1" opacity="1"/><line transform="translate(0,300)" x2="800" y2="0" stroke="#ddd" stroke-width="1" opacity="1"/><line transform="translate(0,270)" x2="800" y2="0" stroke="#ddd" stroke-width="1" opacity="1"/><line transform="translate(0,240)" x2="800" y2="0" stroke="#ddd" stroke-width="1" opacity="1"/><line transform="translate(0,210)" x2="800" y2="0" stroke="#ddd" stroke-width="1" opacity="1"/><line transform="translate(0,180)" x2="800" y2="0" stroke="#ddd" stroke-width="1" opacity="1"/><line transform="translate(0,150)" x2="800" y2="0" stroke="#ddd" stroke-width="1" opacity="1"/><line transform="translate(0,120)" x2="800" y2="0" stroke="#ddd" stroke-width="1" opacity="1"/><line transform="translate(0,90)" x2="800" y2="0" stroke="#ddd" stroke-width="1" opacity="1"/><line transform="translate(0,60)" x2="800" y2="0" stroke="#ddd" stroke-width="1" opacity="1"/><line transform="translate(0,30)" x2="800" y2="0" stroke="#ddd" stroke-width="1" opacity="1"/><line transform="translate(0,0)" x2="800" y2="0" stroke="#ddd" stroke-width="1" opacity="1"/></g></g><path class="foreground" aria-hidden="true" d="" pointer-events="none" display="none"/></g></g><g class="mark-group role-axis" role="graphics-symbol" aria-roledescription="axis" aria-label="X-axis titled 'CodonSite' for a linear scale with values from 0 to 110"><g transform="translate(0.5,600.5)"><path class="background" aria-hidden="true" d="M0,0h0v0h0Z" pointer-events="none"/><g><g class="mark-rule role-axis-tick" pointer-events="none"><line transform="translate(0,0)" x2="0" y2="5" stroke="#888" stroke-width="1" opacity="1"/><line transform="translate(36,0)" x2="0" y2="5" stroke="#888" stroke-width="1" opacity="1"/><line transform="translate(73,0)" x2="0" y2="5" stroke="#888" stroke-width="1" opacity="1"/><line transform="translate(109,0)" x2="0" y2="5" stroke="#888" stroke-width="1" opacity="1"/><line transform="translate(145,0)" x2="0" y2="5" stroke="#888" stroke-width="1" opacity="1"/><line transform="translate(182,0)" x2="0" y2="5" stroke="#888" stroke-width="1" opacity="1"/><line transform="translate(218,0)" x2="0" y2="5" stroke="#888" stroke-width="1" opacity="1"/><line transform="translate(255,0)" x2="0" y2="5" stroke="#888" stroke-width="1" opacity="1"/><line transform="translate(291,0)" x2="0" y2="5" stroke="#888" stroke-width="1" opacity="1"/><line transform="translate(327,0)" x2="0" y2="5" stroke="#888" stroke-width="1" opacity="1"/><line transform="translate(364,0)" x2="0" y2="5" stroke="#888" stroke-width="1" opacity="1"/><line transform="translate(400,0)" x2="0" y2="5" stroke="#888" stroke-width="1" opacity="1"/><line transform="translate(436,0)" x2="0" y2="5" stroke="#888" stroke-width="1" opacity="1"/><line transform="translate(473,0)" x2="0" y2="5" stroke="#888" stroke-width="1" opacity="1"/><line transform="translate(509,0)" x2="0" y2="5" stroke="#888" stroke-width="1" opacity="1"/><line transform="translate(545,0)" x2="0" y2="5" stroke="#888" stroke-width="1" opacity="1"/><line transform="translate(582,0)" x2="0" y2="5" stroke="#888" stroke-width="1" opacity="1"/><line transform="translate(618,0)" x2="0" y2="5" stroke="#888" stroke-width="1" opacity="1"/><line transform="translate(655,0)" x2="0" y2="5" stroke="#888" stroke-width="1" opacity="1"/><line transform="translate(691,0)" x2="0" y2="5" stroke="#888" stroke-width="1" opacity="1"/><line transform="translate(727,0)" x2="0" y2="5" stroke="#888" stroke-width="1" opacity="1"/><line transform="translate(764,0)" x2="0" y2="5" stroke="#888" stroke-width="1" opacity="1"/><line transform="translate(800,0)" x2="0" y2="5" stroke="#888" stroke-width="1" opacity="1"/></g><g class="mark-text role-axis-label" pointer-events="none"><text text-anchor="start" transform="translate(0,15)" font-family="sans-serif" font-size="10px" fill="#000" opacity="1">0</text><text text-anchor="middle" transform="translate(36.36363636363637,15)" font-family="sans-serif" font-size="10px" fill="#000" opacity="1">5</text><text text-anchor="middle" transform="translate(72.72727272727273,15)" font-family="sans-serif" font-size="10px" fill="#000" opacity="1">10</text><text text-anchor="middle" transform="translate(109.09090909090908,15)" font-family="sans-serif" font-size="10px" fill="#000" opacity="1">15</text><text text-anchor="middle" transform="translate(145.45454545454547,15)" font-family="sans-serif" font-size="10px" fill="#000" opacity="1">20</text><text text-anchor="middle" transform="translate(181.8181818181818,15)" font-family="sans-serif" font-size="10px" fill="#000" opacity="1">25</text><text text-anchor="middle" transform="translate(218.18181818181816,15)" font-family="sans-serif" font-size="10px" fill="#000" opacity="1">30</text><text text-anchor="middle" transform="translate(254.54545454545453,15)" font-family="sans-serif" font-size="10px" fill="#000" opacity="1">35</text><text text-anchor="middle" transform="translate(290.90909090909093,15)" font-family="sans-serif" font-size="10px" fill="#000" opacity="1">40</text><text text-anchor="middle" transform="translate(327.2727272727273,15)" font-family="sans-serif" font-size="10px" fill="#000" opacity="1">45</text><text text-anchor="middle" transform="translate(363.6363636363636,15)" font-family="sans-serif" font-size="10px" fill="#000" opacity="1">50</text><text text-anchor="middle" transform="translate(400,15)" font-family="sans-serif" font-size="10px" fill="#000" opacity="1">55</text><text text-anchor="middle" transform="translate(436.3636363636363,15)" font-family="sans-serif" font-size="10px" fill="#000" opacity="1">60</text><text text-anchor="middle" transform="translate(472.72727272727275,15)" font-family="sans-serif" font-size="10px" fill="#000" opacity="1">65</text><text text-anchor="middle" transform="translate(509.09090909090907,15)" font-family="sans-serif" font-size="10px" fill="#000" opacity="1">70</text><text text-anchor="middle" transform="translate(545.4545454545454,15)" font-family="sans-serif" font-size="10px" fill="#000" opacity="1">75</text><text text-anchor="middle" transform="translate(581.8181818181819,15)" font-family="sans-serif" font-size="10px" fill="#000" opacity="1">80</text><text text-anchor="middle" transform="translate(618.1818181818181,15)" font-family="sans-serif" font-size="10px" fill="#000" opacity="1">85</text><text text-anchor="middle" transform="translate(654.5454545454546,15)" font-family="sans-serif" font-size="10px" fill="#000" opacity="1">90</text><text text-anchor="middle" transform="translate(690.9090909090909,15)" font-family="sans-serif" font-size="10px" fill="#000" opacity="1">95</text><text text-anchor="middle" transform="translate(727.2727272727273,15)" font-family="sans-serif" font-size="10px" fill="#000" opacity="1">100</text><text text-anchor="middle" transform="translate(763.6363636363636,15)" font-family="sans-serif" font-size="10px" fill="#000" opacity="1">105</text><text text-anchor="end" transform="translate(800,15)" font-family="sans-serif" font-size="10px" fill="#000" opacity="1">110</text></g><g class="mark-rule role-axis-domain" pointer-events="none"><line transform="translate(0,0)" x2="800" y2="0" stroke="#888" stroke-width="1" opacity="1"/></g><g class="mark-text role-axis-title" pointer-events="none"><text text-anchor="middle" transform="translate(400,30)" font-family="sans-serif" font-size="11px" font-weight="bold" fill="#000" opacity="1">CodonSite</text></g></g><path class="foreground" aria-hidden="true" d="" pointer-events="none" display="none"/></g></g><g class="mark-group role-axis" role="graphics-symbol" aria-roledescription="axis" aria-label="Y-axis titled 'adjusted_p-value' for a linear scale with values from 0.0 to 1.0"><g transform="translate(0.5,0.5)"><path class="background" aria-hidden="true" d="M0,0h0v0h0Z" pointer-events="none"/><g><g class="mark-rule role-axis-tick" pointer-events="none"><line transform="translate(0,600)" x2="-5" y2="0" stroke="#888" stroke-width="1" opacity="1"/><line transform="translate(0,570)" x2="-5" y2="0" stroke="#888" stroke-width="1" opacity="1"/><line transform="translate(0,540)" x2="-5" y2="0" stroke="#888" stroke-width="1" opacity="1"/><line transform="translate(0,510)" x2="-5" y2="0" stroke="#888" stroke-width="1" opacity="1"/><line transform="translate(0,480)" x2="-5" y2="0" stroke="#888" stroke-width="1" opacity="1"/><line transform="translate(0,450)" x2="-5" y2="0" stroke="#888" stroke-width="1" opacity="1"/><line transform="translate(0,420)" x2="-5" y2="0" stroke="#888" stroke-width="1" opacity="1"/><line transform="translate(0,390)" x2="-5" y2="0" stroke="#888" stroke-width="1" opacity="1"/><line transform="translate(0,360)" x2="-5" y2="0" stroke="#888" stroke-width="1" opacity="1"/><line transform="translate(0,330)" x2="-5" y2="0" stroke="#888" stroke-width="1" opacity="1"/><line transform="translate(0,300)" x2="-5" y2="0" stroke="#888" stroke-width="1" opacity="1"/><line transform="translate(0,270)" x2="-5" y2="0" stroke="#888" stroke-width="1" opacity="1"/><line transform="translate(0,240)" x2="-5" y2="0" stroke="#888" stroke-width="1" opacity="1"/><line transform="translate(0,210)" x2="-5" y2="0" stroke="#888" stroke-width="1" opacity="1"/><line transform="translate(0,180)" x2="-5" y2="0" stroke="#888" stroke-width="1" opacity="1"/><line transform="translate(0,150)" x2="-5" y2="0" stroke="#888" stroke-width="1" opacity="1"/><line transform="translate(0,120)" x2="-5" y2="0" stroke="#888" stroke-width="1" opacity="1"/><line transform="translate(0,90)" x2="-5" y2="0" stroke="#888" stroke-width="1" opacity="1"/><line transform="translate(0,60)" x2="-5" y2="0" stroke="#888" stroke-width="1" opacity="1"/><line transform="translate(0,30)" x2="-5" y2="0" stroke="#888" stroke-width="1" opacity="1"/><line transform="translate(0,0)" x2="-5" y2="0" stroke="#888" stroke-width="1" opacity="1"/></g><g class="mark-text role-axis-label" pointer-events="none"><text text-anchor="end" transform="translate(-7,603)" font-family="sans-serif" font-size="10px" fill="#000" opacity="1">0.00</text><text text-anchor="end" transform="translate(-7,573)" font-family="sans-serif" font-size="10px" fill="#000" opacity="1">0.05</text><text text-anchor="end" transform="translate(-7,543)" font-family="sans-serif" font-size="10px" fill="#000" opacity="1">0.10</text><text text-anchor="end" transform="translate(-7,513)" font-family="sans-serif" font-size="10px" fill="#000" opacity="1">0.15</text><text text-anchor="end" transform="translate(-7,483)" font-family="sans-serif" font-size="10px" fill="#000" opacity="1">0.20</text><text text-anchor="end" transform="translate(-7,453)" font-family="sans-serif" font-size="10px" fill="#000" opacity="1">0.25</text><text text-anchor="end" transform="translate(-7,423)" font-family="sans-serif" font-size="10px" fill="#000" opacity="1">0.30</text><text text-anchor="end" transform="translate(-7,393)" font-family="sans-serif" font-size="10px" fill="#000" opacity="1">0.35</text><text text-anchor="end" transform="translate(-7,363)" font-family="sans-serif" font-size="10px" fill="#000" opacity="1">0.40</text><text text-anchor="end" transform="translate(-7,333)" font-family="sans-serif" font-size="10px" fill="#000" opacity="1">0.45</text><text text-anchor="end" transform="translate(-7,303)" font-family="sans-serif" font-size="10px" fill="#000" opacity="1">0.50</text><text text-anchor="end" transform="translate(-7,273)" font-family="sans-serif" font-size="10px" fill="#000" opacity="1">0.55</text><text text-anchor="end" transform="translate(-7,243)" font-family="sans-serif" font-size="10px" fill="#000" opacity="1">0.60</text><text text-anchor="end" transform="translate(-7,213)" font-family="sans-serif" font-size="10px" fill="#000" opacity="1">0.65</text><text text-anchor="end" transform="translate(-7,183.00000000000003)" font-family="sans-serif" font-size="10px" fill="#000" opacity="1">0.70</text><text text-anchor="end" transform="translate(-7,153)" font-family="sans-serif" font-size="10px" fill="#000" opacity="1">0.75</text><text text-anchor="end" transform="translate(-7,122.99999999999997)" font-family="sans-serif" font-size="10px" fill="#000" opacity="1">0.80</text><text text-anchor="end" transform="translate(-7,93.00000000000001)" font-family="sans-serif" font-size="10px" fill="#000" opacity="1">0.85</text><text text-anchor="end" transform="translate(-7,62.999999999999986)" font-family="sans-serif" font-size="10px" fill="#000" opacity="1">0.90</text><text text-anchor="end" transform="translate(-7,33.00000000000003)" font-family="sans-serif" font-size="10px" fill="#000" opacity="1">0.95</text><text text-anchor="end" transform="translate(-7,3)" font-family="sans-serif" font-size="10px" fill="#000" opacity="1">1.00</text></g><g class="mark-rule role-axis-domain" pointer-events="none"><line transform="translate(0,600)" x2="0" y2="-600" stroke="#888" stroke-width="1" opacity="1"/></g><g class="mark-text role-axis-title" pointer-events="none"><text text-anchor="middle" transform="translate(-30.462890625,300) rotate(-90) translate(0,-2)" font-family="sans-serif" font-size="11px" font-weight="bold" fill="#000" opacity="1">adjusted_p-value</text></g></g><path class="foreground" aria-hidden="true" d="" pointer-events="none" display="none"/></g></g><g class="mark-symbol role-mark marks" role="graphics-object" aria-roledescription="symbol mark container"><path aria-label="CodonSite: 1; adjusted_p-value: 1" role="graphics-symbol" aria-roledescription="point" transform="translate(7.2727272727272725,0)" d="M2.739,0A2.739,2.739,0,1,1,-2.739,0A2.739,2.739,0,1,1,2.739,0" stroke="rgb(253, 201, 180)" stroke-width="2" opacity="0.7"/><path aria-label="CodonSite: 2; adjusted_p-value: 1" role="graphics-symbol" aria-roledescription="point" transform="translate(14.545454545454545,0)" d="M2.739,0A2.739,2.739,0,1,1,-2.739,0A2.739,2.739,0,1,1,2.739,0" stroke="rgb(253, 201, 180)" stroke-width="2" opacity="0.7"/><path aria-label="CodonSite: 3; adjusted_p-value: 1" role="graphics-symbol" aria-roledescription="point" transform="translate(21.818181818181817,0)" d="M2.739,0A2.739,2.739,0,1,1,-2.739,0A2.739,2.739,0,1,1,2.739,0" stroke="rgb(253, 201, 180)" stroke-width="2" opacity="0.7"/><path aria-label="CodonSite: 4; adjusted_p-value: 1" role="graphics-symbol" aria-roledescription="point" transform="translate(29.09090909090909,0)" d="M2.739,0A2.739,2.739,0,1,1,-2.739,0A2.739,2.739,0,1,1,2.739,0" stroke="rgb(253, 201, 180)" stroke-width="2" opacity="0.7"/><path aria-label="CodonSite: 5; adjusted_p-value: 1" role="graphics-symbol" aria-roledescription="point" transform="translate(36.36363636363637,0)" d="M2.739,0A2.739,2.739,0,1,1,-2.739,0A2.739,2.739,0,1,1,2.739,0" stroke="rgb(253, 201, 180)" stroke-width="2" opacity="0.7"/><path aria-label="CodonSite: 6; adjusted_p-value: 1" role="graphics-symbol" aria-roledescription="point" transform="translate(43.63636363636363,0)" d="M2.739,0A2.739,2.739,0,1,1,-2.739,0A2.739,2.739,0,1,1,2.739,0" stroke="rgb(253, 201, 180)" stroke-width="2" opacity="0.7"/><path aria-label="CodonSite: 7; adjusted_p-value: 1" role="graphics-symbol" aria-roledescription="point" transform="translate(50.90909090909091,0)" d="M2.739,0A2.739,2.739,0,1,1,-2.739,0A2.739,2.739,0,1,1,2.739,0" stroke="rgb(253, 201, 180)" stroke-width="2" opacity="0.7"/><path aria-label="CodonSite: 8; adjusted_p-value: 1" role="graphics-symbol" aria-roledescription="point" transform="translate(58.18181818181818,0)" d="M2.739,0A2.739,2.739,0,1,1,-2.739,0A2.739,2.739,0,1,1,2.739,0" stroke="rgb(253, 201, 180)" stroke-width="2" opacity="0.7"/><path aria-label="CodonSite: 9; adjusted_p-value: 1" role="graphics-symbol" aria-roledescription="point" transform="translate(65.45454545454545,0)" d="M2.739,0A2.739,2.739,0,1,1,-2.739,0A2.739,2.739,0,1,1,2.739,0" stroke="rgb(253, 201, 180)" stroke-width="2" opacity="0.7"/><path aria-label="CodonSite: 10; adjusted_p-value: 1" role="graphics-symbol" aria-roledescription="point" transform="translate(72.72727272727273,0)" d="M2.739,0A2.739,2.739,0,1,1,-2.739,0A2.739,2.739,0,1,1,2.739,0" stroke="rgb(253, 201, 180)" stroke-width="2" opacity="0.7"/><path aria-label="CodonSite: 11; adjusted_p-value: 1" role="graphics-symbol" aria-roledescription="point" transform="translate(80,0)" d="M2.739,0A2.739,2.739,0,1,1,-2.739,0A2.739,2.739,0,1,1,2.739,0" stroke="rgb(253, 201, 180)" stroke-width="2" opacity="0.7"/><path aria-label="CodonSite: 12; adjusted_p-value: 1" role="graphics-symbol" aria-roledescription="point" transform="translate(87.27272727272727,0)" d="M2.739,0A2.739,2.739,0,1,1,-2.739,0A2.739,2.739,0,1,1,2.739,0" stroke="rgb(253, 201, 180)" stroke-width="2" opacity="0.7"/><path aria-label="CodonSite: 13; adjusted_p-value: 1" role="graphics-symbol" aria-roledescription="point" transform="translate(94.54545454545455,0)" d="M2.739,0A2.739,2.739,0,1,1,-2.739,0A2.739,2.739,0,1,1,2.739,0" stroke="rgb(253, 201, 180)" stroke-width="2" opacity="0.7"/><path aria-label="CodonSite: 14; adjusted_p-value: 1" role="graphics-symbol" aria-roledescription="point" transform="translate(101.81818181818181,0)" d="M2.739,0A2.739,2.739,0,1,1,-2.739,0A2.739,2.739,0,1,1,2.739,0" stroke="rgb(253, 201, 180)" stroke-width="2" opacity="0.7"/><path aria-label="CodonSite: 15; adjusted_p-value: 1" role="graphics-symbol" aria-roledescription="point" transform="translate(109.09090909090908,0)" d="M2.739,0A2.739,2.739,0,1,1,-2.739,0A2.739,2.739,0,1,1,2.739,0" stroke="rgb(253, 201, 180)" stroke-width="2" opacity="0.7"/><path aria-label="CodonSite: 16; adjusted_p-value: 1" role="graphics-symbol" aria-roledescription="point" transform="translate(116.36363636363636,0)" d="M2.739,0A2.739,2.739,0,1,1,-2.739,0A2.739,2.739,0,1,1,2.739,0" stroke="rgb(253, 201, 180)" stroke-width="2" opacity="0.7"/><path aria-label="CodonSite: 17; adjusted_p-value: 1" role="graphics-symbol" aria-roledescription="point" transform="translate(123.63636363636363,0)" d="M2.739,0A2.739,2.739,0,1,1,-2.739,0A2.739,2.739,0,1,1,2.739,0" stroke="rgb(253, 201, 180)" stroke-width="2" opacity="0.7"/><path aria-label="CodonSite: 18; adjusted_p-value: 1" role="graphics-symbol" aria-roledescription="point" transform="translate(130.9090909090909,0)" d="M2.739,0A2.739,2.739,0,1,1,-2.739,0A2.739,2.739,0,1,1,2.739,0" stroke="rgb(253, 201, 180)" stroke-width="2" opacity="0.7"/><path aria-label="CodonSite: 19; adjusted_p-value: 1" role="graphics-symbol" aria-roledescription="point" transform="translate(138.1818181818182,0)" d="M2.739,0A2.739,2.739,0,1,1,-2.739,0A2.739,2.739,0,1,1,2.739,0" stroke="rgb(253, 201, 180)" stroke-width="2" opacity="0.7"/><path aria-label="CodonSite: 20; adjusted_p-value: 1" role="graphics-symbol" aria-roledescription="point" transform="translate(145.45454545454547,0)" d="M2.739,0A2.739,2.739,0,1,1,-2.739,0A2.739,2.739,0,1,1,2.739,0" stroke="rgb(253, 201, 180)" stroke-width="2" opacity="0.7"/><path aria-label="CodonSite: 21; adjusted_p-value: 1" role="graphics-symbol" aria-roledescription="point" transform="translate(152.72727272727275,0)" d="M2.739,0A2.739,2.739,0,1,1,-2.739,0A2.739,2.739,0,1,1,2.739,0" stroke="rgb(253, 201, 180)" stroke-width="2" opacity="0.7"/><path aria-label="CodonSite: 22; adjusted_p-value: 1" role="graphics-symbol" aria-roledescription="point" transform="translate(160,0)" d="M2.739,0A2.739,2.739,0,1,1,-2.739,0A2.739,2.739,0,1,1,2.739,0" stroke="rgb(253, 201, 180)" stroke-width="2" opacity="0.7"/><path aria-label="CodonSite: 23; adjusted_p-value: 1" role="graphics-symbol" aria-roledescription="point" transform="translate(167.27272727272725,0)" d="M2.739,0A2.739,2.739,0,1,1,-2.739,0A2.739,2.739,0,1,1,2.739,0" stroke="rgb(253, 201, 180)" stroke-width="2" opacity="0.7"/><path aria-label="CodonSite: 24; adjusted_p-value: 1" role="graphics-symbol" aria-roledescription="point" transform="translate(174.54545454545453,0)" d="M2.739,0A2.739,2.739,0,1,1,-2.739,0A2.739,2.739,0,1,1,2.739,0" stroke="rgb(253, 201, 180)" stroke-width="2" opacity="0.7"/><path aria-label="CodonSite: 25; adjusted_p-value: 1" role="graphics-symbol" aria-roledescription="point" transform="translate(181.8181818181818,0)" d="M2.739,0A2.739,2.739,0,1,1,-2.739,0A2.739,2.739,0,1,1,2.739,0" stroke="rgb(253, 201, 180)" stroke-width="2" opacity="0.7"/><path aria-label="CodonSite: 26; adjusted_p-value: 1" role="graphics-symbol" aria-roledescription="point" transform="translate(189.0909090909091,0)" d="M2.739,0A2.739,2.739,0,1,1,-2.739,0A2.739,2.739,0,1,1,2.739,0" stroke="rgb(253, 201, 180)" stroke-width="2" opacity="0.7"/><path aria-label="CodonSite: 27; adjusted_p-value: 1" role="graphics-symbol" aria-roledescription="point" transform="translate(196.36363636363637,0)" d="M2.739,0A2.739,2.739,0,1,1,-2.739,0A2.739,2.739,0,1,1,2.739,0" stroke="rgb(253, 201, 180)" stroke-width="2" opacity="0.7"/><path aria-label="CodonSite: 28; adjusted_p-value: 1" role="graphics-symbol" aria-roledescription="point" transform="translate(203.63636363636363,0)" d="M2.739,0A2.739,2.739,0,1,1,-2.739,0A2.739,2.739,0,1,1,2.739,0" stroke="rgb(253, 201, 180)" stroke-width="2" opacity="0.7"/><path aria-label="CodonSite: 29; adjusted_p-value: 1" role="graphics-symbol" aria-roledescription="point" transform="translate(210.90909090909088,0)" d="M2.739,0A2.739,2.739,0,1,1,-2.739,0A2.739,2.739,0,1,1,2.739,0" stroke="rgb(253, 201, 180)" stroke-width="2" opacity="0.7"/><path aria-label="CodonSite: 30; adjusted_p-value: 1" role="graphics-symbol" aria-roledescription="point" transform="translate(218.18181818181816,0)" d="M2.739,0A2.739,2.739,0,1,1,-2.739,0A2.739,2.739,0,1,1,2.739,0" stroke="rgb(253, 201, 180)" stroke-width="2" opacity="0.7"/><path aria-label="CodonSite: 31; adjusted_p-value: 1" role="graphics-symbol" aria-roledescription="point" transform="translate(225.45454545454544,0)" d="M2.739,0A2.739,2.739,0,1,1,-2.739,0A2.739,2.739,0,1,1,2.739,0" stroke="rgb(253, 201, 180)" stroke-width="2" opacity="0.7"/><path aria-label="CodonSite: 32; adjusted_p-value: 1" role="graphics-symbol" aria-roledescription="point" transform="translate(232.72727272727272,0)" d="M2.739,0A2.739,2.739,0,1,1,-2.739,0A2.739,2.739,0,1,1,2.739,0" stroke="rgb(253, 201, 180)" stroke-width="2" opacity="0.7"/><path aria-label="CodonSite: 33; adjusted_p-value: 1" role="graphics-symbol" aria-roledescription="point" transform="translate(240,0)" d="M2.739,0A2.739,2.739,0,1,1,-2.739,0A2.739,2.739,0,1,1,2.739,0" stroke="rgb(253, 201, 180)" stroke-width="2" opacity="0.7"/><path aria-label="CodonSite: 34; adjusted_p-value: 1" role="graphics-symbol" aria-roledescription="point" transform="translate(247.27272727272725,0)" d="M2.739,0A2.739,2.739,0,1,1,-2.739,0A2.739,2.739,0,1,1,2.739,0" stroke="rgb(253, 201, 180)" stroke-width="2" opacity="0.7"/><path aria-label="CodonSite: 35; adjusted_p-value: 1" role="graphics-symbol" aria-roledescription="point" transform="translate(254.54545454545453,0)" d="M2.739,0A2.739,2.739,0,1,1,-2.739,0A2.739,2.739,0,1,1,2.739,0" stroke="rgb(253, 201, 180)" stroke-width="2" opacity="0.7"/><path aria-label="CodonSite: 36; adjusted_p-value: 1" role="graphics-symbol" aria-roledescription="point" transform="translate(261.8181818181818,0)" d="M2.739,0A2.739,2.739,0,1,1,-2.739,0A2.739,2.739,0,1,1,2.739,0" stroke="rgb(253, 201, 180)" stroke-width="2" opacity="0.7"/><path aria-label="CodonSite: 37; adjusted_p-value: 1" role="graphics-symbol" aria-roledescription="point" transform="translate(269.09090909090907,0)" d="M2.739,0A2.739,2.739,0,1,1,-2.739,0A2.739,2.739,0,1,1,2.739,0" stroke="rgb(253, 201, 180)" stroke-width="2" opacity="0.7"/><path aria-label="CodonSite: 38; adjusted_p-value: 1" role="graphics-symbol" aria-roledescription="point" transform="translate(276.3636363636364,0)" d="M2.739,0A2.739,2.739,0,1,1,-2.739,0A2.739,2.739,0,1,1,2.739,0" stroke="rgb(253, 201, 180)" stroke-width="2" opacity="0.7"/><path aria-label="CodonSite: 39; adjusted_p-value: 1" role="graphics-symbol" aria-roledescription="point" transform="translate(283.6363636363636,0)" d="M2.739,0A2.739,2.739,0,1,1,-2.739,0A2.739,2.739,0,1,1,2.739,0" stroke="rgb(253, 201, 180)" stroke-width="2" opacity="0.7"/><path aria-label="CodonSite: 40; adjusted_p-value: 1" role="graphics-symbol" aria-roledescription="point" transform="translate(290.90909090909093,0)" d="M2.739,0A2.739,2.739,0,1,1,-2.739,0A2.739,2.739,0,1,1,2.739,0" stroke="rgb(253, 201, 180)" stroke-width="2" opacity="0.7"/><path aria-label="CodonSite: 41; adjusted_p-value: 1" role="graphics-symbol" aria-roledescription="point" transform="translate(298.1818181818182,0)" d="M2.739,0A2.739,2.739,0,1,1,-2.739,0A2.739,2.739,0,1,1,2.739,0" stroke="rgb(253, 201, 180)" stroke-width="2" opacity="0.7"/><path aria-label="CodonSite: 42; adjusted_p-value: 1" role="graphics-symbol" aria-roledescription="point" transform="translate(305.4545454545455,0)" d="M2.739,0A2.739,2.739,0,1,1,-2.739,0A2.739,2.739,0,1,1,2.739,0" stroke="rgb(253, 201, 180)" stroke-width="2" opacity="0.7"/><path aria-label="CodonSite: 43; adjusted_p-value: 1" role="graphics-symbol" aria-roledescription="point" transform="translate(312.72727272727275,0)" d="M2.739,0A2.739,2.739,0,1,1,-2.739,0A2.739,2.739,0,1,1,2.739,0" stroke="rgb(253, 201, 180)" stroke-width="2" opacity="0.7"/><path aria-label="CodonSite: 44; adjusted_p-value: 1" role="graphics-symbol" aria-roledescription="point" transform="translate(320,0)" d="M2.739,0A2.739,2.739,0,1,1,-2.739,0A2.739,2.739,0,1,1,2.739,0" stroke="rgb(253, 201, 180)" stroke-width="2" opacity="0.7"/><path aria-label="CodonSite: 45; adjusted_p-value: 1" role="graphics-symbol" aria-roledescription="point" transform="translate(327.2727272727273,0)" d="M2.739,0A2.739,2.739,0,1,1,-2.739,0A2.739,2.739,0,1,1,2.739,0" stroke="rgb(253, 201, 180)" stroke-width="2" opacity="0.7"/><path aria-label="CodonSite: 46; adjusted_p-value: 1" role="graphics-symbol" aria-roledescription="point" transform="translate(334.5454545454545,0)" d="M2.739,0A2.739,2.739,0,1,1,-2.739,0A2.739,2.739,0,1,1,2.739,0" stroke="rgb(253, 201, 180)" stroke-width="2" opacity="0.7"/><path aria-label="CodonSite: 47; adjusted_p-value: 1" role="graphics-symbol" aria-roledescription="point" transform="translate(341.8181818181818,0)" d="M2.739,0A2.739,2.739,0,1,1,-2.739,0A2.739,2.739,0,1,1,2.739,0" stroke="rgb(253, 201, 180)" stroke-width="2" opacity="0.7"/><path aria-label="CodonSite: 48; adjusted_p-value: 1" role="graphics-symbol" aria-roledescription="point" transform="translate(349.09090909090907,0)" d="M2.739,0A2.739,2.739,0,1,1,-2.739,0A2.739,2.739,0,1,1,2.739,0" stroke="rgb(253, 201, 180)" stroke-width="2" opacity="0.7"/><path aria-label="CodonSite: 49; adjusted_p-value: 1" role="graphics-symbol" aria-roledescription="point" transform="translate(356.3636363636364,0)" d="M2.739,0A2.739,2.739,0,1,1,-2.739,0A2.739,2.739,0,1,1,2.739,0" stroke="rgb(253, 201, 180)" stroke-width="2" opacity="0.7"/><path aria-label="CodonSite: 50; adjusted_p-value: 1" role="graphics-symbol" aria-roledescription="point" transform="translate(363.6363636363636,0)" d="M2.739,0A2.739,2.739,0,1,1,-2.739,0A2.739,2.739,0,1,1,2.739,0" stroke="rgb(253, 201, 180)" stroke-width="2" opacity="0.7"/><path aria-label="CodonSite: 51; adjusted_p-value: 1" role="graphics-symbol" aria-roledescription="point" transform="translate(370.9090909090909,0)" d="M2.739,0A2.739,2.739,0,1,1,-2.739,0A2.739,2.739,0,1,1,2.739,0" stroke="rgb(253, 201, 180)" stroke-width="2" opacity="0.7"/><path aria-label="CodonSite: 52; adjusted_p-value: 1" role="graphics-symbol" aria-roledescription="point" transform="translate(378.1818181818182,0)" d="M2.739,0A2.739,2.739,0,1,1,-2.739,0A2.739,2.739,0,1,1,2.739,0" stroke="rgb(253, 201, 180)" stroke-width="2" opacity="0.7"/><path aria-label="CodonSite: 53; adjusted_p-value: 1" role="graphics-symbol" aria-roledescription="point" transform="translate(385.45454545454544,0)" d="M2.739,0A2.739,2.739,0,1,1,-2.739,0A2.739,2.739,0,1,1,2.739,0" stroke="rgb(253, 201, 180)" stroke-width="2" opacity="0.7"/><path aria-label="CodonSite: 54; adjusted_p-value: 1" role="graphics-symbol" aria-roledescription="point" transform="translate(392.72727272727275,0)" d="M2.739,0A2.739,2.739,0,1,1,-2.739,0A2.739,2.739,0,1,1,2.739,0" stroke="rgb(253, 201, 180)" stroke-width="2" opacity="0.7"/><path aria-label="CodonSite: 55; adjusted_p-value: 1" role="graphics-symbol" aria-roledescription="point" transform="translate(400,0)" d="M2.739,0A2.739,2.739,0,1,1,-2.739,0A2.739,2.739,0,1,1,2.739,0" stroke="rgb(253, 201, 180)" stroke-width="2" opacity="0.7"/><path aria-label="CodonSite: 56; adjusted_p-value: 1" role="graphics-symbol" aria-roledescription="point" transform="translate(407.27272727272725,0)" d="M2.739,0A2.739,2.739,0,1,1,-2.739,0A2.739,2.739,0,1,1,2.739,0" stroke="rgb(253, 201, 180)" stroke-width="2" opacity="0.7"/><path aria-label="CodonSite: 57; adjusted_p-value: 1" role="graphics-symbol" aria-roledescription="point" transform="translate(414.54545454545456,0)" d="M2.739,0A2.739,2.739,0,1,1,-2.739,0A2.739,2.739,0,1,1,2.739,0" stroke="rgb(253, 201, 180)" stroke-width="2" opacity="0.7"/><path aria-label="CodonSite: 58; adjusted_p-value: 1" role="graphics-symbol" aria-roledescription="point" transform="translate(421.81818181818176,0)" d="M2.739,0A2.739,2.739,0,1,1,-2.739,0A2.739,2.739,0,1,1,2.739,0" stroke="rgb(253, 201, 180)" stroke-width="2" opacity="0.7"/><path aria-label="CodonSite: 59; adjusted_p-value: 1" role="graphics-symbol" aria-roledescription="point" transform="translate(429.0909090909091,0)" d="M2.739,0A2.739,2.739,0,1,1,-2.739,0A2.739,2.739,0,1,1,2.739,0" stroke="rgb(253, 201, 180)" stroke-width="2" opacity="0.7"/><path aria-label="CodonSite: 60; adjusted_p-value: 1" role="graphics-symbol" aria-roledescription="point" transform="translate(436.3636363636363,0)" d="M2.739,0A2.739,2.739,0,1,1,-2.739,0A2.739,2.739,0,1,1,2.739,0" stroke="rgb(253, 201, 180)" stroke-width="2" opacity="0.7"/><path aria-label="CodonSite: 61; adjusted_p-value: 1" role="graphics-symbol" aria-roledescription="point" transform="translate(443.6363636363636,0)" d="M2.739,0A2.739,2.739,0,1,1,-2.739,0A2.739,2.739,0,1,1,2.739,0" stroke="rgb(253, 201, 180)" stroke-width="2" opacity="0.7"/><path aria-label="CodonSite: 62; adjusted_p-value: 1" role="graphics-symbol" aria-roledescription="point" transform="translate(450.9090909090909,0)" d="M2.739,0A2.739,2.739,0,1,1,-2.739,0A2.739,2.739,0,1,1,2.739,0" stroke="rgb(253, 201, 180)" stroke-width="2" opacity="0.7"/><path aria-label="CodonSite: 63; adjusted_p-value: 1" role="graphics-symbol" aria-roledescription="point" transform="translate(458.1818181818182,0)" d="M2.739,0A2.739,2.739,0,1,1,-2.739,0A2.739,2.739,0,1,1,2.739,0" stroke="rgb(253, 201, 180)" stroke-width="2" opacity="0.7"/><path aria-label="CodonSite: 64; adjusted_p-value: 1" role="graphics-symbol" aria-roledescription="point" transform="translate(465.45454545454544,0)" d="M2.739,0A2.739,2.739,0,1,1,-2.739,0A2.739,2.739,0,1,1,2.739,0" stroke="rgb(253, 201, 180)" stroke-width="2" opacity="0.7"/><path aria-label="CodonSite: 65; adjusted_p-value: 1" role="graphics-symbol" aria-roledescription="point" transform="translate(472.72727272727275,0)" d="M2.739,0A2.739,2.739,0,1,1,-2.739,0A2.739,2.739,0,1,1,2.739,0" stroke="rgb(253, 201, 180)" stroke-width="2" opacity="0.7"/><path aria-label="CodonSite: 66; adjusted_p-value: 1" role="graphics-symbol" aria-roledescription="point" transform="translate(480,0)" d="M2.739,0A2.739,2.739,0,1,1,-2.739,0A2.739,2.739,0,1,1,2.739,0" stroke="rgb(253, 201, 180)" stroke-width="2" opacity="0.7"/><path aria-label="CodonSite: 67; adjusted_p-value: 1" role="graphics-symbol" aria-roledescription="point" transform="translate(487.2727272727273,0)" d="M2.739,0A2.739,2.739,0,1,1,-2.739,0A2.739,2.739,0,1,1,2.739,0" stroke="rgb(253, 201, 180)" stroke-width="2" opacity="0.7"/><path aria-label="CodonSite: 68; adjusted_p-value: 1" role="graphics-symbol" aria-roledescription="point" transform="translate(494.5454545454545,0)" d="M2.739,0A2.739,2.739,0,1,1,-2.739,0A2.739,2.739,0,1,1,2.739,0" stroke="rgb(253, 201, 180)" stroke-width="2" opacity="0.7"/><path aria-label="CodonSite: 69; adjusted_p-value: 1" role="graphics-symbol" aria-roledescription="point" transform="translate(501.81818181818187,0)" d="M2.739,0A2.739,2.739,0,1,1,-2.739,0A2.739,2.739,0,1,1,2.739,0" stroke="rgb(253, 201, 180)" stroke-width="2" opacity="0.7"/><path aria-label="CodonSite: 70; adjusted_p-value: 1" role="graphics-symbol" aria-roledescription="point" transform="translate(509.09090909090907,0)" d="M2.739,0A2.739,2.739,0,1,1,-2.739,0A2.739,2.739,0,1,1,2.739,0" stroke="rgb(253, 201, 180)" stroke-width="2" opacity="0.7"/><path aria-label="CodonSite: 71; adjusted_p-value: 1" role="graphics-symbol" aria-roledescription="point" transform="translate(516.3636363636364,0)" d="M2.739,0A2.739,2.739,0,1,1,-2.739,0A2.739,2.739,0,1,1,2.739,0" stroke="rgb(253, 201, 180)" stroke-width="2" opacity="0.7"/><path aria-label="CodonSite: 72; adjusted_p-value: 1" role="graphics-symbol" aria-roledescription="point" transform="translate(523.6363636363636,0)" d="M2.739,0A2.739,2.739,0,1,1,-2.739,0A2.739,2.739,0,1,1,2.739,0" stroke="rgb(253, 201, 180)" stroke-width="2" opacity="0.7"/><path aria-label="CodonSite: 73; adjusted_p-value: 1" role="graphics-symbol" aria-roledescription="point" transform="translate(530.909090909091,0)" d="M2.739,0A2.739,2.739,0,1,1,-2.739,0A2.739,2.739,0,1,1,2.739,0" stroke="rgb(253, 201, 180)" stroke-width="2" opacity="0.7"/><path aria-label="CodonSite: 74; adjusted_p-value: 1" role="graphics-symbol" aria-roledescription="point" transform="translate(538.1818181818181,0)" d="M2.739,0A2.739,2.739,0,1,1,-2.739,0A2.739,2.739,0,1,1,2.739,0" stroke="rgb(253, 201, 180)" stroke-width="2" opacity="0.7"/><path aria-label="CodonSite: 75; adjusted_p-value: 1" role="graphics-symbol" aria-roledescription="point" transform="translate(545.4545454545454,0)" d="M2.739,0A2.739,2.739,0,1,1,-2.739,0A2.739,2.739,0,1,1,2.739,0" stroke="rgb(253, 201, 180)" stroke-width="2" opacity="0.7"/><path aria-label="CodonSite: 76; adjusted_p-value: 1" role="graphics-symbol" aria-roledescription="point" transform="translate(552.7272727272727,0)" d="M2.739,0A2.739,2.739,0,1,1,-2.739,0A2.739,2.739,0,1,1,2.739,0" stroke="rgb(253, 201, 180)" stroke-width="2" opacity="0.7"/><path aria-label="CodonSite: 77; adjusted_p-value: 1" role="graphics-symbol" aria-roledescription="point" transform="translate(560,0)" d="M2.739,0A2.739,2.739,0,1,1,-2.739,0A2.739,2.739,0,1,1,2.739,0" stroke="rgb(253, 201, 180)" stroke-width="2" opacity="0.7"/><path aria-label="CodonSite: 78; adjusted_p-value: 1" role="graphics-symbol" aria-roledescription="point" transform="translate(567.2727272727273,0)" d="M2.739,0A2.739,2.739,0,1,1,-2.739,0A2.739,2.739,0,1,1,2.739,0" stroke="rgb(253, 201, 180)" stroke-width="2" opacity="0.7"/><path aria-label="CodonSite: 79; adjusted_p-value: 1" role="graphics-symbol" aria-roledescription="point" transform="translate(574.5454545454545,0)" d="M2.739,0A2.739,2.739,0,1,1,-2.739,0A2.739,2.739,0,1,1,2.739,0" stroke="rgb(253, 201, 180)" stroke-width="2" opacity="0.7"/><path aria-label="CodonSite: 80; adjusted_p-value: 1" role="graphics-symbol" aria-roledescription="point" transform="translate(581.8181818181819,0)" d="M2.739,0A2.739,2.739,0,1,1,-2.739,0A2.739,2.739,0,1,1,2.739,0" stroke="rgb(253, 201, 180)" stroke-width="2" opacity="0.7"/><path aria-label="CodonSite: 81; adjusted_p-value: 1" role="graphics-symbol" aria-roledescription="point" transform="translate(589.090909090909,0)" d="M2.739,0A2.739,2.739,0,1,1,-2.739,0A2.739,2.739,0,1,1,2.739,0" stroke="rgb(253, 201, 180)" stroke-width="2" opacity="0.7"/><path aria-label="CodonSite: 82; adjusted_p-value: 1" role="graphics-symbol" aria-roledescription="point" transform="translate(596.3636363636364,0)" d="M2.739,0A2.739,2.739,0,1,1,-2.739,0A2.739,2.739,0,1,1,2.739,0" stroke="rgb(253, 201, 180)" stroke-width="2" opacity="0.7"/><path aria-label="CodonSite: 83; adjusted_p-value: 0.162456217975" role="graphics-symbol" aria-roledescription="point" transform="translate(603.6363636363636,502.52626921485813)" d="M2.739,0A2.739,2.739,0,1,1,-2.739,0A2.739,2.739,0,1,1,2.739,0" stroke="rgb(151, 11, 19)" stroke-width="2" opacity="0.7"/><path aria-label="CodonSite: 84; adjusted_p-value: 1" role="graphics-symbol" aria-roledescription="point" transform="translate(610.909090909091,0)" d="M2.739,0A2.739,2.739,0,1,1,-2.739,0A2.739,2.739,0,1,1,2.739,0" stroke="rgb(253, 201, 180)" stroke-width="2" opacity="0.7"/><path aria-label="CodonSite: 85; adjusted_p-value: 1" role="graphics-symbol" aria-roledescription="point" transform="translate(618.1818181818181,0)" d="M2.739,0A2.739,2.739,0,1,1,-2.739,0A2.739,2.739,0,1,1,2.739,0" stroke="rgb(253, 201, 180)" stroke-width="2" opacity="0.7"/><path aria-label="CodonSite: 86; adjusted_p-value: 1" role="graphics-symbol" aria-roledescription="point" transform="translate(625.4545454545455,0)" d="M2.739,0A2.739,2.739,0,1,1,-2.739,0A2.739,2.739,0,1,1,2.739,0" stroke="rgb(253, 201, 180)" stroke-width="2" opacity="0.7"/><path aria-label="CodonSite: 87; adjusted_p-value: 1" role="graphics-symbol" aria-roledescription="point" transform="translate(632.7272727272727,0)" d="M2.739,0A2.739,2.739,0,1,1,-2.739,0A2.739,2.739,0,1,1,2.739,0" stroke="rgb(253, 201, 180)" stroke-width="2" opacity="0.7"/><path aria-label="CodonSite: 88; adjusted_p-value: 1" role="graphics-symbol" aria-roledescription="point" transform="translate(640,0)" d="M2.739,0A2.739,2.739,0,1,1,-2.739,0A2.739,2.739,0,1,1,2.739,0" stroke="rgb(253, 201, 180)" stroke-width="2" opacity="0.7"/><path aria-label="CodonSite: 89; adjusted_p-value: 1" role="graphics-symbol" aria-roledescription="point" transform="translate(647.2727272727273,0)" d="M2.739,0A2.739,2.739,0,1,1,-2.739,0A2.739,2.739,0,1,1,2.739,0" stroke="rgb(253, 201, 180)" stroke-width="2" opacity="0.7"/><path aria-label="CodonSite: 90; adjusted_p-value: 1" role="graphics-symbol" aria-roledescription="point" transform="translate(654.5454545454546,0)" d="M2.739,0A2.739,2.739,0,1,1,-2.739,0A2.739,2.739,0,1,1,2.739,0" stroke="rgb(253, 201, 180)" stroke-width="2" opacity="0.7"/><path aria-label="CodonSite: 91; adjusted_p-value: 1" role="graphics-symbol" aria-roledescription="point" transform="translate(661.8181818181819,0)" d="M2.739,0A2.739,2.739,0,1,1,-2.739,0A2.739,2.739,0,1,1,2.739,0" stroke="rgb(253, 201, 180)" stroke-width="2" opacity="0.7"/><path aria-label="CodonSite: 92; adjusted_p-value: 1" role="graphics-symbol" aria-roledescription="point" transform="translate(669.090909090909,0)" d="M2.739,0A2.739,2.739,0,1,1,-2.739,0A2.739,2.739,0,1,1,2.739,0" stroke="rgb(253, 201, 180)" stroke-width="2" opacity="0.7"/><path aria-label="CodonSite: 93; adjusted_p-value: 1" role="graphics-symbol" aria-roledescription="point" transform="translate(676.3636363636364,0)" d="M2.739,0A2.739,2.739,0,1,1,-2.739,0A2.739,2.739,0,1,1,2.739,0" stroke="rgb(253, 201, 180)" stroke-width="2" opacity="0.7"/><path aria-label="CodonSite: 94; adjusted_p-value: 1" role="graphics-symbol" aria-roledescription="point" transform="translate(683.6363636363636,0)" d="M2.739,0A2.739,2.739,0,1,1,-2.739,0A2.739,2.739,0,1,1,2.739,0" stroke="rgb(253, 201, 180)" stroke-width="2" opacity="0.7"/><path aria-label="CodonSite: 95; adjusted_p-value: 1" role="graphics-symbol" aria-roledescription="point" transform="translate(690.9090909090909,0)" d="M2.739,0A2.739,2.739,0,1,1,-2.739,0A2.739,2.739,0,1,1,2.739,0" stroke="rgb(253, 201, 180)" stroke-width="2" opacity="0.7"/><path aria-label="CodonSite: 96; adjusted_p-value: 1" role="graphics-symbol" aria-roledescription="point" transform="translate(698.1818181818181,0)" d="M2.739,0A2.739,2.739,0,1,1,-2.739,0A2.739,2.739,0,1,1,2.739,0" stroke="rgb(253, 201, 180)" stroke-width="2" opacity="0.7"/><path aria-label="CodonSite: 97; adjusted_p-value: 1" role="graphics-symbol" aria-roledescription="point" transform="translate(705.4545454545455,0)" d="M2.739,0A2.739,2.739,0,1,1,-2.739,0A2.739,2.739,0,1,1,2.739,0" stroke="rgb(253, 201, 180)" stroke-width="2" opacity="0.7"/><path aria-label="CodonSite: 98; adjusted_p-value: 1" role="graphics-symbol" aria-roledescription="point" transform="translate(712.7272727272727,0)" d="M2.739,0A2.739,2.739,0,1,1,-2.739,0A2.739,2.739,0,1,1,2.739,0" stroke="rgb(253, 201, 180)" stroke-width="2" opacity="0.7"/><path aria-label="CodonSite: 99; adjusted_p-value: 1" role="graphics-symbol" aria-roledescription="point" transform="translate(720,0)" d="M2.739,0A2.739,2.739,0,1,1,-2.739,0A2.739,2.739,0,1,1,2.739,0" stroke="rgb(253, 201, 180)" stroke-width="2" opacity="0.7"/><path aria-label="CodonSite: 100; adjusted_p-value: 1" role="graphics-symbol" aria-roledescription="point" transform="translate(727.2727272727273,0)" d="M2.739,0A2.739,2.739,0,1,1,-2.739,0A2.739,2.739,0,1,1,2.739,0" stroke="rgb(253, 201, 180)" stroke-width="2" opacity="0.7"/><path aria-label="CodonSite: 101; adjusted_p-value: 1" role="graphics-symbol" aria-roledescription="point" transform="translate(734.5454545454546,0)" d="M2.739,0A2.739,2.739,0,1,1,-2.739,0A2.739,2.739,0,1,1,2.739,0" stroke="rgb(253, 201, 180)" stroke-width="2" opacity="0.7"/><path aria-label="CodonSite: 102; adjusted_p-value: 1" role="graphics-symbol" aria-roledescription="point" transform="translate(741.8181818181818,0)" d="M2.739,0A2.739,2.739,0,1,1,-2.739,0A2.739,2.739,0,1,1,2.739,0" stroke="rgb(253, 201, 180)" stroke-width="2" opacity="0.7"/></g><g class="mark-group role-legend" role="graphics-symbol" aria-roledescription="legend" aria-label="Gradient legend titled 'adjusted_p-value' for stroke color with values from 0.2 to 1.0"><g transform="translate(818,0)"><path class="background" aria-hidden="true" d="M0,0h90v216h-90Z" pointer-events="none"/><g><g class="mark-group role-legend-entry"><g transform="translate(0,16)"><path class="background" aria-hidden="true" d="M0,0h0v0h0Z" pointer-events="none"/><g><g class="mark-rect role-legend-gradient" pointer-events="none"><path d="M0,0h16v200h-16Z" fill="url(#gradient_0)" stroke="#ddd" stroke-width="0" opacity="0.7"/></g><g class="mark-text role-legend-label" pointer-events="none"><text text-anchor="start" transform="translate(18,194.03478938521843)" font-family="sans-serif" font-size="10px" fill="#000" opacity="1">0.2</text><text text-anchor="start" transform="translate(18,146.27609203891382)" font-family="sans-serif" font-size="10px" fill="#000" opacity="1">0.4</text><text text-anchor="start" transform="translate(18,98.5173946926092)" font-family="sans-serif" font-size="10px" fill="#000" opacity="1">0.6</text><text text-anchor="start" transform="translate(18,50.7586973463046)" font-family="sans-serif" font-size="10px" fill="#000" opacity="1">0.8</text><text text-anchor="start" transform="translate(18,8)" font-family="sans-serif" font-size="10px" fill="#000" opacity="1">1.0</text></g></g><path class="foreground" aria-hidden="true" d="" pointer-events="none" display="none"/></g></g><g class="mark-text role-legend-title" pointer-events="none"><text text-anchor="start" transform="translate(0,9)" font-family="sans-serif" font-size="11px" font-weight="bold" fill="#000" opacity="1">adjusted_p-value</text></g></g><path class="foreground" aria-hidden="true" d="" pointer-events="none" display="none"/></g></g></g><path class="foreground" aria-hidden="true" d="" display="none"/></g></g></g><defs><linearGradient id="gradient_0" x1="0" x2="0" y1="1" y2="0"><stop offset="0" stop-color="rgb(151, 11, 19)"/><stop offset="0.044826053073907905" stop-color="rgb(163, 14, 21)"/><stop offset="0.10452442475678865" stop-color="rgb(179, 18, 24)"/><stop offset="0.1642227964396694" stop-color="rgb(192, 24, 27)"/><stop offset="0.22392116812255014" stop-color="rgb(205, 31, 31)"/><stop offset="0.283619539805431" stop-color="rgb(217, 40, 36)"/><stop offset="0.3433179114883117" stop-color="rgb(227, 51, 41)"/><stop offset="0.4030162831711925" stop-color="rgb(236, 64, 47)"/><stop offset="0.46271465485407326" stop-color="rgb(242, 78, 57)"/><stop offset="0.522413026536954" stop-color="rgb(247, 93, 67)"/><stop offset="0.5821113982198348" stop-color="rgb(249, 108, 78)"/><stop offset="0.6418097699027154" stop-color="rgb(251, 122, 90)"/><stop offset="0.7015081415855962" stop-color="rgb(252, 135, 103)"/><stop offset="0.761206513268477" stop-color="rgb(252, 149, 118)"/><stop offset="0.8209048849513578" stop-color="rgb(252, 163, 133)"/><stop offset="0.8806032566342387" stop-color="rgb(252, 176, 149)"/><stop offset="0.9403016283171192" stop-color="rgb(252, 188, 164)"/><stop offset="1" stop-color="rgb(253, 201, 180)"/></linearGradient></defs></svg>