<svg xmlns="http://www.w3.org/2000/svg" xmlns:xlink="http://www.w3.org/1999/xlink" version="1.1" class="marks" width="960" height="647" viewBox="0 0 960 647"><rect width="960" height="647" fill="white"/><g fill="none" stroke-miterlimit="10" transform="translate(47,10)"><g class="mark-group role-frame root" role="graphics-object" aria-roledescription="group mark container"><g transform="translate(0,0)"><path class="background" aria-hidden="true" d="M0.5,0.5h800v600h-800Z" stroke="#ddd"/><g><g class="mark-group role-axis" aria-hidden="true"><g transform="translate(0.5,600.5)"><path class="background" aria-hidden="true" d="M0,0h0v0h0Z" pointer-events="none"/><g><g class="mark-rule role-axis-grid" pointer-events="none"><line transform="translate(0,-600)" x2="0" y2="600" stroke="#ddd" stroke-width="1" opacity="1"/><line transform="translate(40,-600)" x2="0" y2="600" stroke="#ddd" stroke-width="1" opacity="1"/><line transform="translate(80,-600)" x2="0" y2="600" stroke="#ddd" stroke-width="1" opacity="1"/><line transform="translate(120,-600)" x2="0" y2="600" stroke="#ddd" stroke-width="1" opacity="1"/><line transform="translate(160,-600)" x2="0" y2="600" stroke="#ddd" stroke-width="1" opacity="1"/><line transform="translate(200,-600)" x2="0" y2="600" stroke="#ddd" stroke-width="1" opacity="1"/><line transform="translate(240,-600)" x2="0" y2="600" stroke="#ddd" stroke-width="1" opacity="1"/><line transform="translate(280,-600)" x2="0" y2="600" stroke="#ddd" stroke-width="1" opacity="1"/><line transform="translate(320,-600)" x2="0" y2="600" stroke="#ddd" stroke-width="1" opacity="1"/><line transform="translate(360,-600)" x2="0" y2="600" stroke="#ddd" stroke-width="1" opacity="1"/><line transform="translate(400,-600)" x2="0" y2="600" stroke="#ddd" stroke-width="1" opacity="1"/><line transform="translate(440,-600)" x2="0" y2="600" stroke="#ddd" stroke-width="1" opacity="1"/><line transform="translate(480,-600)" x2="0" y2="600" stroke="#ddd" stroke-width="1" opacity="1"/><line transform="translate(520,-600)" x2="0" y2="600" stroke="#ddd" stroke-width="1" opacity="1"/><line transform="translate(560,-600)" x2="0" y2="600" stroke="#ddd" stroke-width="1" opacity="1"/><line transform="translate(600,-600)" x2="0" y2="600" stroke="#ddd" stroke-width="1" opacity="1"/><line transform="translate(640,-600)" x2="0" y2="600" stroke="#ddd" stroke-width="1" opacity="1"/><line transform="translate(680,-600)" x2="0" y2="600" stroke="#ddd" stroke-width="1" opacity="1"/><line transform="translate(720,-600)" x2="0" y2="600" stroke="#ddd" stroke-width="1" opacity="1"/><line transform="translate(760,-600)" x2="0" y2="600" stroke="#ddd" stroke-width="1" opacity="1"/><line transform="translate(800,-600)" x2="0" y2="600" stroke="#ddd" stroke-width="1" opacity="1"/></g></g><path class="foreground" aria-hidden="true" d="" pointer-events="none" display="none"/></g></g><g class="mark-group role-axis" aria-hidden="true"><g transform="translate(0.5,0.5)"><path class="background" aria-hidden="true" d="M0,0h0v0h0Z" pointer-events="none"/><g><g class="mark-rule role-axis-grid" pointer-events="none"><line transform="translate(0,600)" x2="800" y2="0" stroke="#ddd" stroke-width="1" opacity="1"/><line transform="translate(0,570)" x2="800" y2="0" stroke="#ddd" stroke-width="1" opacity="1"/><line transform="translate(0,540)" x2="800" y2="0" stroke="#ddd" stroke-width="1" opacity="1"/><line transform="translate(0,510)" x2="800" y2="0" stroke="#ddd" stroke-width="1" opacity="1"/><line transform="translate(0,480)" x2="800" y2="0" stroke="#ddd" stroke-width="1" opacity="1"/><line transform="translate(0,450)" x2="800" y2="0" stroke="#ddd" stroke-width="1" opacity="1"/><line transform="translate(0,420)" x2="800" y2="0" stroke="#ddd" stroke-width="1" opacity="1"/><line transform="translate(0,390)" x2="800" y2="0" stroke="#ddd" stroke-width="1" opacity="1"/><line transform="translate(0,360)" x2="800" y2="0" stroke="#ddd" stroke-width="1" opacity="1"/><line transform="translate(0,330)" x2="800" y2="0" stroke="#ddd" stroke-width="1" opacity="1"/><line transform="translate(0,300)" x2="800" y2="0" stroke="#ddd" stroke-width="1" opacity="1"/><line transform="translate(0,270)" x2="800" y2="0" stroke="#ddd" stroke-width="1" opacity="1"/><line transform="translate(0,240)" x2="800" y2="0" stroke="#ddd" stroke-width="1" opacity="1"/><line transform="translate(0,210)" x2="800" y2="0" stroke="#ddd" stroke-width="1" opacity="1"/><line transform="translate(0,180)" x2="800" y2="0" stroke="#ddd" stroke-width="1" opacity="1"/><line transform="translate(0,150)" x2="800" y2="0" stroke="#ddd" stroke-width="1" opacity="1"/><line transform="translate(0,120)" x2="800" y2="0" stroke="#ddd" stroke-width="1" opacity="1"/><line transform="translate(0,90)" x2="800" y2="0" stroke="#ddd" stroke-width="1" opacity="1"/><line transform="translate(0,60)" x2="800" y2="0" stroke="#ddd" stroke-width="1" opacity="1"/><line transform="translate(0,30)" x2="800" y2="0" stroke="#ddd" stroke-width="1" opacity="1"/><line transform="translate(0,0)" x2="800" y2="0" stroke="#ddd" stroke-width="1" opacity="1"/></g></g><path class="foreground" aria-hidden="true" d="" pointer-events="none" display="none"/></g></g><g class="mark-group role-axis" role="graphics-symbol" aria-roledescription="axis" aria-label="X-axis titled 'CodonSite' for a linear scale with values from 0 to 40"><g transform="translate(0.5,600.5)"><path class="background" aria-hidden="true" d="M0,0h0v0h0Z" pointer-events="none"/><g><g class="mark-rule role-axis-tick" pointer-events="none"><line transform="translate(0,0)" x2="0" y2="5" stroke="#888" stroke-width="1" opacity="1"/><line transform="translate(40,0)" x2="0" y2="5" stroke="#888" stroke-width="1" opacity="1"/><line transform="translate(80,0)" x2="0" y2="5" stroke="#888" stroke-width="1" opacity="1"/><line transform="translate(120,0)" x2="0" y2="5" stroke="#888" stroke-width="1" opacity="1"/><line transform="translate(160,0)" x2="0" y2="5" stroke="#888" stroke-width="1" opacity="1"/><line transform="translate(200,0)" x2="0" y2="5" stroke="#888" stroke-width="1" opacity="1"/><line transform="translate(240,0)" x2="0" y2="5" stroke="#888" stroke-width="1" opacity="1"/><line transform="translate(280,0)" x2="0" y2="5" stroke="#888" stroke-width="1" opacity="1"/><line transform="translate(320,0)" x2="0" y2="5" stroke="#888" stroke-width="1" opacity="1"/><line transform="translate(360,0)" x2="0" y2="5" stroke="#888" stroke-width="1" opacity="1"/><line transform="translate(400,0)" x2="0" y2="5" stroke="#888" stroke-width="1" opacity="1"/><line transform="translate(440,0)" x2="0" y2="5" stroke="#888" stroke-width="1" opacity="1"/><line transform="translate(480,0)" x2="0" y2="5" stroke="#888" stroke-width="1" opacity="1"/><line transform="translate(520,0)" x2="0" y2="5" stroke="#888" stroke-width="1" opacity="1"/><line transform="translate(560,0)" x2="0" y2="5" stroke="#888" stroke-width="1" opacity="1"/><line transform="translate(600,0)" x2="0" y2="5" stroke="#888" stroke-width="1" opacity="1"/><line transform="translate(640,0)" x2="0" y2="5" stroke="#888" stroke-width="1" opacity="1"/><line transform="translate(680,0)" x2="0" y2="5" stroke="#888" stroke-width="1" opacity="1"/><line transform="translate(720,0)" x2="0" y2="5" stroke="#888" stroke-width="1" opacity="1"/><line transform="translate(760,0)" x2="0" y2="5" stroke="#888" stroke-width="1" opacity="1"/><line transform="translate(800,0)" x2="0" y2="5" stroke="#888" stroke-width="1" opacity="1"/></g><g class="mark-text role-axis-label" pointer-events="none"><text text-anchor="start" transform="translate(0,15)" font-family="sans-serif" font-size="10px" fill="#000" opacity="1">0</text><text text-anchor="middle" transform="translate(40,15)" font-family="sans-serif" font-size="10px" fill="#000" opacity="1">2</text><text text-anchor="middle" transform="translate(80,15)" font-family="sans-serif" font-size="10px" fill="#000" opacity="1">4</text><text text-anchor="middle" transform="translate(120,15)" font-family="sans-serif" font-size="10px" fill="#000" opacity="1">6</text><text text-anchor="middle" transform="translate(160,15)" font-family="sans-serif" font-size="10px" fill="#000" opacity="1">8</text><text text-anchor="middle" transform="translate(200,15)" font-family="sans-serif" font-size="10px" fill="#000" opacity="1">10</text><text text-anchor="middle" transform="translate(240,15)" font-family="sans-serif" font-size="10px" fill="#000" opacity="1">12</text><text text-anchor="middle" transform="translate(280,15)" font-family="sans-serif" font-size="10px" fill="#000" opacity="1">14</text><text text-anchor="middle" transform="translate(320,15)" font-family="sans-serif" font-size="10px" fill="#000" opacity="1">16</text><text text-anchor="middle" transform="translate(360,15)" font-family="sans-serif" font-size="10px" fill="#000" opacity="1">18</text><text text-anchor="middle" transform="translate(400,15)" font-family="sans-serif" font-size="10px" fill="#000" opacity="1">20</text><text text-anchor="middle" transform="translate(440.00000000000006,15)" font-family="sans-serif" font-size="10px" fill="#000" opacity="1">22</text><text text-anchor="middle" transform="translate(480,15)" font-family="sans-serif" font-size="10px" fill="#000" opacity="1">24</text><text text-anchor="middle" transform="translate(520,15)" font-family="sans-serif" font-size="10px" fill="#000" opacity="1">26</text><text text-anchor="middle" transform="translate(560,15)" font-family="sans-serif" font-size="10px" fill="#000" opacity="1">28</text><text text-anchor="middle" transform="translate(600,15)" font-family="sans-serif" font-size="10px" fill="#000" opacity="1">30</text><text text-anchor="middle" transform="translate(640,15)" font-family="sans-serif" font-size="10px" fill="#000" opacity="1">32</text><text text-anchor="middle" transform="translate(680,15)" font-family="sans-serif" font-size="10px" fill="#000" opacity="1">34</text><text text-anchor="middle" transform="translate(720,15)" font-family="sans-serif" font-size="10px" fill="#000" opacity="1">36</text><text text-anchor="middle" transform="translate(760,15)" font-family="sans-serif" font-size="10px" fill="#000" opacity="1">38</text><text text-anchor="end" transform="translate(800,15)" font-family="sans-serif" font-size="10px" fill="#000" opacity="1">40</text></g><g class="mark-rule role-axis-domain" pointer-events="none"><line transform="translate(0,0)" x2="800" y2="0" stroke="#888" stroke-width="1" opacity="1"/></g><g class="mark-text role-axis-title" pointer-events="none"><text text-anchor="middle" transform="translate(400,30)" font-family="sans-serif" font-size="11px" font-weight="bold" fill="#000" opacity="1">CodonSite</text></g></g><path class="foreground" aria-hidden="true" d="" pointer-events="none" display="none"/></g></g><g class="mark-group role-axis" role="graphics-symbol" aria-roledescription="axis" aria-label="Y-axis titled 'adjusted_p-value' for a linear scale with values from 0.0 to 1.0"><g transform="translate(0.5,0.5)"><path class="background" aria-hidden="true" d="M0,0h0v0h0Z" pointer-events="none"/><g><g class="mark-rule role-axis-tick" pointer-events="none"><line transform="translate(0,600)" x2="-5" y2="0" stroke="#888" stroke-width="1" opacity="1"/><line transform="translate(0,570)" x2="-5" y2="0" stroke="#888" stroke-width="1" opacity="1"/><line transform="translate(0,540)" x2="-5" y2="0" stroke="#888" stroke-width="1" opacity="1"/><line transform="translate(0,510)" x2="-5" y2="0" stroke="#888" stroke-width="1" opacity="1"/><line transform="translate(0,480)" x2="-5" y2="0" stroke="#888" stroke-width="1" opacity="1"/><line transform="translate(0,450)" x2="-5" y2="0" stroke="#888" stroke-width="1" opacity="1"/><line transform="translate(0,420)" x2="-5" y2="0" stroke="#888" stroke-width="1" opacity="1"/><line transform="translate(0,390)" x2="-5" y2="0" stroke="#888" stroke-width="1" opacity="1"/><line transform="translate(0,360)" x2="-5" y2="0" stroke="#888" stroke-width="1" opacity="1"/><line transform="translate(0,330)" x2="-5" y2="0" stroke="#888" stroke-width="1" opacity="1"/><line transform="translate(0,300)" x2="-5" y2="0" stroke="#888" stroke-width="1" opacity="1"/><line transform="translate(0,270)" x2="-5" y2="0" stroke="#888" stroke-width="1" opacity="1"/><line transform="translate(0,240)" x2="-5" y2="0" stroke="#888" stroke-width="1" opacity="1"/><line transform="translate(0,210)" x2="-5" y2="0" stroke="#888" stroke-width="1" opacity="1"/><line transform="translate(0,180)" x2="-5" y2="0" stroke="#888" stroke-width="1" opacity="1"/><line transform="translate(0,150)" x2="-5" y2="0" stroke="#888" stroke-width="1" opacity="1"/><line transform="translate(0,120)" x2="-5" y2="0" stroke="#888" stroke-width="1" opacity="1"/><line transform="translate(0,90)" x2="-5" y2="0" stroke="#888" stroke-width="1" opacity="1"/><line transform="translate(0,60)" x2="-5" y2="0" stroke="#888" stroke-width="1" opacity="1"/><line transform="translate(0,30)" x2="-5" y2="0" stroke="#888" stroke-width="1" opacity="1"/><line transform="translate(0,0)" x2="-5" y2="0" stroke="#888" stroke-width="1" opacity="1"/></g><g class="mark-text role-axis-label" pointer-events="none"><text text-anchor="end" transform="translate(-7,603)" font-family="sans-serif" font-size="10px" fill="#000" opacity="1">0.00</text><text text-anchor="end" transform="translate(-7,573)" font-family="sans-serif" font-size="10px" fill="#000" opacity="1">0.05</text><text text-anchor="end" transform="translate(-7,543)" font-family="sans-serif" font-size="10px" fill="#000" opacity="1">0.10</text><text text-anchor="end" transform="translate(-7,513)" font-family="sans-serif" font-size="10px" fill="#000" opacity="1">0.15</text><text text-anchor="end" transform="translate(-7,483)" font-family="sans-serif" font-size="10px" fill="#000" opacity="1">0.20</text><text text-anchor="end" transform="translate(-7,453)" font-family="sans-serif" font-size="10px" fill="#000" opacity="1">0.25</text><text text-anchor="end" transform="translate(-7,423)" font-family="sans-serif" font-size="10px" fill="#000" opacity="1">0.30</text><text text-anchor="end" transform="translate(-7,393)" font-family="sans-serif" font-size="10px" fill="#000" opacity="1">0.35</text><text text-anchor="end" transform="translate(-7,363)" font-family="sans-serif" font-size="10px" fill="#000" opacity="1">0.40</text><text text-anchor="end" transform="translate(-7,333)" font-family="sans-serif" font-size="10px" fill="#000" opacity="1">0.45</text><text text-anchor="end" transform="translate(-7,303)" font-family="sans-serif" font-size="10px" fill="#000" opacity="1">0.50</text><text text-anchor="end" transform="translate(-7,273)" font-family="sans-serif" font-size="10px" fill="#000" opacity="1">0.55</text><text text-anchor="end" transform="translate(-7,243)" font-family="sans-serif" font-size="10px" fill="#000" opacity="1">0.60</text><text text-anchor="end" transform="translate(-7,213)" font-family="sans-serif" font-size="10px" fill="#000" opacity="1">0.65</text><text text-anchor="end" transform="translate(-7,183.00000000000003)" font-family="sans-serif" font-size="10px" fill="#000" opacity="1">0.70</text><text text-anchor="end" transform="translate(-7,153)" font-family="sans-serif" font-size="10px" fill="#000" opacity="1">0.75</text><text text-anchor="end" transform="translate(-7,122.99999999999997)" font-family="sans-serif" font-size="10px" fill="#000" opacity="1">0.80</text><text text-anchor="end" transform="translate(-7,93.00000000000001)" font-family="sans-serif" font-size="10px" fill="#000" opacity="1">0.85</text><text text-anchor="end" transform="translate(-7,62.999999999999986)" font-family="sans-serif" font-size="10px" fill="#000" opacity="1">0.90</text><text text-anchor="end" transform="translate(-7,33.00000000000003)" font-family="sans-serif" font-size="10px" fill="#000" opacity="1">0.95</text><text text-anchor="end" transform="translate(-7,3)" font-family="sans-serif" font-size="10px" fill="#000" opacity="1">1.00</text></g><g class="mark-rule role-axis-domain" pointer-events="none"><line transform="translate(0,600)" x2="0" y2="-600" stroke="#888" stroke-width="1" opacity="1"/></g><g class="mark-text role-axis-title" pointer-events="none"><text text-anchor="middle" transform="translate(-30.462890625,300) rotate(-90) translate(0,-2)" font-family="sans-serif" font-size="11px" font-weight="bold" fill="#000" opacity="1">adjusted_p-value</text></g></g><path class="foreground" aria-hidden="true" d="" pointer-events="none" display="none"/></g></g><g class="mark-symbol role-mark marks" role="graphics-object" aria-roledescription="symbol mark container"><path aria-label="CodonSite: 1; adjusted_p-value: 1" role="graphics-symbol" aria-roledescription="point" transform="translate(20,0)" d="M2.739,0A2.739,2.739,0,1,1,-2.739,0A2.739,2.739,0,1,1,2.739,0" stroke="rgb(253, 201, 180)" stroke-width="2" opacity="0.7"/><path aria-label="CodonSite: 2; adjusted_p-value: 0.702702702703" role="graphics-symbol" aria-roledescription="point" transform="translate(40,178.37837837837836)" d="M2.739,0A2.739,2.739,0,1,1,-2.739,0A2.739,2.739,0,1,1,2.739,0" stroke="rgb(151, 11, 19)" stroke-width="2" opacity="0.7"/><path aria-label="CodonSite: 3; adjusted_p-value: 0.702702702703" role="graphics-symbol" aria-roledescription="point" transform="translate(60,178.37837837837836)" d="M2.739,0A2.739,2.739,0,1,1,-2.739,0A2.739,2.739,0,1,1,2.739,0" stroke="rgb(151, 11, 19)" stroke-width="2" opacity="0.7"/><path aria-label="CodonSite: 4; adjusted_p-value: 0.702702702703" role="graphics-symbol" aria-roledescription="point" transform="translate(80,178.37837837837836)" d="M2.739,0A2.739,2.739,0,1,1,-2.739,0A2.739,2.739,0,1,1,2.739,0" stroke="rgb(151, 11, 19)" stroke-width="2" opacity="0.7"/><path aria-label="CodonSite: 5; adjusted_p-value: 0.702702702703" role="graphics-symbol" aria-roledescription="point" transform="translate(100,178.37837837837836)" d="M2.739,0A2.739,2.739,0,1,1,-2.739,0A2.739,2.739,0,1,1,2.739,0" stroke="rgb(151, 11, 19)" stroke-width="2" opacity="0.7"/><path aria-label="CodonSite: 6; adjusted_p-value: 0.702702702703" role="graphics-symbol" aria-roledescription="point" transform="translate(120,178.37837837837836)" d="M2.739,0A2.739,2.739,0,1,1,-2.739,0A2.739,2.739,0,1,1,2.739,0" stroke="rgb(151, 11, 19)" stroke-width="2" opacity="0.7"/><path aria-label="CodonSite: 7; adjusted_p-value: 0.702702702703" role="graphics-symbol" aria-roledescription="point" transform="translate(140,178.37837837837836)" d="M2.739,0A2.739,2.739,0,1,1,-2.739,0A2.739,2.739,0,1,1,2.739,0" stroke="rgb(151, 11, 19)" stroke-width="2" opacity="0.7"/><path aria-label="CodonSite: 8; adjusted_p-value: 0.702702702703" role="graphics-symbol" aria-roledescription="point" transform="translate(160,178.37837837837836)" d="M2.739,0A2.739,2.739,0,1,1,-2.739,0A2.739,2.739,0,1,1,2.739,0" stroke="rgb(151, 11, 19)" stroke-width="2" opacity="0.7"/><path aria-label="CodonSite: 9; adjusted_p-value: 0.702702702703" role="graphics-symbol" aria-roledescription="point" transform="translate(180,178.37837837837836)" d="M2.739,0A2.739,2.739,0,1,1,-2.739,0A2.739,2.739,0,1,1,2.739,0" stroke="rgb(151, 11, 19)" stroke-width="2" opacity="0.7"/><path aria-label="CodonSite: 10; adjusted_p-value: 0.702702702703" role="graphics-symbol" aria-roledescription="point" transform="translate(200,178.37837837837836)" d="M2.739,0A2.739,2.739,0,1,1,-2.739,0A2.739,2.739,0,1,1,2.739,0" stroke="rgb(151, 11, 19)" stroke-width="2" opacity="0.7"/><path aria-label="CodonSite: 11; adjusted_p-value: 0.702702702703" role="graphics-symbol" aria-roledescription="point" transform="translate(220.00000000000003,178.37837837837836)" d="M2.739,0A2.739,2.739,0,1,1,-2.739,0A2.739,2.739,0,1,1,2.739,0" stroke="rgb(151, 11, 19)" stroke-width="2" opacity="0.7"/><path aria-label="CodonSite: 12; adjusted_p-value: 0.702702702703" role="graphics-symbol" aria-roledescription="point" transform="translate(240,178.37837837837836)" d="M2.739,0A2.739,2.739,0,1,1,-2.739,0A2.739,2.739,0,1,1,2.739,0" stroke="rgb(151, 11, 19)" stroke-width="2" opacity="0.7"/><path aria-label="CodonSite: 13; adjusted_p-value: 1" role="graphics-symbol" aria-roledescription="point" transform="translate(260,0)" d="M2.739,0A2.739,2.739,0,1,1,-2.739,0A2.739,2.739,0,1,1,2.739,0" stroke="rgb(253, 201, 180)" stroke-width="2" opacity="0.7"/><path aria-label="CodonSite: 14; adjusted_p-value: 0.702702702703" role="graphics-symbol" aria-roledescription="point" transform="translate(280,178.37837837837836)" d="M2.739,0A2.739,2.739,0,1,1,-2.739,0A2.739,2.739,0,1,1,2.739,0" stroke="rgb(151, 11, 19)" stroke-width="2" opacity="0.7"/><path aria-label="CodonSite: 15; adjusted_p-value: 0.702702702703" role="graphics-symbol" aria-roledescription="point" transform="translate(300,178.37837837837836)" d="M2.739,0A2.739,2.739,0,1,1,-2.739,0A2.739,2.739,0,1,1,2.739,0" stroke="rgb(151, 11, 19)" stroke-width="2" opacity="0.7"/><path aria-label="CodonSite: 16; adjusted_p-value: 0.702702702703" role="graphics-symbol" aria-roledescription="point" transform="translate(320,178.37837837837836)" d="M2.739,0A2.739,2.739,0,1,1,-2.739,0A2.739,2.739,0,1,1,2.739,0" stroke="rgb(151, 11, 19)" stroke-width="2" opacity="0.7"/><path aria-label="CodonSite: 17; adjusted_p-value: 0.702702702703" role="graphics-symbol" aria-roledescription="point" transform="translate(340,178.37837837837836)" d="M2.739,0A2.739,2.739,0,1,1,-2.739,0A2.739,2.739,0,1,1,2.739,0" stroke="rgb(151, 11, 19)" stroke-width="2" opacity="0.7"/><path aria-label="CodonSite: 18; adjusted_p-value: 0.702702702703" role="graphics-symbol" aria-roledescription="point" transform="translate(360,178.37837837837836)" d="M2.739,0A2.739,2.739,0,1,1,-2.739,0A2.739,2.739,0,1,1,2.739,0" stroke="rgb(151, 11, 19)" stroke-width="2" opacity="0.7"/><path aria-label="CodonSite: 19; adjusted_p-value: 0.702702702703" role="graphics-symbol" aria-roledescription="point" transform="translate(380,178.37837837837836)" d="M2.739,0A2.739,2.739,0,1,1,-2.739,0A2.739,2.739,0,1,1,2.739,0" stroke="rgb(151, 11, 19)" stroke-width="2" opacity="0.7"/><path aria-label="CodonSite: 20; adjusted_p-value: 0.702702702703" role="graphics-symbol" aria-roledescription="point" transform="translate(400,178.37837837837836)" d="M2.739,0A2.739,2.739,0,1,1,-2.739,0A2.739,2.739,0,1,1,2.739,0" stroke="rgb(151, 11, 19)" stroke-width="2" opacity="0.7"/><path aria-label="CodonSite: 21; adjusted_p-value: 0.702702702703" role="graphics-symbol" aria-roledescription="point" transform="translate(420,178.37837837837836)" d="M2.739,0A2.739,2.739,0,1,1,-2.739,0A2.739,2.739,0,1,1,2.739,0" stroke="rgb(151, 11, 19)" stroke-width="2" opacity="0.7"/><path aria-label="CodonSite: 22; adjusted_p-value: 0.702702702703" role="graphics-symbol" aria-roledescription="point" transform="translate(440.00000000000006,178.37837837837836)" d="M2.739,0A2.739,2.739,0,1,1,-2.739,0A2.739,2.739,0,1,1,2.739,0" stroke="rgb(151, 11, 19)" stroke-width="2" opacity="0.7"/><path aria-label="CodonSite: 23; adjusted_p-value: 0.702702702703" role="graphics-symbol" aria-roledescription="point" transform="translate(459.99999999999994,178.37837837837836)" d="M2.739,0A2.739,2.739,0,1,1,-2.739,0A2.739,2.739,0,1,1,2.739,0" stroke="rgb(151, 11, 19)" stroke-width="2" opacity="0.7"/><path aria-label="CodonSite: 24; adjusted_p-value: 0.702702702703" role="graphics-symbol" aria-roledescription="point" transform="translate(480,178.37837837837836)" d="M2.739,0A2.739,2.739,0,1,1,-2.739,0A2.739,2.739,0,1,1,2.739,0" stroke="rgb(151, 11, 19)" stroke-width="2" opacity="0.7"/><path aria-label="CodonSite: 25; adjusted_p-value: 0.702702702703" role="graphics-symbol" aria-roledescription="point" transform="translate(500,178.37837837837836)" d="M2.739,0A2.739,2.739,0,1,1,-2.739,0A2.739,2.739,0,1,1,2.739,0" stroke="rgb(151, 11, 19)" stroke-width="2" opacity="0.7"/><path aria-label="CodonSite: 26; adjusted_p-value: 0.702702702703" role="graphics-symbol" aria-roledescription="point" transform="translate(520,178.37837837837836)" d="M2.739,0A2.739,2.739,0,1,1,-2.739,0A2.739,2.739,0,1,1,2.739,0" stroke="rgb(151, 11, 19)" stroke-width="2" opacity="0.7"/><path aria-label="CodonSite: 27; adjusted_p-value: 0.702702702703" role="graphics-symbol" aria-roledescription="point" transform="translate(540,178.37837837837836)" d="M2.739,0A2.739,2.739,0,1,1,-2.739,0A2.739,2.739,0,1,1,2.739,0" stroke="rgb(151, 11, 19)" stroke-width="2" opacity="0.7"/><path aria-label="CodonSite: 28; adjusted_p-value: 0.702702702703" role="graphics-symbol" aria-roledescription="point" transform="translate(560,178.37837837837836)" d="M2.739,0A2.739,2.739,0,1,1,-2.739,0A2.739,2.739,0,1,1,2.739,0" stroke="rgb(151, 11, 19)" stroke-width="2" opacity="0.7"/><path aria-label="CodonSite: 29; adjusted_p-value: 0.702702702703" role="graphics-symbol" aria-roledescription="point" transform="translate(580,178.37837837837836)" d="M2.739,0A2.739,2.739,0,1,1,-2.739,0A2.739,2.739,0,1,1,2.739,0" stroke="rgb(151, 11, 19)" stroke-width="2" opacity="0.7"/><path aria-label="CodonSite: 30; adjusted_p-value: 0.702702702703" role="graphics-symbol" aria-roledescription="point" transform="translate(600,178.37837837837836)" d="M2.739,0A2.739,2.739,0,1,1,-2.739,0A2.739,2.739,0,1,1,2.739,0" stroke="rgb(151, 11, 19)" stroke-width="2" opacity="0.7"/><path aria-label="CodonSite: 31; adjusted_p-value: 0.702702702703" role="graphics-symbol" aria-roledescription="point" transform="translate(620,178.37837837837836)" d="M2.739,0A2.739,2.739,0,1,1,-2.739,0A2.739,2.739,0,1,1,2.739,0" stroke="rgb(151, 11, 19)" stroke-width="2" opacity="0.7"/><path aria-label="CodonSite: 32; adjusted_p-value: 0.702702702703" role="graphics-symbol" aria-roledescription="point" transform="translate(640,178.37837837837836)" d="M2.739,0A2.739,2.739,0,1,1,-2.739,0A2.739,2.739,0,1,1,2.739,0" stroke="rgb(151, 11, 19)" stroke-width="2" opacity="0.7"/><path aria-label="CodonSite: 33; adjusted_p-value: 0.702702702703" role="graphics-symbol" aria-roledescription="point" transform="translate(660,178.37837837837836)" d="M2.739,0A2.739,2.739,0,1,1,-2.739,0A2.739,2.739,0,1,1,2.739,0" stroke="rgb(151, 11, 19)" stroke-width="2" opacity="0.7"/><path aria-label="CodonSite: 34; adjusted_p-value: 0.702702702703" role="graphics-symbol" aria-roledescription="point" transform="translate(680,178.37837837837836)" d="M2.739,0A2.739,2.739,0,1,1,-2.739,0A2.739,2.739,0,1,1,2.739,0" stroke="rgb(151, 11, 19)" stroke-width="2" opacity="0.7"/><path aria-label="CodonSite: 35; adjusted_p-value: 0.702702702703" role="graphics-symbol" aria-roledescription="point" transform="translate(700,178.37837837837836)" d="M2.739,0A2.739,2.739,0,1,1,-2.739,0A2.739,2.739,0,1,1,2.739,0" stroke="rgb(151, 11, 19)" stroke-width="2" opacity="0.7"/><path aria-label="CodonSite: 36; adjusted_p-value: 0.702702702703" role="graphics-symbol" aria-roledescription="point" transform="translate(720,178.37837837837836)" d="M2.739,0A2.739,2.739,0,1,1,-2.739,0A2.739,2.739,0,1,1,2.739,0" stroke="rgb(151, 11, 19)" stroke-width="2" opacity="0.7"/><path aria-label="CodonSite: 37; adjusted_p-value: 0.702702702703" role="graphics-symbol" aria-roledescription="point" transform="translate(740,178.37837837837836)" d="M2.739,0A2.739,2.739,0,1,1,-2.739,0A2.739,2.739,0,1,1,2.739,0" stroke="rgb(151, 11, 19)" stroke-width="2" opacity="0.7"/><path aria-label="CodonSite: 38; adjusted_p-value: 0.702702702703" role="graphics-symbol" aria-roledescription="point" transform="translate(760,178.37837837837836)" d="M2.739,0A2.739,2.739,0,1,1,-2.739,0A2.739,2.739,0,1,1,2.739,0" stroke="rgb(151, 11, 19)" stroke-width="2" opacity="0.7"/><path aria-label="CodonSite: 39; adjusted_p-value: 0.702702702703" role="graphics-symbol" aria-roledescription="point" transform="translate(780,178.37837837837836)" d="M2.739,0A2.739,2.739,0,1,1,-2.739,0A2.739,2.739,0,1,1,2.739,0" stroke="rgb(151, 11, 19)" stroke-width="2" opacity="0.7"/></g><g class="mark-group role-legend" role="graphics-symbol" aria-roledescription="legend" aria-label="Gradient legend titled 'adjusted_p-value' for stroke color with values from 0.70 to 1.00"><g transform="translate(818,0)"><path class="background" aria-hidden="true" d="M0,0h90v216h-90Z" pointer-events="none"/><g><g class="mark-group role-legend-entry"><g transform="translate(0,16)"><path class="background" aria-hidden="true" d="M0,0h0v0h0Z" pointer-events="none"/><g><g class="mark-rect role-legend-gradient" pointer-events="none"><path d="M0,0h16v200h-16Z" fill="url(#gradient_0)" stroke="#ddd" stroke-width="0" opacity="0.7"/></g><g class="mark-text role-legend-label" pointer-events="none"><text text-anchor="start" transform="translate(18,137.54545454545453)" font-family="sans-serif" font-size="10px" fill="#000" opacity="1">0.8</text><text text-anchor="start" transform="translate(18,70.27272727272727)" font-family="sans-serif" font-size="10px" fill="#000" opacity="1">0.9</text><text text-anchor="start" transform="translate(18,8)" font-family="sans-serif" font-size="10px" fill="#000" opacity="1">1.0</text></g></g><path class="foreground" aria-hidden="true" d="" pointer-events="none" display="none"/></g></g><g class="mark-text role-legend-title" pointer-events="none"><text text-anchor="start" transform="translate(0,9)" font-family="sans-serif" font-size="11px" font-weight="bold" fill="#000" opacity="1">adjusted_p-value</text></g></g><path class="foreground" aria-hidden="true" d="" pointer-events="none" display="none"/></g></g></g><path class="foreground" aria-hidden="true" d="" display="none"/></g></g></g><defs><linearGradient id="gradient_0" x1="0" x2="0" y1="1" y2="0"><stop offset="0" stop-color="rgb(151, 11, 19)"/><stop offset="0.05818181818181797" stop-color="rgb(167, 15, 22)"/><stop offset="0.12545454545454532" stop-color="rgb(184, 20, 25)"/><stop offset="0.19272727272727266" stop-color="rgb(198, 26, 29)"/><stop offset="0.26" stop-color="rgb(212, 36, 34)"/><stop offset="0.3272727272727273" stop-color="rgb(224, 48, 40)"/><stop offset="0.3945454545454543" stop-color="rgb(235, 62, 46)"/><stop offset="0.46181818181818163" stop-color="rgb(242, 78, 57)"/><stop offset="0.529090909090909" stop-color="rgb(247, 94, 68)"/><stop offset="0.5963636363636363" stop-color="rgb(250, 111, 80)"/><stop offset="0.6636363636363637" stop-color="rgb(251, 127, 95)"/><stop offset="0.7309090909090911" stop-color="rgb(252, 142, 111)"/><stop offset="0.798181818181818" stop-color="rgb(252, 158, 128)"/><stop offset="0.8654545454545454" stop-color="rgb(252, 172, 145)"/><stop offset="0.9327272727272726" stop-color="rgb(252, 187, 163)"/><stop offset="1" stop-color="rgb(253, 201, 180)"/></linearGradient></defs></svg>