<svg xmlns="http://www.w3.org/2000/svg" xmlns:xlink="http://www.w3.org/1999/xlink" version="1.1" class="marks" width="847" height="647" viewBox="0 0 847 647"><rect width="847" height="647" fill="white"/><g fill="none" stroke-miterlimit="10" transform="translate(41,10)"><g class="mark-group role-frame root" role="graphics-object" aria-roledescription="group mark container"><g transform="translate(0,0)"><path class="background" aria-hidden="true" d="M0.5,0.5h800v600h-800Z" stroke="#ddd"/><g><g class="mark-group role-axis" aria-hidden="true"><g transform="translate(0.5,600.5)"><path class="background" aria-hidden="true" d="M0,0h0v0h0Z" pointer-events="none"/><g><g class="mark-rule role-axis-grid" pointer-events="none"><line transform="translate(0,-600)" x2="0" y2="600" stroke="#ddd" stroke-width="1" opacity="1"/><line transform="translate(44,-600)" x2="0" y2="600" stroke="#ddd" stroke-width="1" opacity="1"/><line transform="translate(89,-600)" x2="0" y2="600" stroke="#ddd" stroke-width="1" opacity="1"/><line transform="translate(133,-600)" x2="0" y2="600" stroke="#ddd" stroke-width="1" opacity="1"/><line transform="translate(178,-600)" x2="0" y2="600" stroke="#ddd" stroke-width="1" opacity="1"/><line transform="translate(222,-600)" x2="0" y2="600" stroke="#ddd" stroke-width="1" opacity="1"/><line transform="translate(267,-600)" x2="0" y2="600" stroke="#ddd" stroke-width="1" opacity="1"/><line transform="translate(311,-600)" x2="0" y2="600" stroke="#ddd" stroke-width="1" opacity="1"/><line transform="translate(356,-600)" x2="0" y2="600" stroke="#ddd" stroke-width="1" opacity="1"/><line transform="translate(400,-600)" x2="0" y2="600" stroke="#ddd" stroke-width="1" opacity="1"/><line transform="translate(444,-600)" x2="0" y2="600" stroke="#ddd" stroke-width="1" opacity="1"/><line transform="translate(489,-600)" x2="0" y2="600" stroke="#ddd" stroke-width="1" opacity="1"/><line transform="translate(533,-600)" x2="0" y2="600" stroke="#ddd" stroke-width="1" opacity="1"/><line transform="translate(578,-600)" x2="0" y2="600" stroke="#ddd" stroke-width="1" opacity="1"/><line transform="translate(622,-600)" x2="0" y2="600" stroke="#ddd" stroke-width="1" opacity="1"/><line transform="translate(667,-600)" x2="0" y2="600" stroke="#ddd" stroke-width="1" opacity="1"/><line transform="translate(711,-600)" x2="0" y2="600" stroke="#ddd" stroke-width="1" opacity="1"/><line transform="translate(756,-600)" x2="0" y2="600" stroke="#ddd" stroke-width="1" opacity="1"/><line transform="translate(800,-600)" x2="0" y2="600" stroke="#ddd" stroke-width="1" opacity="1"/></g></g><path class="foreground" aria-hidden="true" d="" pointer-events="none" display="none"/></g></g><g class="mark-group role-axis" aria-hidden="true"><g transform="translate(0.5,0.5)"><path class="background" aria-hidden="true" d="M0,0h0v0h0Z" pointer-events="none"/><g><g class="mark-rule role-axis-grid" pointer-events="none"><line transform="translate(0,600)" x2="800" y2="0" stroke="#ddd" stroke-width="1" opacity="1"/><line transform="translate(0,410)" x2="800" y2="0" stroke="#ddd" stroke-width="1" opacity="1"/><line transform="translate(0,332)" x2="800" y2="0" stroke="#ddd" stroke-width="1" opacity="1"/><line transform="translate(0,271)" x2="800" y2="0" stroke="#ddd" stroke-width="1" opacity="1"/><line transform="translate(0,221)" x2="800" y2="0" stroke="#ddd" stroke-width="1" opacity="1"/><line transform="translate(0,176)" x2="800" y2="0" stroke="#ddd" stroke-width="1" opacity="1"/><line transform="translate(0,135)" x2="800" y2="0" stroke="#ddd" stroke-width="1" opacity="1"/><line transform="translate(0,98)" x2="800" y2="0" stroke="#ddd" stroke-width="1" opacity="1"/><line transform="translate(0,63)" x2="800" y2="0" stroke="#ddd" stroke-width="1" opacity="1"/><line transform="translate(0,31)" x2="800" y2="0" stroke="#ddd" stroke-width="1" opacity="1"/><line transform="translate(0,0)" x2="800" y2="0" stroke="#ddd" stroke-width="1" opacity="1"/></g></g><path class="foreground" aria-hidden="true" d="" pointer-events="none" display="none"/></g></g><g class="mark-group role-axis" role="graphics-symbol" aria-roledescription="axis" aria-label="X-axis titled 'Codon Site' for a linear scale with values from 0 to 90"><g transform="translate(0.5,600.5)"><path class="background" aria-hidden="true" d="M0,0h0v0h0Z" pointer-events="none"/><g><g class="mark-rule role-axis-tick" pointer-events="none"><line transform="translate(0,0)" x2="0" y2="5" stroke="#888" stroke-width="1" opacity="1"/><line transform="translate(44,0)" x2="0" y2="5" stroke="#888" stroke-width="1" opacity="1"/><line transform="translate(89,0)" x2="0" y2="5" stroke="#888" stroke-width="1" opacity="1"/><line transform="translate(133,0)" x2="0" y2="5" stroke="#888" stroke-width="1" opacity="1"/><line transform="translate(178,0)" x2="0" y2="5" stroke="#888" stroke-width="1" opacity="1"/><line transform="translate(222,0)" x2="0" y2="5" stroke="#888" stroke-width="1" opacity="1"/><line transform="translate(267,0)" x2="0" y2="5" stroke="#888" stroke-width="1" opacity="1"/><line transform="translate(311,0)" x2="0" y2="5" stroke="#888" stroke-width="1" opacity="1"/><line transform="translate(356,0)" x2="0" y2="5" stroke="#888" stroke-width="1" opacity="1"/><line transform="translate(400,0)" x2="0" y2="5" stroke="#888" stroke-width="1" opacity="1"/><line transform="translate(444,0)" x2="0" y2="5" stroke="#888" stroke-width="1" opacity="1"/><line transform="translate(489,0)" x2="0" y2="5" stroke="#888" stroke-width="1" opacity="1"/><line transform="translate(533,0)" x2="0" y2="5" stroke="#888" stroke-width="1" opacity="1"/><line transform="translate(578,0)" x2="0" y2="5" stroke="#888" stroke-width="1" opacity="1"/><line transform="translate(622,0)" x2="0" y2="5" stroke="#888" stroke-width="1" opacity="1"/><line transform="translate(667,0)" x2="0" y2="5" stroke="#888" stroke-width="1" opacity="1"/><line transform="translate(711,0)" x2="0" y2="5" stroke="#888" stroke-width="1" opacity="1"/><line transform="translate(756,0)" x2="0" y2="5" stroke="#888" stroke-width="1" opacity="1"/><line transform="translate(800,0)" x2="0" y2="5" stroke="#888" stroke-width="1" opacity="1"/></g><g class="mark-text role-axis-label" pointer-events="none"><text text-anchor="start" transform="translate(0,15)" font-family="sans-serif" font-size="10px" fill="#000" opacity="1">0</text><text text-anchor="middle" transform="translate(44.44444444444444,15)" font-family="sans-serif" font-size="10px" fill="#000" opacity="1">5</text><text text-anchor="middle" transform="translate(88.88888888888889,15)" font-family="sans-serif" font-size="10px" fill="#000" opacity="1">10</text><text text-anchor="middle" transform="translate(133.33333333333331,15)" font-family="sans-serif" font-size="10px" fill="#000" opacity="1">15</text><text text-anchor="middle" transform="translate(177.77777777777777,15)" font-family="sans-serif" font-size="10px" fill="#000" opacity="1">20</text><text text-anchor="middle" transform="translate(222.22222222222223,15)" font-family="sans-serif" font-size="10px" fill="#000" opacity="1">25</text><text text-anchor="middle" transform="translate(266.66666666666663,15)" font-family="sans-serif" font-size="10px" fill="#000" opacity="1">30</text><text text-anchor="middle" transform="translate(311.11111111111114,15)" font-family="sans-serif" font-size="10px" fill="#000" opacity="1">35</text><text text-anchor="middle" transform="translate(355.55555555555554,15)" font-family="sans-serif" font-size="10px" fill="#000" opacity="1">40</text><text text-anchor="middle" transform="translate(400,15)" font-family="sans-serif" font-size="10px" fill="#000" opacity="1">45</text><text text-anchor="middle" transform="translate(444.44444444444446,15)" font-family="sans-serif" font-size="10px" fill="#000" opacity="1">50</text><text text-anchor="middle" transform="translate(488.8888888888889,15)" font-family="sans-serif" font-size="10px" fill="#000" opacity="1">55</text><text text-anchor="middle" transform="translate(533.3333333333333,15)" font-family="sans-serif" font-size="10px" fill="#000" opacity="1">60</text><text text-anchor="middle" transform="translate(577.7777777777777,15)" font-family="sans-serif" font-size="10px" fill="#000" opacity="1">65</text><text text-anchor="middle" transform="translate(622.2222222222223,15)" font-family="sans-serif" font-size="10px" fill="#000" opacity="1">70</text><text text-anchor="middle" transform="translate(666.6666666666667,15)" font-family="sans-serif" font-size="10px" fill="#000" opacity="1">75</text><text text-anchor="middle" transform="translate(711.1111111111111,15)" font-family="sans-serif" font-size="10px" fill="#000" opacity="1">80</text><text text-anchor="middle" transform="translate(755.5555555555555,15)" font-family="sans-serif" font-size="10px" fill="#000" opacity="1">85</text><text text-anchor="end" transform="translate(800,15)" font-family="sans-serif" font-size="10px" fill="#000" opacity="1">90</text></g><g class="mark-rule role-axis-domain" pointer-events="none"><line transform="translate(0,0)" x2="800" y2="0" stroke="#888" stroke-width="1" opacity="1"/></g><g class="mark-text role-axis-title" pointer-events="none"><text text-anchor="middle" transform="translate(400,30)" font-family="sans-serif" font-size="11px" font-weight="bold" fill="#000" opacity="1">Codon Site</text></g></g><path class="foreground" aria-hidden="true" d="" pointer-events="none" display="none"/></g></g><g class="mark-group role-axis" role="graphics-symbol" aria-roledescription="axis" aria-label="Y-axis titled 'dN/dS estimate' for a sqrt scale with values from 0 to 5"><g transform="translate(0.5,0.5)"><path class="background" aria-hidden="true" d="M0,0h0v0h0Z" pointer-events="none"/><g><g class="mark-rule role-axis-tick" pointer-events="none"><line transform="translate(0,600)" x2="-5" y2="0" stroke="#888" stroke-width="1" opacity="1"/><line transform="translate(0,410)" x2="-5" y2="0" stroke="#888" stroke-width="1" opacity="1"/><line transform="translate(0,332)" x2="-5" y2="0" stroke="#888" stroke-width="1" opacity="1"/><line transform="translate(0,271)" x2="-5" y2="0" stroke="#888" stroke-width="1" opacity="1"/><line transform="translate(0,221)" x2="-5" y2="0" stroke="#888" stroke-width="1" opacity="1"/><line transform="translate(0,176)" x2="-5" y2="0" stroke="#888" stroke-width="1" opacity="1"/><line transform="translate(0,135)" x2="-5" y2="0" stroke="#888" stroke-width="1" opacity="1"/><line transform="translate(0,98)" x2="-5" y2="0" stroke="#888" stroke-width="1" opacity="1"/><line transform="translate(0,63)" x2="-5" y2="0" stroke="#888" stroke-width="1" opacity="1"/><line transform="translate(0,31)" x2="-5" y2="0" stroke="#888" stroke-width="1" opacity="1"/><line transform="translate(0,0)" x2="-5" y2="0" stroke="#888" stroke-width="1" opacity="1"/></g><g class="mark-text role-axis-label" pointer-events="none"><text text-anchor="end" transform="translate(-7,603)" font-family="sans-serif" font-size="10px" fill="#000" opacity="1">0.0</text><text text-anchor="end" transform="translate(-7,413.2633403898972)" font-family="sans-serif" font-size="10px" fill="#000" opacity="1">0.5</text><text text-anchor="end" transform="translate(-7,334.67184270002525)" font-family="sans-serif" font-size="10px" fill="#000" opacity="1">1.0</text><text text-anchor="end" transform="translate(-7,274.36646549690033)" font-family="sans-serif" font-size="10px" fill="#000" opacity="1">1.5</text><text text-anchor="end" transform="translate(-7,223.52668077979448)" font-family="sans-serif" font-size="10px" fill="#000" opacity="1">2.0</text><text text-anchor="end" transform="translate(-7,178.73593128807147)" font-family="sans-serif" font-size="10px" fill="#000" opacity="1">2.5</text><text text-anchor="end" transform="translate(-7,138.24199845511004)" font-family="sans-serif" font-size="10px" fill="#000" opacity="1">3.0</text><text text-anchor="end" transform="translate(-7,101.00398407955473)" font-family="sans-serif" font-size="10px" fill="#000" opacity="1">3.5</text><text text-anchor="end" transform="translate(-7,66.34368540005049)" font-family="sans-serif" font-size="10px" fill="#000" opacity="1">4.0</text><text text-anchor="end" transform="translate(-7,33.790021169691805)" font-family="sans-serif" font-size="10px" fill="#000" opacity="1">4.5</text><text text-anchor="end" transform="translate(-7,3)" font-family="sans-serif" font-size="10px" fill="#000" opacity="1">5.0</text></g><g class="mark-rule role-axis-domain" pointer-events="none"><line transform="translate(0,600)" x2="0" y2="-600" stroke="#888" stroke-width="1" opacity="1"/></g><g class="mark-text role-axis-title" pointer-events="none"><text text-anchor="middle" transform="translate(-24.9013671875,300) rotate(-90) translate(0,-2)" font-family="sans-serif" font-size="11px" font-weight="bold" fill="#000" opacity="1">dN/dS estimate</text></g></g><path class="foreground" aria-hidden="true" d="" pointer-events="none" display="none"/></g></g><g class="mark-symbol role-mark layer_0_marks" clip-path="url(#clip1)" role="graphics-object" aria-roledescription="symbol mark container"><path aria-label="Codon Site: 1; dN/dS estimate: 0" role="graphics-symbol" aria-roledescription="circle" transform="translate(8.88888888888889,600)" d="M4.472,0A4.472,4.472,0,1,1,-4.472,0A4.472,4.472,0,1,1,4.472,0" fill="lightgray" stroke-width="2" opacity="0.9"/><path aria-label="Codon Site: 2; dN/dS estimate: 4.19507656213e-10" role="graphics-symbol" aria-roledescription="circle" transform="translate(17.77777777777778,599.9945041332578)" d="M4.472,0A4.472,4.472,0,1,1,-4.472,0A4.472,4.472,0,1,1,4.472,0" fill="red" stroke-width="2" opacity="0.9"/><path aria-label="Codon Site: 3; dN/dS estimate: 3.86169958654e-8" role="graphics-symbol" aria-roledescription="circle" transform="translate(26.666666666666668,599.9472702768611)" d="M4.472,0A4.472,4.472,0,1,1,-4.472,0A4.472,4.472,0,1,1,4.472,0" fill="red" stroke-width="2" opacity="0.9"/><path aria-label="Codon Site: 4; dN/dS estimate: 0.020892384253" role="graphics-symbol" aria-roledescription="circle" transform="translate(35.55555555555556,561.2153166028403)" d="M4.472,0A4.472,4.472,0,1,1,-4.472,0A4.472,4.472,0,1,1,4.472,0" fill="red" stroke-width="2" opacity="0.9"/><path aria-label="Codon Site: 5; dN/dS estimate: 2.24958416342e-8" role="graphics-symbol" aria-roledescription="circle" transform="translate(44.44444444444444,599.9597544959323)" d="M4.472,0A4.472,4.472,0,1,1,-4.472,0A4.472,4.472,0,1,1,4.472,0" fill="red" stroke-width="2" opacity="0.9"/><path aria-label="Codon Site: 6; dN/dS estimate: 3.66211409125e-7" role="graphics-symbol" aria-roledescription="circle" transform="translate(53.333333333333336,599.8376201322301)" d="M4.472,0A4.472,4.472,0,1,1,-4.472,0A4.472,4.472,0,1,1,4.472,0" fill="red" stroke-width="2" opacity="0.9"/><path aria-label="Codon Site: 7; dN/dS estimate: 1.25291882096e-7" role="graphics-symbol" aria-roledescription="circle" transform="translate(62.22222222222222,599.9050209733105)" d="M4.472,0A4.472,4.472,0,1,1,-4.472,0A4.472,4.472,0,1,1,4.472,0" fill="red" stroke-width="2" opacity="0.9"/><path aria-label="Codon Site: 8; dN/dS estimate: 9.72614368099e-7" role="graphics-symbol" aria-roledescription="circle" transform="translate(71.11111111111111,599.7353715160775)" d="M4.472,0A4.472,4.472,0,1,1,-4.472,0A4.472,4.472,0,1,1,4.472,0" fill="red" stroke-width="2" opacity="0.9"/><path aria-label="Codon Site: 9; dN/dS estimate: 0.0719766393867" role="graphics-symbol" aria-roledescription="circle" transform="translate(80,528.011681254216)" d="M4.472,0A4.472,4.472,0,1,1,-4.472,0A4.472,4.472,0,1,1,4.472,0" fill="red" stroke-width="2" opacity="0.9"/><path aria-label="Codon Site: 10; dN/dS estimate: 4.14073831138e-9" role="graphics-symbol" aria-roledescription="circle" transform="translate(88.88888888888889,599.982733467099)" d="M4.472,0A4.472,4.472,0,1,1,-4.472,0A4.472,4.472,0,1,1,4.472,0" fill="red" stroke-width="2" opacity="0.9"/><path aria-label="Codon Site: 11; dN/dS estimate: 0.0467087175209" role="graphics-symbol" aria-roledescription="circle" transform="translate(97.77777777777777,542.0083828342019)" d="M4.472,0A4.472,4.472,0,1,1,-4.472,0A4.472,4.472,0,1,1,4.472,0" fill="red" stroke-width="2" opacity="0.9"/><path aria-label="Codon Site: 12; dN/dS estimate: 0.0323948314132" role="graphics-symbol" aria-roledescription="circle" transform="translate(106.66666666666667,551.7047842767636)" d="M4.472,0A4.472,4.472,0,1,1,-4.472,0A4.472,4.472,0,1,1,4.472,0" fill="red" stroke-width="2" opacity="0.9"/><path aria-label="Codon Site: 13; dN/dS estimate: 0.0954875850903" role="graphics-symbol" aria-roledescription="circle" transform="translate(115.55555555555554,517.0837402767166)" d="M4.472,0A4.472,4.472,0,1,1,-4.472,0A4.472,4.472,0,1,1,4.472,0" fill="red" stroke-width="2" opacity="0.9"/><path aria-label="Codon Site: 14; dN/dS estimate: 0.0411279477334" role="graphics-symbol" aria-roledescription="circle" transform="translate(124.44444444444444,545.5829784276688)" d="M4.472,0A4.472,4.472,0,1,1,-4.472,0A4.472,4.472,0,1,1,4.472,0" fill="red" stroke-width="2" opacity="0.9"/><path aria-label="Codon Site: 15; dN/dS estimate: 0.163723283194" role="graphics-symbol" aria-roledescription="circle" transform="translate(133.33333333333331,491.4270918231311)" d="M4.472,0A4.472,4.472,0,1,1,-4.472,0A4.472,4.472,0,1,1,4.472,0" fill="lightgray" stroke-width="2" opacity="0.9"/><path aria-label="Codon Site: 16; dN/dS estimate: 0.106697378615" role="graphics-symbol" aria-roledescription="circle" transform="translate(142.22222222222223,512.3517754871596)" d="M4.472,0A4.472,4.472,0,1,1,-4.472,0A4.472,4.472,0,1,1,4.472,0" fill="red" stroke-width="2" opacity="0.9"/><path aria-label="Codon Site: 17; dN/dS estimate: 0.0198291603209" role="graphics-symbol" aria-roledescription="circle" transform="translate(151.11111111111111,562.2150884200422)" d="M4.472,0A4.472,4.472,0,1,1,-4.472,0A4.472,4.472,0,1,1,4.472,0" fill="red" stroke-width="2" opacity="0.9"/><path aria-label="Codon Site: 18; dN/dS estimate: 0.348755415704" role="graphics-symbol" aria-roledescription="circle" transform="translate(160,441.53741788452425)" d="M4.472,0A4.472,4.472,0,1,1,-4.472,0A4.472,4.472,0,1,1,4.472,0" fill="lightgray" stroke-width="2" opacity="0.9"/><path aria-label="Codon Site: 19; dN/dS estimate: 0.00000246519782323" role="graphics-symbol" aria-roledescription="circle" transform="translate(168.88888888888889,599.5786993433753)" d="M4.472,0A4.472,4.472,0,1,1,-4.472,0A4.472,4.472,0,1,1,4.472,0" fill="red" stroke-width="2" opacity="0.9"/><path aria-label="Codon Site: 20; dN/dS estimate: 0.00658339100425" role="graphics-symbol" aria-roledescription="circle" transform="translate(177.77777777777777,578.2283635822604)" d="M4.472,0A4.472,4.472,0,1,1,-4.472,0A4.472,4.472,0,1,1,4.472,0" fill="red" stroke-width="2" opacity="0.9"/><path aria-label="Codon Site: 21; dN/dS estimate: 0.0587154658039" role="graphics-symbol" aria-roledescription="circle" transform="translate(186.66666666666666,534.9806679680338)" d="M4.472,0A4.472,4.472,0,1,1,-4.472,0A4.472,4.472,0,1,1,4.472,0" fill="red" stroke-width="2" opacity="0.9"/><path aria-label="Codon Site: 22; dN/dS estimate: 0.418899312121" role="graphics-symbol" aria-roledescription="circle" transform="translate(195.55555555555554,426.3314925706301)" d="M4.472,0A4.472,4.472,0,1,1,-4.472,0A4.472,4.472,0,1,1,4.472,0" fill="lightgray" stroke-width="2" opacity="0.9"/><path aria-label="Codon Site: 23; dN/dS estimate: 1.92606929791e-8" role="graphics-symbol" aria-roledescription="circle" transform="translate(204.44444444444443,599.9627606405198)" d="M4.472,0A4.472,4.472,0,1,1,-4.472,0A4.472,4.472,0,1,1,4.472,0" fill="red" stroke-width="2" opacity="0.9"/><path aria-label="Codon Site: 24; dN/dS estimate: 0.0283158627333" role="graphics-symbol" aria-roledescription="circle" transform="translate(213.33333333333334,554.8475679857717)" d="M4.472,0A4.472,4.472,0,1,1,-4.472,0A4.472,4.472,0,1,1,4.472,0" fill="red" stroke-width="2" opacity="0.9"/><path aria-label="Codon Site: 25; dN/dS estimate: 0.0189515334187" role="graphics-symbol" aria-roledescription="circle" transform="translate(222.22222222222223,563.0607200104632)" d="M4.472,0A4.472,4.472,0,1,1,-4.472,0A4.472,4.472,0,1,1,4.472,0" fill="red" stroke-width="2" opacity="0.9"/><path aria-label="Codon Site: 26; dN/dS estimate: 0.565046080482" role="graphics-symbol" aria-roledescription="circle" transform="translate(231.1111111111111,398.29893953001)" d="M4.472,0A4.472,4.472,0,1,1,-4.472,0A4.472,4.472,0,1,1,4.472,0" fill="lightgray" stroke-width="2" opacity="0.9"/><path aria-label="Codon Site: 27; dN/dS estimate: 0.179105002622" role="graphics-symbol" aria-roledescription="circle" transform="translate(240,486.44137994501585)" d="M4.472,0A4.472,4.472,0,1,1,-4.472,0A4.472,4.472,0,1,1,4.472,0" fill="lightgray" stroke-width="2" opacity="0.9"/><path aria-label="Codon Site: 28; dN/dS estimate: 0.229099859976" role="graphics-symbol" aria-roledescription="circle" transform="translate(248.88888888888889,471.56639879573044)" d="M4.472,0A4.472,4.472,0,1,1,-4.472,0A4.472,4.472,0,1,1,4.472,0" fill="lightgray" stroke-width="2" opacity="0.9"/><path aria-label="Codon Site: 29; dN/dS estimate: 0.0250949410532" role="graphics-symbol" aria-roledescription="circle" transform="translate(257.77777777777777,557.4931093135633)" d="M4.472,0A4.472,4.472,0,1,1,-4.472,0A4.472,4.472,0,1,1,4.472,0" fill="red" stroke-width="2" opacity="0.9"/><path aria-label="Codon Site: 30; dN/dS estimate: 0.0198871850304" role="graphics-symbol" aria-roledescription="circle" transform="translate(266.66666666666663,562.1598451088558)" d="M4.472,0A4.472,4.472,0,1,1,-4.472,0A4.472,4.472,0,1,1,4.472,0" fill="red" stroke-width="2" opacity="0.9"/><path aria-label="Codon Site: 31; dN/dS estimate: 8.42483938609e-9" role="graphics-symbol" aria-roledescription="circle" transform="translate(275.55555555555554,599.9753709838647)" d="M4.472,0A4.472,4.472,0,1,1,-4.472,0A4.472,4.472,0,1,1,4.472,0" fill="red" stroke-width="2" opacity="0.9"/><path aria-label="Codon Site: 32; dN/dS estimate: 0.0489214929961" role="graphics-symbol" aria-roledescription="circle" transform="translate(284.44444444444446,540.6506318843963)" d="M4.472,0A4.472,4.472,0,1,1,-4.472,0A4.472,4.472,0,1,1,4.472,0" fill="red" stroke-width="2" opacity="0.9"/><path aria-label="Codon Site: 33; dN/dS estimate: 0.00598399143565" role="graphics-symbol" aria-roledescription="circle" transform="translate(293.3333333333333,579.2431364756851)" d="M4.472,0A4.472,4.472,0,1,1,-4.472,0A4.472,4.472,0,1,1,4.472,0" fill="red" stroke-width="2" opacity="0.9"/><path aria-label="Codon Site: 34; dN/dS estimate: 4.3538215013e-8" role="graphics-symbol" aria-roledescription="circle" transform="translate(302.22222222222223,599.9440111486014)" d="M4.472,0A4.472,4.472,0,1,1,-4.472,0A4.472,4.472,0,1,1,4.472,0" fill="red" stroke-width="2" opacity="0.9"/><path aria-label="Codon Site: 35; dN/dS estimate: 0.00930993837436" role="graphics-symbol" aria-roledescription="circle" transform="translate(311.11111111111114,574.10954687624)" d="M4.472,0A4.472,4.472,0,1,1,-4.472,0A4.472,4.472,0,1,1,4.472,0" fill="red" stroke-width="2" opacity="0.9"/><path aria-label="Codon Site: 36; dN/dS estimate: 1.28930309869e-12" role="graphics-symbol" aria-roledescription="circle" transform="translate(320,599.9996953201302)" d="M4.472,0A4.472,4.472,0,1,1,-4.472,0A4.472,4.472,0,1,1,4.472,0" fill="red" stroke-width="2" opacity="0.9"/><path aria-label="Codon Site: 37; dN/dS estimate: 0.666905048442" role="graphics-symbol" aria-roledescription="circle" transform="translate(328.88888888888886,380.8718103761042)" d="M4.472,0A4.472,4.472,0,1,1,-4.472,0A4.472,4.472,0,1,1,4.472,0" fill="lightgray" stroke-width="2" opacity="0.9"/><path aria-label="Codon Site: 38; dN/dS estimate: 1.56009887406e-8" role="graphics-symbol" aria-roledescription="circle" transform="translate(337.77777777777777,599.966484761834)" d="M4.472,0A4.472,4.472,0,1,1,-4.472,0A4.472,4.472,0,1,1,4.472,0" fill="red" stroke-width="2" opacity="0.9"/><path aria-label="Codon Site: 39; dN/dS estimate: 0" role="graphics-symbol" aria-roledescription="circle" transform="translate(346.6666666666667,600)" d="M4.472,0A4.472,4.472,0,1,1,-4.472,0A4.472,4.472,0,1,1,4.472,0" fill="lightgray" stroke-width="2" opacity="0.9"/><path aria-label="Codon Site: 40; dN/dS estimate: 0.153040188963" role="graphics-symbol" aria-roledescription="circle" transform="translate(355.55555555555554,495.02908209734926)" d="M4.472,0A4.472,4.472,0,1,1,-4.472,0A4.472,4.472,0,1,1,4.472,0" fill="lightgray" stroke-width="2" opacity="0.9"/><path aria-label="Codon Site: 41; dN/dS estimate: 10000" role="graphics-symbol" aria-roledescription="circle" transform="translate(364.44444444444446,0)" d="M4.472,0A4.472,4.472,0,1,1,-4.472,0A4.472,4.472,0,1,1,4.472,0" fill="lightgray" stroke-width="2" opacity="0.9"/><path aria-label="Codon Site: 42; dN/dS estimate: 0.014278021753" role="graphics-symbol" aria-roledescription="circle" transform="translate(373.3333333333333,567.9372869798143)" d="M4.472,0A4.472,4.472,0,1,1,-4.472,0A4.472,4.472,0,1,1,4.472,0" fill="red" stroke-width="2" opacity="0.9"/><path aria-label="Codon Site: 43; dN/dS estimate: 0.0481732512734" role="graphics-symbol" aria-roledescription="circle" transform="translate(382.22222222222223,541.1062474307673)" d="M4.472,0A4.472,4.472,0,1,1,-4.472,0A4.472,4.472,0,1,1,4.472,0" fill="red" stroke-width="2" opacity="0.9"/><path aria-label="Codon Site: 44; dN/dS estimate: 0.29961122818" role="graphics-symbol" aria-roledescription="circle" transform="translate(391.1111111111111,453.12587556364525)" d="M4.472,0A4.472,4.472,0,1,1,-4.472,0A4.472,4.472,0,1,1,4.472,0" fill="lightgray" stroke-width="2" opacity="0.9"/><path aria-label="Codon Site: 45; dN/dS estimate: 1.84700408041e-9" role="graphics-symbol" aria-roledescription="circle" transform="translate(400,599.9884681183761)" d="M4.472,0A4.472,4.472,0,1,1,-4.472,0A4.472,4.472,0,1,1,4.472,0" fill="red" stroke-width="2" opacity="0.9"/><path aria-label="Codon Site: 46; dN/dS estimate: 0.0468761843886" role="graphics-symbol" aria-roledescription="circle" transform="translate(408.88888888888886,541.9045158727577)" d="M4.472,0A4.472,4.472,0,1,1,-4.472,0A4.472,4.472,0,1,1,4.472,0" fill="red" stroke-width="2" opacity="0.9"/><path aria-label="Codon Site: 47; dN/dS estimate: 0.0117547004458" role="graphics-symbol" aria-roledescription="circle" transform="translate(417.7777777777778,570.9081036696465)" d="M4.472,0A4.472,4.472,0,1,1,-4.472,0A4.472,4.472,0,1,1,4.472,0" fill="red" stroke-width="2" opacity="0.9"/><path aria-label="Codon Site: 48; dN/dS estimate: 0" role="graphics-symbol" aria-roledescription="circle" transform="translate(426.6666666666667,600)" d="M4.472,0A4.472,4.472,0,1,1,-4.472,0A4.472,4.472,0,1,1,4.472,0" fill="lightgray" stroke-width="2" opacity="0.9"/><path aria-label="Codon Site: 49; dN/dS estimate: 0.0144757094945" role="graphics-symbol" aria-roledescription="circle" transform="translate(435.55555555555554,567.7160863029137)" d="M4.472,0A4.472,4.472,0,1,1,-4.472,0A4.472,4.472,0,1,1,4.472,0" fill="red" stroke-width="2" opacity="0.9"/><path aria-label="Codon Site: 50; dN/dS estimate: 0.114325408504" role="graphics-symbol" aria-roledescription="circle" transform="translate(444.44444444444446,509.27277469071703)" d="M4.472,0A4.472,4.472,0,1,1,-4.472,0A4.472,4.472,0,1,1,4.472,0" fill="red" stroke-width="2" opacity="0.9"/><path aria-label="Codon Site: 51; dN/dS estimate: 0.180080757812" role="graphics-symbol" aria-roledescription="circle" transform="translate(453.3333333333333,486.132469235316)" d="M4.472,0A4.472,4.472,0,1,1,-4.472,0A4.472,4.472,0,1,1,4.472,0" fill="lightgray" stroke-width="2" opacity="0.9"/><path aria-label="Codon Site: 52; dN/dS estimate: 0" role="graphics-symbol" aria-roledescription="circle" transform="translate(462.2222222222222,600)" d="M4.472,0A4.472,4.472,0,1,1,-4.472,0A4.472,4.472,0,1,1,4.472,0" fill="lightgray" stroke-width="2" opacity="0.9"/><path aria-label="Codon Site: 53; dN/dS estimate: 1.1240613894e-7" role="graphics-symbol" aria-roledescription="circle" transform="translate(471.11111111111114,599.9100375522582)" d="M4.472,0A4.472,4.472,0,1,1,-4.472,0A4.472,4.472,0,1,1,4.472,0" fill="red" stroke-width="2" opacity="0.9"/><path aria-label="Codon Site: 54; dN/dS estimate: 0.0000192077956259" role="graphics-symbol" aria-roledescription="circle" transform="translate(480,598.8240062563665)" d="M4.472,0A4.472,4.472,0,1,1,-4.472,0A4.472,4.472,0,1,1,4.472,0" fill="red" stroke-width="2" opacity="0.9"/><path aria-label="Codon Site: 55; dN/dS estimate: 0.0130630621467" role="graphics-symbol" aria-roledescription="circle" transform="translate(488.8888888888889,569.3317676649061)" d="M4.472,0A4.472,4.472,0,1,1,-4.472,0A4.472,4.472,0,1,1,4.472,0" fill="red" stroke-width="2" opacity="0.9"/><path aria-label="Codon Site: 56; dN/dS estimate: 0.0253954401158" role="graphics-symbol" aria-roledescription="circle" transform="translate(497.77777777777777,557.2393675404729)" d="M4.472,0A4.472,4.472,0,1,1,-4.472,0A4.472,4.472,0,1,1,4.472,0" fill="red" stroke-width="2" opacity="0.9"/><path aria-label="Codon Site: 57; dN/dS estimate: 5.76194164954e-8" role="graphics-symbol" aria-roledescription="circle" transform="translate(506.66666666666663,599.9355903890116)" d="M4.472,0A4.472,4.472,0,1,1,-4.472,0A4.472,4.472,0,1,1,4.472,0" fill="red" stroke-width="2" opacity="0.9"/><path aria-label="Codon Site: 58; dN/dS estimate: 0.0128674906255" role="graphics-symbol" aria-roledescription="circle" transform="translate(515.5555555555555,569.5622056476006)" d="M4.472,0A4.472,4.472,0,1,1,-4.472,0A4.472,4.472,0,1,1,4.472,0" fill="red" stroke-width="2" opacity="0.9"/><path aria-label="Codon Site: 59; dN/dS estimate: 0.039785915499" role="graphics-symbol" aria-roledescription="circle" transform="translate(524.4444444444445,546.4781734623311)" d="M4.472,0A4.472,4.472,0,1,1,-4.472,0A4.472,4.472,0,1,1,4.472,0" fill="red" stroke-width="2" opacity="0.9"/><path aria-label="Codon Site: 60; dN/dS estimate: 6.58907585426e-11" role="graphics-symbol" aria-roledescription="circle" transform="translate(533.3333333333333,599.9978218965555)" d="M4.472,0A4.472,4.472,0,1,1,-4.472,0A4.472,4.472,0,1,1,4.472,0" fill="red" stroke-width="2" opacity="0.9"/><path aria-label="Codon Site: 61; dN/dS estimate: 0.049305676012" role="graphics-symbol" aria-roledescription="circle" transform="translate(542.2222222222223,540.4180507799065)" d="M4.472,0A4.472,4.472,0,1,1,-4.472,0A4.472,4.472,0,1,1,4.472,0" fill="red" stroke-width="2" opacity="0.9"/><path aria-label="Codon Site: 62; dN/dS estimate: 0.019164784006" role="graphics-symbol" aria-roledescription="circle" transform="translate(551.1111111111111,562.8534732656115)" d="M4.472,0A4.472,4.472,0,1,1,-4.472,0A4.472,4.472,0,1,1,4.472,0" fill="red" stroke-width="2" opacity="0.9"/><path aria-label="Codon Site: 63; dN/dS estimate: 2.14808979357e-7" role="graphics-symbol" aria-roledescription="circle" transform="translate(560,599.8756366351626)" d="M4.472,0A4.472,4.472,0,1,1,-4.472,0A4.472,4.472,0,1,1,4.472,0" fill="red" stroke-width="2" opacity="0.9"/><path aria-label="Codon Site: 64; dN/dS estimate: 6.13789496388e-8" role="graphics-symbol" aria-roledescription="circle" transform="translate(568.8888888888889,599.9335223016794)" d="M4.472,0A4.472,4.472,0,1,1,-4.472,0A4.472,4.472,0,1,1,4.472,0" fill="red" stroke-width="2" opacity="0.9"/><path aria-label="Codon Site: 65; dN/dS estimate: 1.51204725841e-8" role="graphics-symbol" aria-roledescription="circle" transform="translate(577.7777777777777,599.9670049393687)" d="M4.472,0A4.472,4.472,0,1,1,-4.472,0A4.472,4.472,0,1,1,4.472,0" fill="red" stroke-width="2" opacity="0.9"/><path aria-label="Codon Site: 66; dN/dS estimate: 6.47823833256e-7" role="graphics-symbol" aria-roledescription="circle" transform="translate(586.6666666666666,599.7840293631198)" d="M4.472,0A4.472,4.472,0,1,1,-4.472,0A4.472,4.472,0,1,1,4.472,0" fill="lightgray" stroke-width="2" opacity="0.9"/><path aria-label="Codon Site: 67; dN/dS estimate: 0" role="graphics-symbol" aria-roledescription="circle" transform="translate(595.5555555555555,600)" d="M4.472,0A4.472,4.472,0,1,1,-4.472,0A4.472,4.472,0,1,1,4.472,0" fill="lightgray" stroke-width="2" opacity="0.9"/><path aria-label="Codon Site: 68; dN/dS estimate: 0.0731716319104" role="graphics-symbol" aria-roledescription="circle" transform="translate(604.4444444444445,527.416548046057)" d="M4.472,0A4.472,4.472,0,1,1,-4.472,0A4.472,4.472,0,1,1,4.472,0" fill="lightgray" stroke-width="2" opacity="0.9"/><path aria-label="Codon Site: 69; dN/dS estimate: 0.137362409873" role="graphics-symbol" aria-roledescription="circle" transform="translate(613.3333333333334,500.55105073011777)" d="M4.472,0A4.472,4.472,0,1,1,-4.472,0A4.472,4.472,0,1,1,4.472,0" fill="red" stroke-width="2" opacity="0.9"/><path aria-label="Codon Site: 70; dN/dS estimate: 0.0308550481907" role="graphics-symbol" aria-roledescription="circle" transform="translate(622.2222222222223,552.8665355641265)" d="M4.472,0A4.472,4.472,0,1,1,-4.472,0A4.472,4.472,0,1,1,4.472,0" fill="red" stroke-width="2" opacity="0.9"/><path aria-label="Codon Site: 71; dN/dS estimate: 0.0479422874178" role="graphics-symbol" aria-roledescription="circle" transform="translate(631.1111111111111,541.2475983973558)" d="M4.472,0A4.472,4.472,0,1,1,-4.472,0A4.472,4.472,0,1,1,4.472,0" fill="red" stroke-width="2" opacity="0.9"/><path aria-label="Codon Site: 72; dN/dS estimate: 0.198044890278" role="graphics-symbol" aria-roledescription="circle" transform="translate(640,480.5879733861292)" d="M4.472,0A4.472,4.472,0,1,1,-4.472,0A4.472,4.472,0,1,1,4.472,0" fill="lightgray" stroke-width="2" opacity="0.9"/><path aria-label="Codon Site: 73; dN/dS estimate: 1.22156587041e-7" role="graphics-symbol" aria-roledescription="circle" transform="translate(648.8888888888889,599.9062168764277)" d="M4.472,0A4.472,4.472,0,1,1,-4.472,0A4.472,4.472,0,1,1,4.472,0" fill="red" stroke-width="2" opacity="0.9"/><path aria-label="Codon Site: 74; dN/dS estimate: 0.0596668446411" role="graphics-symbol" aria-roledescription="circle" transform="translate(657.7777777777777,534.456023814879)" d="M4.472,0A4.472,4.472,0,1,1,-4.472,0A4.472,4.472,0,1,1,4.472,0" fill="red" stroke-width="2" opacity="0.9"/><path aria-label="Codon Site: 75; dN/dS estimate: 0.0128714285075" role="graphics-symbol" aria-roledescription="circle" transform="translate(666.6666666666667,569.557548513031)" d="M4.472,0A4.472,4.472,0,1,1,-4.472,0A4.472,4.472,0,1,1,4.472,0" fill="red" stroke-width="2" opacity="0.9"/><path aria-label="Codon Site: 76; dN/dS estimate: 1.44444392482e-8" role="graphics-symbol" aria-roledescription="circle" transform="translate(675.5555555555555,599.9677509748074)" d="M4.472,0A4.472,4.472,0,1,1,-4.472,0A4.472,4.472,0,1,1,4.472,0" fill="red" stroke-width="2" opacity="0.9"/><path aria-label="Codon Site: 77; dN/dS estimate: 2.92680176175e-9" role="graphics-symbol" aria-roledescription="circle" transform="translate(684.4444444444445,599.9854834671204)" d="M4.472,0A4.472,4.472,0,1,1,-4.472,0A4.472,4.472,0,1,1,4.472,0" fill="red" stroke-width="2" opacity="0.9"/><path aria-label="Codon Site: 78; dN/dS estimate: 0.00839685126821" role="graphics-symbol" aria-roledescription="circle" transform="translate(693.3333333333334,575.4119278650943)" d="M4.472,0A4.472,4.472,0,1,1,-4.472,0A4.472,4.472,0,1,1,4.472,0" fill="red" stroke-width="2" opacity="0.9"/><path aria-label="Codon Site: 79; dN/dS estimate: 0.0475108794041" role="graphics-symbol" aria-roledescription="circle" transform="translate(702.2222222222222,541.512537094751)" d="M4.472,0A4.472,4.472,0,1,1,-4.472,0A4.472,4.472,0,1,1,4.472,0" fill="red" stroke-width="2" opacity="0.9"/><path aria-label="Codon Site: 80; dN/dS estimate: 8.69368362837e-8" role="graphics-symbol" aria-roledescription="circle" transform="translate(711.1111111111111,599.9208833000408)" d="M4.472,0A4.472,4.472,0,1,1,-4.472,0A4.472,4.472,0,1,1,4.472,0" fill="red" stroke-width="2" opacity="0.9"/><path aria-label="Codon Site: 81; dN/dS estimate: 1.01664672095e-8" role="graphics-symbol" aria-roledescription="circle" transform="translate(720,599.9729447668817)" d="M4.472,0A4.472,4.472,0,1,1,-4.472,0A4.472,4.472,0,1,1,4.472,0" fill="red" stroke-width="2" opacity="0.9"/><path aria-label="Codon Site: 82; dN/dS estimate: 2.05367899373e-7" role="graphics-symbol" aria-roledescription="circle" transform="translate(728.8888888888889,599.8784002929491)" d="M4.472,0A4.472,4.472,0,1,1,-4.472,0A4.472,4.472,0,1,1,4.472,0" fill="red" stroke-width="2" opacity="0.9"/><path aria-label="Codon Site: 83; dN/dS estimate: 3.51015011711e-8" role="graphics-symbol" aria-roledescription="circle" transform="translate(737.7777777777778,599.949727660843)" d="M4.472,0A4.472,4.472,0,1,1,-4.472,0A4.472,4.472,0,1,1,4.472,0" fill="red" stroke-width="2" opacity="0.9"/><path aria-label="Codon Site: 84; dN/dS estimate: 0.00533464669391" role="graphics-symbol" aria-roledescription="circle" transform="translate(746.6666666666666,580.4016694088024)" d="M4.472,0A4.472,4.472,0,1,1,-4.472,0A4.472,4.472,0,1,1,4.472,0" fill="red" stroke-width="2" opacity="0.9"/></g><g class="mark-area role-mark layer_1_marks" role="graphics-object" aria-roledescription="area mark container"><path aria-label="CodonSite: 1; dN/dS LB: 0; dN/dS UB: 0" role="graphics-symbol" aria-roledescription="area mark" d="M8.889,600L17.778,600L26.667,600L35.556,580.528L44.444,600L53.333,600L62.222,600L71.111,600L80,559.207L88.889,600L97.778,576.695L106.667,588.568L115.556,552.841L124.444,578.195L133.333,539.29L142.222,579.193L151.111,579.29L160,538.066L168.889,600L177.778,594.834L186.667,584.746L195.556,497.927L204.444,600L213.333,577.819L222.222,591.279L231.111,500.959L240,545.069L248.889,530.376L257.778,583.131L266.667,591.052L275.556,600L284.444,567.361L293.333,595.077L302.222,600L311.111,593.848L320,600L328.889,484.127L337.778,600L346.667,600L355.556,558.157L364.444,0L373.333,584.311L382.222,576.345L391.111,521.976L400,600L408.889,576.423L417.778,593.094L426.667,600L435.556,587.129L444.444,553.712L453.333,572.962L462.222,600L471.111,600L480,600L488.889,587.774L497.778,589.874L506.667,600L515.556,592.855L524.444,574.366L533.333,600L542.222,568.476L551.111,591.235L560,600L568.889,600L577.778,600L586.667,600L595.556,600L604.444,564.784L613.333,559.632L622.222,581.128L631.111,570.392L640,543.026L648.889,600L657.778,568.114L666.667,592.799L675.556,600L684.444,600L693.333,594.17L702.222,576.439L711.111,600L720,600L728.889,600L737.778,600L746.667,595.355L746.667,557.261L737.778,472.932L728.889,485.955L720,554.01L711.111,542.382L702.222,492.058L693.333,546.159L684.444,566.637L675.556,572.659L666.667,534.172L657.778,486.462L648.889,456.428L640,377.542L631.111,501.757L622.222,511.349L613.333,419.061L604.444,470.427L595.556,600L586.667,407.136L577.778,567.197L568.889,550.012L560,573.56L551.111,517.149L542.222,499.171L533.333,546.934L524.444,501.546L515.556,531.235L506.667,515.409L497.778,506.795L488.889,541.763L480,542.37L471.111,542.217L462.222,600L453.333,353.225L444.444,436.663L435.556,538.839L426.667,600L417.778,536.745L408.889,495.068L400,550.67L391.111,353.75L382.222,492.44L373.333,545.403L364.444,0L355.556,402.329L346.667,600L337.778,567.498L328.889,179.918L320,558.046L311.111,543.469L302.222,551.046L293.333,554.901L284.444,496.648L275.556,516.519L266.667,516.931L257.778,519.173L248.889,388.939L240,397.878L231.111,247.519L222.222,518.853L213.333,523.052L204.444,561.108L195.556,315.53L186.667,451.545L177.778,552.964L168.889,543.643L160,295.217L151.111,535.455L142.222,409.733L133.333,412.838L124.444,498.016L115.556,437.701L106.667,493.89L97.778,492.124L88.889,574.188L80,479.208L71.111,554.617L62.222,557.272L53.333,477.037L44.444,564.732L35.556,528.245L26.667,552.327L17.778,566.806L8.889,600Z" fill="#4c78a8" opacity="0.5"/></g></g><path class="foreground" aria-hidden="true" d="" display="none"/></g></g></g><defs><clipPath id="clip1"><rect x="0" y="0" width="800" height="600"/></clipPath></defs></svg>