<svg xmlns="http://www.w3.org/2000/svg" xmlns:xlink="http://www.w3.org/1999/xlink" version="1.1" class="marks" width="847" height="647" viewBox="0 0 847 647"><rect width="847" height="647" fill="white"/><g fill="none" stroke-miterlimit="10" transform="translate(41,10)"><g class="mark-group role-frame root" role="graphics-object" aria-roledescription="group mark container"><g transform="translate(0,0)"><path class="background" aria-hidden="true" d="M0.5,0.5h800v600h-800Z" stroke="#ddd"/><g><g class="mark-group role-axis" aria-hidden="true"><g transform="translate(0.5,600.5)"><path class="background" aria-hidden="true" d="M0,0h0v0h0Z" pointer-events="none"/><g><g class="mark-rule role-axis-grid" pointer-events="none"><line transform="translate(0,-600)" x2="0" y2="600" stroke="#ddd" stroke-width="1" opacity="1"/><line transform="translate(40,-600)" x2="0" y2="600" stroke="#ddd" stroke-width="1" opacity="1"/><line transform="translate(80,-600)" x2="0" y2="600" stroke="#ddd" stroke-width="1" opacity="1"/><line transform="translate(120,-600)" x2="0" y2="600" stroke="#ddd" stroke-width="1" opacity="1"/><line transform="translate(160,-600)" x2="0" y2="600" stroke="#ddd" stroke-width="1" opacity="1"/><line transform="translate(200,-600)" x2="0" y2="600" stroke="#ddd" stroke-width="1" opacity="1"/><line transform="translate(240,-600)" x2="0" y2="600" stroke="#ddd" stroke-width="1" opacity="1"/><line transform="translate(280,-600)" x2="0" y2="600" stroke="#ddd" stroke-width="1" opacity="1"/><line transform="translate(320,-600)" x2="0" y2="600" stroke="#ddd" stroke-width="1" opacity="1"/><line transform="translate(360,-600)" x2="0" y2="600" stroke="#ddd" stroke-width="1" opacity="1"/><line transform="translate(400,-600)" x2="0" y2="600" stroke="#ddd" stroke-width="1" opacity="1"/><line transform="translate(440,-600)" x2="0" y2="600" stroke="#ddd" stroke-width="1" opacity="1"/><line transform="translate(480,-600)" x2="0" y2="600" stroke="#ddd" stroke-width="1" opacity="1"/><line transform="translate(520,-600)" x2="0" y2="600" stroke="#ddd" stroke-width="1" opacity="1"/><line transform="translate(560,-600)" x2="0" y2="600" stroke="#ddd" stroke-width="1" opacity="1"/><line transform="translate(600,-600)" x2="0" y2="600" stroke="#ddd" stroke-width="1" opacity="1"/><line transform="translate(640,-600)" x2="0" y2="600" stroke="#ddd" stroke-width="1" opacity="1"/><line transform="translate(680,-600)" x2="0" y2="600" stroke="#ddd" stroke-width="1" opacity="1"/><line transform="translate(720,-600)" x2="0" y2="600" stroke="#ddd" stroke-width="1" opacity="1"/><line transform="translate(760,-600)" x2="0" y2="600" stroke="#ddd" stroke-width="1" opacity="1"/><line transform="translate(800,-600)" x2="0" y2="600" stroke="#ddd" stroke-width="1" opacity="1"/></g></g><path class="foreground" aria-hidden="true" d="" pointer-events="none" display="none"/></g></g><g class="mark-group role-axis" aria-hidden="true"><g transform="translate(0.5,0.5)"><path class="background" aria-hidden="true" d="M0,0h0v0h0Z" pointer-events="none"/><g><g class="mark-rule role-axis-grid" pointer-events="none"><line transform="translate(0,600)" x2="800" y2="0" stroke="#ddd" stroke-width="1" opacity="1"/><line transform="translate(0,410)" x2="800" y2="0" stroke="#ddd" stroke-width="1" opacity="1"/><line transform="translate(0,332)" x2="800" y2="0" stroke="#ddd" stroke-width="1" opacity="1"/><line transform="translate(0,271)" x2="800" y2="0" stroke="#ddd" stroke-width="1" opacity="1"/><line transform="translate(0,221)" x2="800" y2="0" stroke="#ddd" stroke-width="1" opacity="1"/><line transform="translate(0,176)" x2="800" y2="0" stroke="#ddd" stroke-width="1" opacity="1"/><line transform="translate(0,135)" x2="800" y2="0" stroke="#ddd" stroke-width="1" opacity="1"/><line transform="translate(0,98)" x2="800" y2="0" stroke="#ddd" stroke-width="1" opacity="1"/><line transform="translate(0,63)" x2="800" y2="0" stroke="#ddd" stroke-width="1" opacity="1"/><line transform="translate(0,31)" x2="800" y2="0" stroke="#ddd" stroke-width="1" opacity="1"/><line transform="translate(0,0)" x2="800" y2="0" stroke="#ddd" stroke-width="1" opacity="1"/></g></g><path class="foreground" aria-hidden="true" d="" pointer-events="none" display="none"/></g></g><g class="mark-group role-axis" role="graphics-symbol" aria-roledescription="axis" aria-label="X-axis titled 'Codon Site' for a linear scale with values from 0 to 40"><g transform="translate(0.5,600.5)"><path class="background" aria-hidden="true" d="M0,0h0v0h0Z" pointer-events="none"/><g><g class="mark-rule role-axis-tick" pointer-events="none"><line transform="translate(0,0)" x2="0" y2="5" stroke="#888" stroke-width="1" opacity="1"/><line transform="translate(40,0)" x2="0" y2="5" stroke="#888" stroke-width="1" opacity="1"/><line transform="translate(80,0)" x2="0" y2="5" stroke="#888" stroke-width="1" opacity="1"/><line transform="translate(120,0)" x2="0" y2="5" stroke="#888" stroke-width="1" opacity="1"/><line transform="translate(160,0)" x2="0" y2="5" stroke="#888" stroke-width="1" opacity="1"/><line transform="translate(200,0)" x2="0" y2="5" stroke="#888" stroke-width="1" opacity="1"/><line transform="translate(240,0)" x2="0" y2="5" stroke="#888" stroke-width="1" opacity="1"/><line transform="translate(280,0)" x2="0" y2="5" stroke="#888" stroke-width="1" opacity="1"/><line transform="translate(320,0)" x2="0" y2="5" stroke="#888" stroke-width="1" opacity="1"/><line transform="translate(360,0)" x2="0" y2="5" stroke="#888" stroke-width="1" opacity="1"/><line transform="translate(400,0)" x2="0" y2="5" stroke="#888" stroke-width="1" opacity="1"/><line transform="translate(440,0)" x2="0" y2="5" stroke="#888" stroke-width="1" opacity="1"/><line transform="translate(480,0)" x2="0" y2="5" stroke="#888" stroke-width="1" opacity="1"/><line transform="translate(520,0)" x2="0" y2="5" stroke="#888" stroke-width="1" opacity="1"/><line transform="translate(560,0)" x2="0" y2="5" stroke="#888" stroke-width="1" opacity="1"/><line transform="translate(600,0)" x2="0" y2="5" stroke="#888" stroke-width="1" opacity="1"/><line transform="translate(640,0)" x2="0" y2="5" stroke="#888" stroke-width="1" opacity="1"/><line transform="translate(680,0)" x2="0" y2="5" stroke="#888" stroke-width="1" opacity="1"/><line transform="translate(720,0)" x2="0" y2="5" stroke="#888" stroke-width="1" opacity="1"/><line transform="translate(760,0)" x2="0" y2="5" stroke="#888" stroke-width="1" opacity="1"/><line transform="translate(800,0)" x2="0" y2="5" stroke="#888" stroke-width="1" opacity="1"/></g><g class="mark-text role-axis-label" pointer-events="none"><text text-anchor="start" transform="translate(0,15)" font-family="sans-serif" font-size="10px" fill="#000" opacity="1">0</text><text text-anchor="middle" transform="translate(40,15)" font-family="sans-serif" font-size="10px" fill="#000" opacity="1">2</text><text text-anchor="middle" transform="translate(80,15)" font-family="sans-serif" font-size="10px" fill="#000" opacity="1">4</text><text text-anchor="middle" transform="translate(120,15)" font-family="sans-serif" font-size="10px" fill="#000" opacity="1">6</text><text text-anchor="middle" transform="translate(160,15)" font-family="sans-serif" font-size="10px" fill="#000" opacity="1">8</text><text text-anchor="middle" transform="translate(200,15)" font-family="sans-serif" font-size="10px" fill="#000" opacity="1">10</text><text text-anchor="middle" transform="translate(240,15)" font-family="sans-serif" font-size="10px" fill="#000" opacity="1">12</text><text text-anchor="middle" transform="translate(280,15)" font-family="sans-serif" font-size="10px" fill="#000" opacity="1">14</text><text text-anchor="middle" transform="translate(320,15)" font-family="sans-serif" font-size="10px" fill="#000" opacity="1">16</text><text text-anchor="middle" transform="translate(360,15)" font-family="sans-serif" font-size="10px" fill="#000" opacity="1">18</text><text text-anchor="middle" transform="translate(400,15)" font-family="sans-serif" font-size="10px" fill="#000" opacity="1">20</text><text text-anchor="middle" transform="translate(440.00000000000006,15)" font-family="sans-serif" font-size="10px" fill="#000" opacity="1">22</text><text text-anchor="middle" transform="translate(480,15)" font-family="sans-serif" font-size="10px" fill="#000" opacity="1">24</text><text text-anchor="middle" transform="translate(520,15)" font-family="sans-serif" font-size="10px" fill="#000" opacity="1">26</text><text text-anchor="middle" transform="translate(560,15)" font-family="sans-serif" font-size="10px" fill="#000" opacity="1">28</text><text text-anchor="middle" transform="translate(600,15)" font-family="sans-serif" font-size="10px" fill="#000" opacity="1">30</text><text text-anchor="middle" transform="translate(640,15)" font-family="sans-serif" font-size="10px" fill="#000" opacity="1">32</text><text text-anchor="middle" transform="translate(680,15)" font-family="sans-serif" font-size="10px" fill="#000" opacity="1">34</text><text text-anchor="middle" transform="translate(720,15)" font-family="sans-serif" font-size="10px" fill="#000" opacity="1">36</text><text text-anchor="middle" transform="translate(760,15)" font-family="sans-serif" font-size="10px" fill="#000" opacity="1">38</text><text text-anchor="end" transform="translate(800,15)" font-family="sans-serif" font-size="10px" fill="#000" opacity="1">40</text></g><g class="mark-rule role-axis-domain" pointer-events="none"><line transform="translate(0,0)" x2="800" y2="0" stroke="#888" stroke-width="1" opacity="1"/></g><g class="mark-text role-axis-title" pointer-events="none"><text text-anchor="middle" transform="translate(400,30)" font-family="sans-serif" font-size="11px" font-weight="bold" fill="#000" opacity="1">Codon Site</text></g></g><path class="foreground" aria-hidden="true" d="" pointer-events="none" display="none"/></g></g><g class="mark-group role-axis" role="graphics-symbol" aria-roledescription="axis" aria-label="Y-axis titled 'dN/dS estimate' for a sqrt scale with values from 0 to 5"><g transform="translate(0.5,0.5)"><path class="background" aria-hidden="true" d="M0,0h0v0h0Z" pointer-events="none"/><g><g class="mark-rule role-axis-tick" pointer-events="none"><line transform="translate(0,600)" x2="-5" y2="0" stroke="#888" stroke-width="1" opacity="1"/><line transform="translate(0,410)" x2="-5" y2="0" stroke="#888" stroke-width="1" opacity="1"/><line transform="translate(0,332)" x2="-5" y2="0" stroke="#888" stroke-width="1" opacity="1"/><line transform="translate(0,271)" x2="-5" y2="0" stroke="#888" stroke-width="1" opacity="1"/><line transform="translate(0,221)" x2="-5" y2="0" stroke="#888" stroke-width="1" opacity="1"/><line transform="translate(0,176)" x2="-5" y2="0" stroke="#888" stroke-width="1" opacity="1"/><line transform="translate(0,135)" x2="-5" y2="0" stroke="#888" stroke-width="1" opacity="1"/><line transform="translate(0,98)" x2="-5" y2="0" stroke="#888" stroke-width="1" opacity="1"/><line transform="translate(0,63)" x2="-5" y2="0" stroke="#888" stroke-width="1" opacity="1"/><line transform="translate(0,31)" x2="-5" y2="0" stroke="#888" stroke-width="1" opacity="1"/><line transform="translate(0,0)" x2="-5" y2="0" stroke="#888" stroke-width="1" opacity="1"/></g><g class="mark-text role-axis-label" pointer-events="none"><text text-anchor="end" transform="translate(-7,603)" font-family="sans-serif" font-size="10px" fill="#000" opacity="1">0.0</text><text text-anchor="end" transform="translate(-7,413.2633403898972)" font-family="sans-serif" font-size="10px" fill="#000" opacity="1">0.5</text><text text-anchor="end" transform="translate(-7,334.67184270002525)" font-family="sans-serif" font-size="10px" fill="#000" opacity="1">1.0</text><text text-anchor="end" transform="translate(-7,274.36646549690033)" font-family="sans-serif" font-size="10px" fill="#000" opacity="1">1.5</text><text text-anchor="end" transform="translate(-7,223.52668077979448)" font-family="sans-serif" font-size="10px" fill="#000" opacity="1">2.0</text><text text-anchor="end" transform="translate(-7,178.73593128807147)" font-family="sans-serif" font-size="10px" fill="#000" opacity="1">2.5</text><text text-anchor="end" transform="translate(-7,138.24199845511004)" font-family="sans-serif" font-size="10px" fill="#000" opacity="1">3.0</text><text text-anchor="end" transform="translate(-7,101.00398407955473)" font-family="sans-serif" font-size="10px" fill="#000" opacity="1">3.5</text><text text-anchor="end" transform="translate(-7,66.34368540005049)" font-family="sans-serif" font-size="10px" fill="#000" opacity="1">4.0</text><text text-anchor="end" transform="translate(-7,33.790021169691805)" font-family="sans-serif" font-size="10px" fill="#000" opacity="1">4.5</text><text text-anchor="end" transform="translate(-7,3)" font-family="sans-serif" font-size="10px" fill="#000" opacity="1">5.0</text></g><g class="mark-rule role-axis-domain" pointer-events="none"><line transform="translate(0,600)" x2="0" y2="-600" stroke="#888" stroke-width="1" opacity="1"/></g><g class="mark-text role-axis-title" pointer-events="none"><text text-anchor="middle" transform="translate(-24.9013671875,300) rotate(-90) translate(0,-2)" font-family="sans-serif" font-size="11px" font-weight="bold" fill="#000" opacity="1">dN/dS estimate</text></g></g><path class="foreground" aria-hidden="true" d="" pointer-events="none" display="none"/></g></g><g class="mark-symbol role-mark layer_0_marks" clip-path="url(#clip1)" role="graphics-object" aria-roledescription="symbol mark container"><path aria-label="Codon Site: 1; dN/dS estimate: 0" role="graphics-symbol" aria-roledescription="circle" transform="translate(20,600)" d="M4.472,0A4.472,4.472,0,1,1,-4.472,0A4.472,4.472,0,1,1,4.472,0" fill="lightgray" stroke-width="2" opacity="0.9"/><path aria-label="Codon Site: 2; dN/dS estimate: 0.0817639228214" role="graphics-symbol" aria-roledescription="circle" transform="translate(40,523.2731960580977)" d="M4.472,0A4.472,4.472,0,1,1,-4.472,0A4.472,4.472,0,1,1,4.472,0" fill="red" stroke-width="2" opacity="0.9"/><path aria-label="Codon Site: 3; dN/dS estimate: 0.510370731141" role="graphics-symbol" aria-roledescription="circle" transform="translate(60,408.3057313268046)" d="M4.472,0A4.472,4.472,0,1,1,-4.472,0A4.472,4.472,0,1,1,4.472,0" fill="lightgray" stroke-width="2" opacity="0.9"/><path aria-label="Codon Site: 4; dN/dS estimate: 1.01403896111e-8" role="graphics-symbol" aria-roledescription="circle" transform="translate(80,599.9729794883098)" d="M4.472,0A4.472,4.472,0,1,1,-4.472,0A4.472,4.472,0,1,1,4.472,0" fill="red" stroke-width="2" opacity="0.9"/><path aria-label="Codon Site: 5; dN/dS estimate: 0.546070777137" role="graphics-symbol" aria-roledescription="circle" transform="translate(100,401.7146098325981)" d="M4.472,0A4.472,4.472,0,1,1,-4.472,0A4.472,4.472,0,1,1,4.472,0" fill="lightgray" stroke-width="2" opacity="0.9"/><path aria-label="Codon Site: 6; dN/dS estimate: 7.97097297021e-7" role="graphics-symbol" aria-roledescription="circle" transform="translate(120,599.760435801119)" d="M4.472,0A4.472,4.472,0,1,1,-4.472,0A4.472,4.472,0,1,1,4.472,0" fill="red" stroke-width="2" opacity="0.9"/><path aria-label="Codon Site: 7; dN/dS estimate: 4.02586775553e-8" role="graphics-symbol" aria-roledescription="circle" transform="translate(140,599.9461611220029)" d="M4.472,0A4.472,4.472,0,1,1,-4.472,0A4.472,4.472,0,1,1,4.472,0" fill="red" stroke-width="2" opacity="0.9"/><path aria-label="Codon Site: 8; dN/dS estimate: 0.0677877331809" role="graphics-symbol" aria-roledescription="circle" transform="translate(160,530.1378729995484)" d="M4.472,0A4.472,4.472,0,1,1,-4.472,0A4.472,4.472,0,1,1,4.472,0" fill="red" stroke-width="2" opacity="0.9"/><path aria-label="Codon Site: 9; dN/dS estimate: 0.571602437963" role="graphics-symbol" aria-roledescription="circle" transform="translate(180,397.13212296333023)" d="M4.472,0A4.472,4.472,0,1,1,-4.472,0A4.472,4.472,0,1,1,4.472,0" fill="lightgray" stroke-width="2" opacity="0.9"/><path aria-label="Codon Site: 10; dN/dS estimate: 10000" role="graphics-symbol" aria-roledescription="circle" transform="translate(200,0)" d="M4.472,0A4.472,4.472,0,1,1,-4.472,0A4.472,4.472,0,1,1,4.472,0" fill="lightgray" stroke-width="2" opacity="0.9"/><path aria-label="Codon Site: 11; dN/dS estimate: 1.66867571881e-8" role="graphics-symbol" aria-roledescription="circle" transform="translate(220.00000000000003,599.9653381114545)" d="M4.472,0A4.472,4.472,0,1,1,-4.472,0A4.472,4.472,0,1,1,4.472,0" fill="red" stroke-width="2" opacity="0.9"/><path aria-label="Codon Site: 12; dN/dS estimate: 10000" role="graphics-symbol" aria-roledescription="circle" transform="translate(240,0)" d="M4.472,0A4.472,4.472,0,1,1,-4.472,0A4.472,4.472,0,1,1,4.472,0" fill="lightgray" stroke-width="2" opacity="0.9"/><path aria-label="Codon Site: 13; dN/dS estimate: 0" role="graphics-symbol" aria-roledescription="circle" transform="translate(260,600)" d="M4.472,0A4.472,4.472,0,1,1,-4.472,0A4.472,4.472,0,1,1,4.472,0" fill="lightgray" stroke-width="2" opacity="0.9"/><path aria-label="Codon Site: 14; dN/dS estimate: 0.373947162127" role="graphics-symbol" aria-roledescription="circle" transform="translate(280,435.914060099256)" d="M4.472,0A4.472,4.472,0,1,1,-4.472,0A4.472,4.472,0,1,1,4.472,0" fill="lightgray" stroke-width="2" opacity="0.9"/><path aria-label="Codon Site: 15; dN/dS estimate: 1.88735866378e-8" role="graphics-symbol" aria-roledescription="circle" transform="translate(300,599.9631367630569)" d="M4.472,0A4.472,4.472,0,1,1,-4.472,0A4.472,4.472,0,1,1,4.472,0" fill="red" stroke-width="2" opacity="0.9"/><path aria-label="Codon Site: 16; dN/dS estimate: 0.0772114750555" role="graphics-symbol" aria-roledescription="circle" transform="translate(320,525.4397813576511)" d="M4.472,0A4.472,4.472,0,1,1,-4.472,0A4.472,4.472,0,1,1,4.472,0" fill="red" stroke-width="2" opacity="0.9"/><path aria-label="Codon Site: 17; dN/dS estimate: 0.0397568991834" role="graphics-symbol" aria-roledescription="circle" transform="translate(340,546.4976940571371)" d="M4.472,0A4.472,4.472,0,1,1,-4.472,0A4.472,4.472,0,1,1,4.472,0" fill="red" stroke-width="2" opacity="0.9"/><path aria-label="Codon Site: 18; dN/dS estimate: 0.110856595184" role="graphics-symbol" aria-roledescription="circle" transform="translate(360,510.6597803156854)" d="M4.472,0A4.472,4.472,0,1,1,-4.472,0A4.472,4.472,0,1,1,4.472,0" fill="red" stroke-width="2" opacity="0.9"/><path aria-label="Codon Site: 19; dN/dS estimate: 0.0544534297572" role="graphics-symbol" aria-roledescription="circle" transform="translate(380,537.3849303879596)" d="M4.472,0A4.472,4.472,0,1,1,-4.472,0A4.472,4.472,0,1,1,4.472,0" fill="red" stroke-width="2" opacity="0.9"/><path aria-label="Codon Site: 20; dN/dS estimate: 6.93033206197e-8" role="graphics-symbol" aria-roledescription="circle" transform="translate(400,599.9293612069425)" d="M4.472,0A4.472,4.472,0,1,1,-4.472,0A4.472,4.472,0,1,1,4.472,0" fill="red" stroke-width="2" opacity="0.9"/><path aria-label="Codon Site: 21; dN/dS estimate: 0.0434678589145" role="graphics-symbol" aria-roledescription="circle" transform="translate(420,544.0564048184099)" d="M4.472,0A4.472,4.472,0,1,1,-4.472,0A4.472,4.472,0,1,1,4.472,0" fill="red" stroke-width="2" opacity="0.9"/><path aria-label="Codon Site: 22; dN/dS estimate: 2.50831274341e-8" role="graphics-symbol" aria-roledescription="circle" transform="translate(440.00000000000006,599.9575031156994)" d="M4.472,0A4.472,4.472,0,1,1,-4.472,0A4.472,4.472,0,1,1,4.472,0" fill="red" stroke-width="2" opacity="0.9"/><path aria-label="Codon Site: 23; dN/dS estimate: 0.651389811575" role="graphics-symbol" aria-roledescription="circle" transform="translate(459.99999999999994,383.4357683425432)" d="M4.472,0A4.472,4.472,0,1,1,-4.472,0A4.472,4.472,0,1,1,4.472,0" fill="lightgray" stroke-width="2" opacity="0.9"/><path aria-label="Codon Site: 24; dN/dS estimate: 0.00000215964523487" role="graphics-symbol" aria-roledescription="circle" transform="translate(480,599.6056721454034)" d="M4.472,0A4.472,4.472,0,1,1,-4.472,0A4.472,4.472,0,1,1,4.472,0" fill="red" stroke-width="2" opacity="0.9"/><path aria-label="Codon Site: 25; dN/dS estimate: 0.0655403285276" role="graphics-symbol" aria-roledescription="circle" transform="translate(500,531.3057232807096)" d="M4.472,0A4.472,4.472,0,1,1,-4.472,0A4.472,4.472,0,1,1,4.472,0" fill="red" stroke-width="2" opacity="0.9"/><path aria-label="Codon Site: 26; dN/dS estimate: 4.68014633546e-7" role="graphics-symbol" aria-roledescription="circle" transform="translate(520,599.8164324276586)" d="M4.472,0A4.472,4.472,0,1,1,-4.472,0A4.472,4.472,0,1,1,4.472,0" fill="red" stroke-width="2" opacity="0.9"/><path aria-label="Codon Site: 27; dN/dS estimate: 0.0400588502664" role="graphics-symbol" aria-roledescription="circle" transform="translate(540,546.2949050910064)" d="M4.472,0A4.472,4.472,0,1,1,-4.472,0A4.472,4.472,0,1,1,4.472,0" fill="red" stroke-width="2" opacity="0.9"/><path aria-label="Codon Site: 28; dN/dS estimate: 4.94179416058e-10" role="graphics-symbol" aria-roledescription="circle" transform="translate(560,599.9940350257372)" d="M4.472,0A4.472,4.472,0,1,1,-4.472,0A4.472,4.472,0,1,1,4.472,0" fill="red" stroke-width="2" opacity="0.9"/><path aria-label="Codon Site: 29; dN/dS estimate: 3.43520184287e-9" role="graphics-symbol" aria-roledescription="circle" transform="translate(580,599.9842731270531)" d="M4.472,0A4.472,4.472,0,1,1,-4.472,0A4.472,4.472,0,1,1,4.472,0" fill="red" stroke-width="2" opacity="0.9"/><path aria-label="Codon Site: 30; dN/dS estimate: 0.120281479881" role="graphics-symbol" aria-roledescription="circle" transform="translate(600,506.939446856062)" d="M4.472,0A4.472,4.472,0,1,1,-4.472,0A4.472,4.472,0,1,1,4.472,0" fill="red" stroke-width="2" opacity="0.9"/><path aria-label="Codon Site: 31; dN/dS estimate: 0.0942504792303" role="graphics-symbol" aria-roledescription="circle" transform="translate(620,517.622609263354)" d="M4.472,0A4.472,4.472,0,1,1,-4.472,0A4.472,4.472,0,1,1,4.472,0" fill="red" stroke-width="2" opacity="0.9"/><path aria-label="Codon Site: 32; dN/dS estimate: 0.0000369458789271" role="graphics-symbol" aria-roledescription="circle" transform="translate(640,598.3690176939184)" d="M4.472,0A4.472,4.472,0,1,1,-4.472,0A4.472,4.472,0,1,1,4.472,0" fill="red" stroke-width="2" opacity="0.9"/><path aria-label="Codon Site: 33; dN/dS estimate: 0.126913475924" role="graphics-symbol" aria-roledescription="circle" transform="translate(660,504.4083148671356)" d="M4.472,0A4.472,4.472,0,1,1,-4.472,0A4.472,4.472,0,1,1,4.472,0" fill="red" stroke-width="2" opacity="0.9"/><path aria-label="Codon Site: 34; dN/dS estimate: 0.00000475753380451" role="graphics-symbol" aria-roledescription="circle" transform="translate(680,599.4147287518382)" d="M4.472,0A4.472,4.472,0,1,1,-4.472,0A4.472,4.472,0,1,1,4.472,0" fill="red" stroke-width="2" opacity="0.9"/><path aria-label="Codon Site: 35; dN/dS estimate: 0.00000241516107128" role="graphics-symbol" aria-roledescription="circle" transform="translate(700,599.582996885944)" d="M4.472,0A4.472,4.472,0,1,1,-4.472,0A4.472,4.472,0,1,1,4.472,0" fill="red" stroke-width="2" opacity="0.9"/><path aria-label="Codon Site: 36; dN/dS estimate: 2.21554783189e-7" role="graphics-symbol" aria-roledescription="circle" transform="translate(720,599.8736989929192)" d="M4.472,0A4.472,4.472,0,1,1,-4.472,0A4.472,4.472,0,1,1,4.472,0" fill="red" stroke-width="2" opacity="0.9"/><path aria-label="Codon Site: 37; dN/dS estimate: 0.00000221240904101" role="graphics-symbol" aria-roledescription="circle" transform="translate(740,599.6008841634902)" d="M4.472,0A4.472,4.472,0,1,1,-4.472,0A4.472,4.472,0,1,1,4.472,0" fill="red" stroke-width="2" opacity="0.9"/><path aria-label="Codon Site: 38; dN/dS estimate: 1.53532209506" role="graphics-symbol" aria-roledescription="circle" transform="translate(760,267.5196384079421)" d="M4.472,0A4.472,4.472,0,1,1,-4.472,0A4.472,4.472,0,1,1,4.472,0" fill="lightgray" stroke-width="2" opacity="0.9"/><path aria-label="Codon Site: 39; dN/dS estimate: 9.1130555341e-8" role="graphics-symbol" aria-roledescription="circle" transform="translate(780,599.9189975309972)" d="M4.472,0A4.472,4.472,0,1,1,-4.472,0A4.472,4.472,0,1,1,4.472,0" fill="red" stroke-width="2" opacity="0.9"/></g><g class="mark-area role-mark layer_1_marks" role="graphics-object" aria-roledescription="area mark container"><path aria-label="CodonSite: 1; dN/dS LB: 0; dN/dS UB: 0" role="graphics-symbol" aria-roledescription="area mark" d="M20,600L40,569.222L60,522.504L80,600L100,458.032L120,600L140,600L160,583.459L180,518.29L200,0L220,600L240,0L260,600L280,509.517L300,600L320,582.237L340,587.259L360,578.738L380,585.136L400,600L420,586.638L440,600L460,493.576L480,600L500,583.656L520,600L540,587.198L560,600L580,600L600,562.784L620,567.066L640,600L660,553.125L680,600L700,600L720,600L740,600L760,435.577L780,600L780,532.157L760,55.052L740,431.683L720,487.343L700,467.185L680,537.798L660,440.402L640,498.6L620,450.024L600,429.962L580,518.514L560,539.719L540,484.732L520,492.893L500,452.876L480,424.748L460,240.529L440,536.07L420,480.273L400,537.953L380,465.76L360,409.502L340,486.384L320,440.292L300,509.653L280,344.649L260,600L240,0L220,540.221L200,0L180,232.41L160,450.112L140,535.963L120,539.228L100,333.397L80,555.838L60,254.865L40,459.558L20,600Z" fill="#4c78a8" opacity="0.5"/></g></g><path class="foreground" aria-hidden="true" d="" display="none"/></g></g></g><defs><clipPath id="clip1"><rect x="0" y="0" width="800" height="600"/></clipPath></defs></svg>